<svg xmlns="http://www.w3.org/2000/svg" width="300" height="300" viewBox="0 0 300 300"><defs><clipPath id="a"><path d="M0 0h300v300H0z"/></clipPath><clipPath id="b"><path transform="rotate(30 182.057 131.925)" d="M0 0h300v300H0z"/></clipPath><clipPath id="c"><path transform="rotate(120 132.675 118.693)" d="M0 0h300v300H0z"/></clipPath></defs><path fill="none" stroke="#f6f7f7" d="M-225 525h750M-225 525v-750M-225 487.5h750M-225 525v-750M-225 450h750M-225 525v-750M-225 412.5h750M-225 525v-750M-225 375h750M-225 525v-750M-225 337.5h750M-225 525v-750M-225 300h750M-225 525v-750M-225 262.5h750M-225 525v-750M-225 225h750M-225 525v-750M-225 187.5h750M-225 525v-750M-225 150h750M-225 525v-750M-225 112.5h750M-225 525v-750M-225 75h750M-225 525v-750M-225 37.5h750M-225 525v-750M-225 0h750M-225 525v-750M-225-37.5h750M-225 525v-750M-225-75h750M-225 525v-750M-225-112.5h750M-225 525v-750M-225-150h750M-225 525v-750M-225-187.5h750M-225 525v-750M-225 525h750M-187.5 525v-750M-225 487.5h750M-187.5 525v-750M-225 450h750M-187.5 525v-750M-225 412.5h750M-187.5 525v-750M-225 375h750M-187.5 525v-750M-225 337.5h750M-187.5 525v-750M-225 300h750M-187.5 525v-750M-225 262.5h750M-187.5 525v-750M-225 225h750M-187.5 525v-750M-225 187.5h750M-187.5 525v-750M-225 150h750M-187.5 525v-750M-225 112.5h750M-187.5 525v-750M-225 75h750M-187.5 525v-750M-225 37.5h750M-187.5 525v-750M-225 0h750M-187.5 525v-750M-225-37.5h750M-187.5 525v-750M-225-75h750M-187.5 525v-750M-225-112.5h750M-187.5 525v-750M-225-150h750M-187.5 525v-750M-225-187.5h750M-187.5 525v-750M-225 525h750M-150 525v-750M-225 487.5h750M-150 525v-750M-225 450h750M-150 525v-750M-225 412.5h750M-150 525v-750M-225 375h750M-150 525v-750M-225 337.5h750M-150 525v-750M-225 300h750M-150 525v-750M-225 262.5h750M-150 525v-750M-225 225h750M-150 525v-750M-225 187.5h750M-150 525v-750M-225 150h750M-150 525v-750M-225 112.5h750M-150 525v-750M-225 75h750M-150 525v-750M-225 37.5h750M-150 525v-750M-225 0h750M-150 525v-750M-225-37.5h750M-150 525v-750M-225-75h750M-150 525v-750M-225-112.5h750M-150 525v-750M-225-150h750M-150 525v-750M-225-187.5h750M-150 525v-750M-225 525h750M-112.5 525v-750M-225 487.5h750M-112.5 525v-750M-225 450h750M-112.5 525v-750M-225 412.5h750M-112.5 525v-750M-225 375h750M-112.5 525v-750M-225 337.5h750M-112.5 525v-750M-225 300h750M-112.5 525v-750M-225 262.5h750M-112.5 525v-750M-225 225h750M-112.5 525v-750M-225 187.5h750M-112.5 525v-750M-225 150h750M-112.5 525v-750M-225 112.5h750M-112.5 525v-750M-225 75h750M-112.5 525v-750M-225 37.5h750M-112.5 525v-750M-225 0h750M-112.5 525v-750M-225-37.5h750M-112.5 525v-750M-225-75h750M-112.5 525v-750M-225-112.5h750M-112.5 525v-750M-225-150h750M-112.5 525v-750M-225-187.5h750M-112.5 525v-750M-225 525h750M-75 525v-750M-225 487.5h750M-75 525v-750M-225 450h750M-75 525v-750M-225 412.5h750M-75 525v-750M-225 375h750M-75 525v-750M-225 337.5h750M-75 525v-750M-225 300h750M-75 525v-750M-225 262.5h750M-75 525v-750M-225 225h750M-75 525v-750M-225 187.5h750M-75 525v-750M-225 150h750M-75 525v-750M-225 112.5h750M-75 525v-750M-225 75h750M-75 525v-750M-225 37.5h750M-75 525v-750M-225 0h750M-75 525v-750M-225-37.5h750M-75 525v-750M-225-75h750M-75 525v-750M-225-112.5h750M-75 525v-750M-225-150h750M-75 525v-750M-225-187.5h750M-75 525v-750M-225 525h750M-37.5 525v-750M-225 487.5h750M-37.5 525v-750M-225 450h750M-37.5 525v-750M-225 412.5h750M-37.5 525v-750M-225 375h750M-37.5 525v-750M-225 337.5h750M-37.5 525v-750M-225 300h750M-37.5 525v-750M-225 262.5h750M-37.5 525v-750M-225 225h750M-37.5 525v-750M-225 187.5h750M-37.5 525v-750M-225 150h750M-37.5 525v-750M-225 112.5h750M-37.5 525v-750M-225 75h750M-37.5 525v-750M-225 37.5h750M-37.5 525v-750M-225 0h750M-37.5 525v-750M-225-37.5h750M-37.5 525v-750M-225-75h750M-37.5 525v-750M-225-112.5h750M-37.5 525v-750M-225-150h750M-37.5 525v-750M-225-187.5h750M-37.5 525v-750M-225 525h750M0 525v-750M-225 487.5h750M0 525v-750M-225 450h750M0 525v-750M-225 412.5h750M0 525v-750M-225 375h750M0 525v-750M-225 337.5h750M0 525v-750M-225 300h750M0 525v-750M-225 262.5h750M0 525v-750M-225 225h750M0 525v-750M-225 187.5h750M0 525v-750M-225 150h750M0 525v-750M-225 112.5h750M0 525v-750M-225 75h750M0 525v-750M-225 37.5h750M0 525v-750M-225 0h750M0 525v-750M-225-37.5h750M0 525v-750M-225-75h750M0 525v-750M-225-112.5h750M0 525v-750M-225-150h750M0 525v-750M-225-187.5h750M0 525v-750M-225 525h750M37.5 525v-750M-225 487.5h750M37.5 525v-750M-225 450h750M37.5 525v-750M-225 412.5h750M37.5 525v-750M-225 375h750M37.5 525v-750M-225 337.5h750M37.5 525v-750M-225 300h750M37.5 525v-750M-225 262.5h750M37.5 525v-750M-225 225h750M37.5 525v-750M-225 187.5h750M37.5 525v-750M-225 150h750M37.5 525v-750M-225 112.5h750M37.5 525v-750M-225 75h750M37.5 525v-750M-225 37.5h750M37.5 525v-750M-225 0h750M37.5 525v-750M-225-37.5h750M37.5 525v-750M-225-75h750M37.5 525v-750M-225-112.5h750M37.5 525v-750M-225-150h750M37.5 525v-750M-225-187.5h750M37.5 525v-750M-225 525h750M75 525v-750M-225 487.5h750M75 525v-750M-225 450h750M75 525v-750M-225 412.5h750M75 525v-750M-225 375h750M75 525v-750M-225 337.5h750M75 525v-750M-225 300h750M75 525v-750M-225 262.5h750M75 525v-750M-225 225h750M75 525v-750M-225 187.5h750M75 525v-750M-225 150h750M75 525v-750M-225 112.5h750M75 525v-750M-225 75h750M75 525v-750M-225 37.5h750M75 525v-750M-225 0h750M75 525v-750M-225-37.5h750M75 525v-750M-225-75h750M75 525v-750M-225-112.5h750M75 525v-750M-225-150h750M75 525v-750M-225-187.5h750M75 525v-750M-225 525h750M112.5 525v-750M-225 487.5h750M112.5 525v-750M-225 450h750M112.5 525v-750M-225 412.5h750M112.5 525v-750M-225 375h750M112.5 525v-750M-225 337.5h750M112.5 525v-750M-225 300h750M112.5 525v-750M-225 262.5h750M112.5 525v-750M-225 225h750M112.5 525v-750M-225 187.5h750M112.5 525v-750M-225 150h750M112.5 525v-750M-225 112.5h750M112.5 525v-750M-225 75h750M112.5 525v-750M-225 37.5h750M112.5 525v-750M-225 0h750M112.5 525v-750M-225-37.5h750M112.5 525v-750M-225-75h750M112.5 525v-750M-225-112.5h750M112.5 525v-750M-225-150h750M112.5 525v-750M-225-187.5h750M112.5 525v-750M-225 525h750M150 525v-750M-225 487.5h750M150 525v-750M-225 450h750M150 525v-750M-225 412.5h750M150 525v-750M-225 375h750M150 525v-750M-225 337.5h750M150 525v-750M-225 300h750M150 525v-750M-225 262.5h750M150 525v-750M-225 225h750M150 525v-750M-225 187.5h750M150 525v-750M-225 150h750M150 525v-750M-225 112.5h750M150 525v-750M-225 75h750M150 525v-750M-225 37.5h750M150 525v-750M-225 0h750M150 525v-750M-225-37.5h750M150 525v-750M-225-75h750M150 525v-750M-225-112.5h750M150 525v-750M-225-150h750M150 525v-750M-225-187.5h750M150 525v-750M-225 525h750M187.5 525v-750M-225 487.5h750M187.5 525v-750M-225 450h750M187.5 525v-750M-225 412.5h750M187.5 525v-750M-225 375h750M187.5 525v-750M-225 337.5h750M187.5 525v-750M-225 300h750M187.5 525v-750M-225 262.5h750M187.5 525v-750M-225 225h750M187.5 525v-750M-225 187.5h750M187.5 525v-750M-225 150h750M187.5 525v-750M-225 112.5h750M187.5 525v-750M-225 75h750M187.5 525v-750M-225 37.5h750M187.5 525v-750M-225 0h750M187.5 525v-750M-225-37.5h750M187.5 525v-750M-225-75h750M187.5 525v-750M-225-112.5h750M187.5 525v-750M-225-150h750M187.5 525v-750M-225-187.5h750M187.5 525v-750M-225 525h750M225 525v-750M-225 487.5h750M225 525v-750M-225 450h750M225 525v-750M-225 412.5h750M225 525v-750M-225 375h750M225 525v-750M-225 337.5h750M225 525v-750M-225 300h750M225 525v-750M-225 262.5h750M225 525v-750M-225 225h750M225 525v-750M-225 187.5h750M225 525v-750M-225 150h750M225 525v-750M-225 112.5h750M225 525v-750M-225 75h750M225 525v-750M-225 37.5h750M225 525v-750M-225 0h750M225 525v-750M-225-37.5h750M225 525v-750M-225-75h750M225 525v-750M-225-112.5h750M225 525v-750M-225-150h750M225 525v-750M-225-187.5h750M225 525v-750M-225 525h750M262.5 525v-750M-225 487.5h750M262.5 525v-750M-225 450h750M262.5 525v-750M-225 412.5h750M262.5 525v-750M-225 375h750M262.5 525v-750M-225 337.5h750M262.5 525v-750M-225 300h750M262.5 525v-750M-225 262.5h750M262.5 525v-750M-225 225h750M262.5 525v-750M-225 187.5h750M262.5 525v-750M-225 150h750M262.5 525v-750M-225 112.5h750M262.5 525v-750M-225 75h750M262.5 525v-750M-225 37.5h750M262.5 525v-750M-225 0h750M262.5 525v-750M-225-37.5h750M262.5 525v-750M-225-75h750M262.5 525v-750M-225-112.5h750M262.5 525v-750M-225-150h750M262.5 525v-750M-225-187.5h750M262.5 525v-750M-225 525h750M300 525v-750M-225 487.5h750M300 525v-750M-225 450h750M300 525v-750M-225 412.5h750M300 525v-750M-225 375h750M300 525v-750M-225 337.5h750M300 525v-750M-225 300h750M300 525v-750M-225 262.5h750M300 525v-750M-225 225h750M300 525v-750M-225 187.5h750M300 525v-750M-225 150h750M300 525v-750M-225 112.5h750M300 525v-750M-225 75h750M300 525v-750M-225 37.5h750M300 525v-750M-225 0h750M300 525v-750M-225-37.5h750M300 525v-750M-225-75h750M300 525v-750M-225-112.5h750M300 525v-750M-225-150h750M300 525v-750M-225-187.5h750M300 525v-750M-225 525h750M337.5 525v-750M-225 487.5h750M337.5 525v-750M-225 450h750M337.5 525v-750M-225 412.5h750M337.5 525v-750M-225 375h750M337.5 525v-750M-225 337.5h750M337.5 525v-750M-225 300h750M337.5 525v-750M-225 262.5h750M337.5 525v-750M-225 225h750M337.5 525v-750M-225 187.5h750M337.5 525v-750M-225 150h750M337.5 525v-750M-225 112.5h750M337.5 525v-750M-225 75h750M337.5 525v-750M-225 37.5h750M337.5 525v-750M-225 0h750M337.5 525v-750M-225-37.5h750M337.5 525v-750M-225-75h750M337.5 525v-750M-225-112.5h750M337.5 525v-750M-225-150h750M337.5 525v-750M-225-187.5h750M337.5 525v-750M-225 525h750M375 525v-750M-225 487.5h750M375 525v-750M-225 450h750M375 525v-750M-225 412.5h750M375 525v-750M-225 375h750M375 525v-750M-225 337.5h750M375 525v-750M-225 300h750M375 525v-750M-225 262.5h750M375 525v-750M-225 225h750M375 525v-750M-225 187.5h750M375 525v-750M-225 150h750M375 525v-750M-225 112.5h750M375 525v-750M-225 75h750M375 525v-750M-225 37.5h750M375 525v-750M-225 0h750M375 525v-750M-225-37.5h750M375 525v-750M-225-75h750M375 525v-750M-225-112.5h750M375 525v-750M-225-150h750M375 525v-750M-225-187.5h750M375 525v-750M-225 525h750M412.5 525v-750M-225 487.5h750M412.5 525v-750M-225 450h750M412.5 525v-750M-225 412.5h750M412.5 525v-750M-225 375h750M412.5 525v-750M-225 337.5h750M412.5 525v-750M-225 300h750M412.5 525v-750M-225 262.5h750M412.5 525v-750M-225 225h750M412.5 525v-750M-225 187.5h750M412.5 525v-750M-225 150h750M412.5 525v-750M-225 112.5h750M412.5 525v-750M-225 75h750M412.5 525v-750M-225 37.5h750M412.5 525v-750M-225 0h750M412.5 525v-750M-225-37.5h750M412.5 525v-750M-225-75h750M412.5 525v-750M-225-112.5h750M412.5 525v-750M-225-150h750M412.5 525v-750M-225-187.5h750M412.5 525v-750M-225 525h750M450 525v-750M-225 487.5h750M450 525v-750M-225 450h750M450 525v-750M-225 412.5h750M450 525v-750M-225 375h750M450 525v-750M-225 337.5h750M450 525v-750M-225 300h750M450 525v-750M-225 262.5h750M450 525v-750M-225 225h750M450 525v-750M-225 187.5h750M450 525v-750M-225 150h750M450 525v-750M-225 112.5h750M450 525v-750M-225 75h750M450 525v-750M-225 37.5h750M450 525v-750M-225 0h750M450 525v-750M-225-37.5h750M450 525v-750M-225-75h750M450 525v-750M-225-112.5h750M450 525v-750M-225-150h750M450 525v-750M-225-187.5h750M450 525v-750M-225 525h750M487.5 525v-750M-225 487.5h750M487.5 525v-750M-225 450h750M487.5 525v-750M-225 412.5h750M487.5 525v-750M-225 375h750M487.5 525v-750M-225 337.5h750M487.5 525v-750M-225 300h750M487.5 525v-750M-225 262.5h750M487.5 525v-750M-225 225h750M487.5 525v-750M-225 187.5h750M487.5 525v-750M-225 150h750M487.5 525v-750M-225 112.5h750M487.5 525v-750M-225 75h750M487.5 525v-750M-225 37.5h750M487.5 525v-750M-225 0h750M487.5 525v-750M-225-37.5h750M487.5 525v-750M-225-75h750M487.5 525v-750M-225-112.5h750M487.5 525v-750M-225-150h750M487.5 525v-750M-225-187.5h750M487.5 525v-750" clip-path="url(#a)"/><path fill="none" stroke="#e3e5e6" d="M12.74 662.26l649.52-375M12.74 662.26l-375-649.52M-6.01 629.784l649.52-375M12.74 662.26l-375-649.52M-24.76 597.308l649.52-375M12.74 662.26l-375-649.52M-43.51 564.832l649.52-375M12.74 662.26l-375-649.52M-62.26 532.356l649.52-375M12.74 662.26l-375-649.52M-81.01 499.88l649.52-375M12.74 662.26l-375-649.52M-99.76 467.404l649.52-375M12.74 662.26l-375-649.52M-118.51 434.928l649.52-375M12.74 662.26l-375-649.52M-137.26 402.452l649.52-375M12.74 662.26l-375-649.52M-156.01 369.976l649.52-375M12.74 662.26l-375-649.52M-174.76 337.5l649.52-375M12.74 662.26l-375-649.52M-193.51 305.024l649.52-375M12.74 662.26l-375-649.52M-212.26 272.548l649.52-375M12.74 662.26l-375-649.52M-231.01 240.072l649.52-375M12.74 662.26l-375-649.52M-249.76 207.596l649.52-375M12.74 662.26l-375-649.52M-268.51 175.12l649.52-375M12.74 662.26l-375-649.52M-287.26 142.644l649.52-375M12.74 662.26l-375-649.52M-306.01 110.168l649.52-375M12.74 662.26l-375-649.52M-324.76 77.692l649.52-375M12.74 662.26l-375-649.52M-343.51 45.216l649.52-375M12.74 662.26l-375-649.52M12.74 662.26l649.52-375M45.216 643.51l-375-649.52M-6.01 629.784l649.52-375M45.216 643.51l-375-649.52M-24.76 597.308l649.52-375M45.216 643.51l-375-649.52M-43.51 564.832l649.52-375M45.216 643.51l-375-649.52M-62.26 532.356l649.52-375M45.216 643.51l-375-649.52M-81.01 499.88l649.52-375M45.216 643.51l-375-649.52M-99.76 467.404l649.52-375M45.216 643.51l-375-649.52M-118.51 434.928l649.52-375M45.216 643.51l-375-649.52M-137.26 402.452l649.52-375M45.216 643.51l-375-649.52M-156.01 369.976l649.52-375M45.216 643.51l-375-649.52M-174.76 337.5l649.52-375M45.216 643.51l-375-649.52M-193.51 305.024l649.52-375M45.216 643.51l-375-649.52M-212.26 272.548l649.52-375M45.216 643.51l-375-649.52M-231.01 240.072l649.52-375M45.216 643.51l-375-649.52M-249.76 207.596l649.52-375M45.216 643.51l-375-649.52M-268.51 175.12l649.52-375M45.216 643.51l-375-649.52M-287.26 142.644l649.52-375M45.216 643.51l-375-649.52M-306.01 110.168l649.52-375M45.216 643.51l-375-649.52M-324.76 77.692l649.52-375M45.216 643.51l-375-649.52M-343.51 45.216l649.52-375M45.216 643.51l-375-649.52M12.74 662.26l649.52-375M77.692 624.76l-375-649.52M-6.01 629.784l649.52-375M77.692 624.76l-375-649.52M-24.76 597.308l649.52-375M77.692 624.76l-375-649.52M-43.51 564.832l649.52-375M77.692 624.76l-375-649.52M-62.26 532.356l649.52-375M77.692 624.76l-375-649.52M-81.01 499.88l649.52-375M77.692 624.76l-375-649.52M-99.76 467.404l649.52-375M77.692 624.76l-375-649.52M-118.51 434.928l649.52-375M77.692 624.76l-375-649.52M-137.26 402.452l649.52-375M77.692 624.76l-375-649.52M-156.01 369.976l649.52-375M77.692 624.76l-375-649.52M-174.76 337.5l649.52-375M77.692 624.76l-375-649.52M-193.51 305.024l649.52-375M77.692 624.76l-375-649.52M-212.26 272.548l649.52-375M77.692 624.76l-375-649.52M-231.01 240.072l649.52-375M77.692 624.76l-375-649.52M-249.76 207.596l649.52-375M77.692 624.76l-375-649.52M-268.51 175.12l649.52-375M77.692 624.76l-375-649.52M-287.26 142.644l649.52-375M77.692 624.76l-375-649.52M-306.01 110.168l649.52-375M77.692 624.76l-375-649.52M-324.76 77.692l649.52-375M77.692 624.76l-375-649.52M-343.51 45.216l649.52-375M77.692 624.76l-375-649.52M12.74 662.26l649.52-375M110.168 606.01l-375-649.52M-6.01 629.784l649.52-375M110.168 606.01l-375-649.52M-24.76 597.308l649.52-375M110.168 606.01l-375-649.52M-43.51 564.832l649.52-375M110.168 606.01l-375-649.52M-62.26 532.356l649.52-375M110.168 606.01l-375-649.52M-81.01 499.88l649.52-375M110.168 606.01l-375-649.52M-99.76 467.404l649.52-375M110.168 606.01l-375-649.52M-118.51 434.928l649.52-375M110.168 606.01l-375-649.52M-137.26 402.452l649.52-375M110.168 606.01l-375-649.52M-156.01 369.976l649.52-375M110.168 606.01l-375-649.52M-174.76 337.5l649.52-375M110.168 606.01l-375-649.52M-193.51 305.024l649.52-375M110.168 606.01l-375-649.52M-212.26 272.548l649.52-375M110.168 606.01l-375-649.52M-231.01 240.072l649.52-375M110.168 606.01l-375-649.52M-249.76 207.596l649.52-375M110.168 606.01l-375-649.52M-268.51 175.12l649.52-375M110.168 606.01l-375-649.52M-287.26 142.644l649.52-375M110.168 606.01l-375-649.52M-306.01 110.168l649.52-375M110.168 606.01l-375-649.52M-324.76 77.692l649.52-375M110.168 606.01l-375-649.52M-343.51 45.216l649.52-375M110.168 606.01l-375-649.52M12.74 662.26l649.52-375M142.644 587.26l-375-649.52M-6.01 629.784l649.52-375M142.644 587.26l-375-649.52M-24.76 597.308l649.52-375M142.644 587.26l-375-649.52M-43.51 564.832l649.52-375M142.644 587.26l-375-649.52M-62.26 532.356l649.52-375M142.644 587.26l-375-649.52M-81.01 499.88l649.52-375M142.644 587.26l-375-649.52M-99.76 467.404l649.52-375M142.644 587.26l-375-649.52M-118.51 434.928l649.52-375M142.644 587.26l-375-649.52M-137.26 402.452l649.52-375M142.644 587.26l-375-649.52M-156.01 369.976l649.52-375M142.644 587.26l-375-649.52M-174.76 337.5l649.52-375M142.644 587.26l-375-649.52M-193.51 305.024l649.52-375M142.644 587.26l-375-649.52M-212.26 272.548l649.52-375M142.644 587.26l-375-649.52M-231.01 240.072l649.52-375M142.644 587.26l-375-649.52M-249.76 207.596l649.52-375M142.644 587.26l-375-649.52M-268.51 175.12l649.52-375M142.644 587.26l-375-649.52M-287.26 142.644l649.52-375M142.644 587.26l-375-649.52M-306.01 110.168l649.52-375M142.644 587.26l-375-649.52M-324.76 77.692l649.52-375M142.644 587.26l-375-649.52M-343.51 45.216l649.52-375M142.644 587.26l-375-649.52M12.74 662.26l649.52-375M175.12 568.51l-375-649.52M-6.01 629.784l649.52-375M175.12 568.51l-375-649.52M-24.76 597.308l649.52-375M175.12 568.51l-375-649.52M-43.51 564.832l649.52-375M175.12 568.51l-375-649.52M-62.26 532.356l649.52-375M175.12 568.51l-375-649.52M-81.01 499.88l649.52-375M175.12 568.51l-375-649.52M-99.76 467.404l649.52-375M175.12 568.51l-375-649.52M-118.51 434.928l649.52-375M175.12 568.51l-375-649.52M-137.26 402.452l649.52-375M175.12 568.51l-375-649.52M-156.01 369.976l649.52-375M175.12 568.51l-375-649.52M-174.76 337.5l649.52-375M175.12 568.51l-375-649.52M-193.51 305.024l649.52-375M175.12 568.51l-375-649.52M-212.26 272.548l649.52-375M175.12 568.51l-375-649.52M-231.01 240.072l649.52-375M175.12 568.51l-375-649.52M-249.76 207.596l649.52-375M175.12 568.51l-375-649.52M-268.51 175.12l649.52-375M175.12 568.51l-375-649.52M-287.26 142.644l649.52-375M175.12 568.51l-375-649.52M-306.01 110.168l649.52-375M175.12 568.51l-375-649.52M-324.76 77.692l649.52-375M175.12 568.51l-375-649.52M-343.51 45.216l649.52-375M175.12 568.51l-375-649.52M12.74 662.26l649.52-375M207.596 549.76l-375-649.52M-6.01 629.784l649.52-375M207.596 549.76l-375-649.52M-24.76 597.308l649.52-375M207.596 549.76l-375-649.52M-43.51 564.832l649.52-375M207.596 549.76l-375-649.52M-62.26 532.356l649.52-375M207.596 549.76l-375-649.52M-81.01 499.88l649.52-375M207.596 549.76l-375-649.52M-99.76 467.404l649.52-375M207.596 549.76l-375-649.52M-118.51 434.928l649.52-375M207.596 549.76l-375-649.52M-137.26 402.452l649.52-375M207.596 549.76l-375-649.52M-156.01 369.976l649.52-375M207.596 549.76l-375-649.52M-174.76 337.5l649.52-375M207.596 549.76l-375-649.52M-193.51 305.024l649.52-375M207.596 549.76l-375-649.52M-212.26 272.548l649.52-375M207.596 549.76l-375-649.52M-231.01 240.072l649.52-375M207.596 549.76l-375-649.52M-249.76 207.596l649.52-375M207.596 549.76l-375-649.52M-268.51 175.12l649.52-375M207.596 549.76l-375-649.52M-287.26 142.644l649.52-375M207.596 549.76l-375-649.52M-306.01 110.168l649.52-375M207.596 549.76l-375-649.52M-324.76 77.692l649.52-375M207.596 549.76l-375-649.52M-343.51 45.216l649.52-375M207.596 549.76l-375-649.52M12.74 662.26l649.52-375M240.072 531.01l-375-649.52M-6.01 629.784l649.52-375M240.072 531.01l-375-649.52M-24.76 597.308l649.52-375M240.072 531.01l-375-649.52M-43.51 564.832l649.52-375M240.072 531.01l-375-649.52M-62.26 532.356l649.52-375M240.072 531.01l-375-649.52M-81.01 499.88l649.52-375M240.072 531.01l-375-649.52M-99.76 467.404l649.52-375M240.072 531.01l-375-649.52M-118.51 434.928l649.52-375M240.072 531.01l-375-649.52M-137.26 402.452l649.52-375M240.072 531.01l-375-649.52M-156.01 369.976l649.52-375M240.072 531.01l-375-649.52M-174.76 337.5l649.52-375M240.072 531.01l-375-649.52M-193.51 305.024l649.52-375M240.072 531.01l-375-649.52M-212.26 272.548l649.52-375M240.072 531.01l-375-649.52M-231.01 240.072l649.52-375M240.072 531.01l-375-649.52M-249.76 207.596l649.52-375M240.072 531.01l-375-649.52M-268.51 175.12l649.52-375M240.072 531.01l-375-649.52M-287.26 142.644l649.52-375M240.072 531.01l-375-649.52M-306.01 110.168l649.52-375M240.072 531.01l-375-649.52M-324.76 77.692l649.52-375M240.072 531.01l-375-649.52M-343.51 45.216l649.52-375M240.072 531.01l-375-649.52M12.74 662.26l649.52-375M272.548 512.26l-375-649.52M-6.01 629.784l649.52-375M272.548 512.26l-375-649.52M-24.76 597.308l649.52-375M272.548 512.26l-375-649.52M-43.51 564.832l649.52-375M272.548 512.26l-375-649.52M-62.26 532.356l649.52-375M272.548 512.26l-375-649.52M-81.01 499.88l649.52-375M272.548 512.26l-375-649.52M-99.76 467.404l649.52-375M272.548 512.26l-375-649.52M-118.51 434.928l649.52-375M272.548 512.26l-375-649.52M-137.26 402.452l649.52-375M272.548 512.26l-375-649.52M-156.01 369.976l649.52-375M272.548 512.26l-375-649.52M-174.76 337.5l649.52-375M272.548 512.26l-375-649.52M-193.51 305.024l649.52-375M272.548 512.26l-375-649.52M-212.26 272.548l649.52-375M272.548 512.26l-375-649.52M-231.01 240.072l649.52-375M272.548 512.26l-375-649.52M-249.76 207.596l649.52-375M272.548 512.26l-375-649.52M-268.51 175.12l649.52-375M272.548 512.26l-375-649.52M-287.26 142.644l649.52-375M272.548 512.26l-375-649.52M-306.01 110.168l649.52-375M272.548 512.26l-375-649.52M-324.76 77.692l649.52-375M272.548 512.26l-375-649.52M-343.51 45.216l649.52-375M272.548 512.26l-375-649.52M12.74 662.26l649.52-375M305.024 493.51l-375-649.52M-6.01 629.784l649.52-375M305.024 493.51l-375-649.52M-24.76 597.308l649.52-375M305.024 493.51l-375-649.52M-43.51 564.832l649.52-375M305.024 493.51l-375-649.52M-62.26 532.356l649.52-375M305.024 493.51l-375-649.52M-81.01 499.88l649.52-375M305.024 493.51l-375-649.52M-99.76 467.404l649.52-375M305.024 493.51l-375-649.52M-118.51 434.928l649.52-375M305.024 493.51l-375-649.52M-137.26 402.452l649.52-375M305.024 493.51l-375-649.52M-156.01 369.976l649.52-375M305.024 493.51l-375-649.52M-174.76 337.5l649.52-375M305.024 493.51l-375-649.52M-193.51 305.024l649.52-375M305.024 493.51l-375-649.52M-212.26 272.548l649.52-375M305.024 493.51l-375-649.52M-231.01 240.072l649.52-375M305.024 493.51l-375-649.52M-249.76 207.596l649.52-375M305.024 493.51l-375-649.52M-268.51 175.12l649.52-375M305.024 493.51l-375-649.52M-287.26 142.644l649.52-375M305.024 493.51l-375-649.52M-306.01 110.168l649.52-375M305.024 493.51l-375-649.52M-324.76 77.692l649.52-375M305.024 493.51l-375-649.52M-343.51 45.216l649.52-375M305.024 493.51l-375-649.52M12.74 662.26l649.52-375M337.5 474.76l-375-649.52M-6.01 629.784l649.52-375M337.5 474.76l-375-649.52M-24.76 597.308l649.52-375M337.5 474.76l-375-649.52M-43.51 564.832l649.52-375M337.5 474.76l-375-649.52M-62.26 532.356l649.52-375M337.5 474.76l-375-649.52M-81.01 499.88l649.52-375M337.5 474.76l-375-649.52M-99.76 467.404l649.52-375M337.5 474.76l-375-649.52M-118.51 434.928l649.52-375M337.5 474.76l-375-649.52M-137.26 402.452l649.52-375M337.5 474.76l-375-649.52M-156.01 369.976l649.52-375M337.5 474.76l-375-649.52M-174.76 337.5l649.52-375M337.5 474.76l-375-649.52M-193.51 305.024l649.52-375M337.5 474.76l-375-649.52M-212.26 272.548l649.52-375M337.5 474.76l-375-649.52M-231.01 240.072l649.52-375M337.5 474.76l-375-649.52M-249.76 207.596l649.52-375M337.5 474.76l-375-649.52M-268.51 175.12l649.52-375M337.5 474.76l-375-649.52M-287.26 142.644l649.52-375M337.5 474.76l-375-649.52M-306.01 110.168l649.52-375M337.5 474.76l-375-649.52M-324.76 77.692l649.52-375M337.5 474.76l-375-649.52M-343.51 45.216l649.52-375M337.5 474.76l-375-649.52M12.74 662.26l649.52-375M369.976 456.01l-375-649.52M-6.01 629.784l649.52-375M369.976 456.01l-375-649.52M-24.76 597.308l649.52-375M369.976 456.01l-375-649.52M-43.51 564.832l649.52-375M369.976 456.01l-375-649.52M-62.26 532.356l649.52-375M369.976 456.01l-375-649.52M-81.01 499.88l649.52-375M369.976 456.01l-375-649.52M-99.76 467.404l649.52-375M369.976 456.01l-375-649.52M-118.51 434.928l649.52-375M369.976 456.01l-375-649.52M-137.26 402.452l649.52-375M369.976 456.01l-375-649.52M-156.01 369.976l649.52-375M369.976 456.01l-375-649.52M-174.76 337.5l649.52-375M369.976 456.01l-375-649.52M-193.51 305.024l649.52-375M369.976 456.01l-375-649.52M-212.26 272.548l649.52-375M369.976 456.01l-375-649.52M-231.01 240.072l649.52-375M369.976 456.01l-375-649.52M-249.76 207.596l649.52-375M369.976 456.01l-375-649.52M-268.51 175.12l649.52-375M369.976 456.01l-375-649.52M-287.26 142.644l649.52-375M369.976 456.01l-375-649.52M-306.01 110.168l649.52-375M369.976 456.01l-375-649.52M-324.76 77.692l649.52-375M369.976 456.01l-375-649.52M-343.51 45.216l649.52-375M369.976 456.01l-375-649.52M12.74 662.26l649.52-375M402.452 437.26l-375-649.52M-6.01 629.784l649.52-375M402.452 437.26l-375-649.52M-24.76 597.308l649.52-375M402.452 437.26l-375-649.52M-43.51 564.832l649.52-375M402.452 437.26l-375-649.52M-62.26 532.356l649.52-375M402.452 437.26l-375-649.52M-81.01 499.88l649.52-375M402.452 437.26l-375-649.52M-99.76 467.404l649.52-375M402.452 437.26l-375-649.52M-118.51 434.928l649.52-375M402.452 437.26l-375-649.52M-137.26 402.452l649.52-375M402.452 437.26l-375-649.52M-156.01 369.976l649.52-375M402.452 437.26l-375-649.52M-174.76 337.5l649.52-375M402.452 437.26l-375-649.52M-193.51 305.024l649.52-375M402.452 437.26l-375-649.52M-212.26 272.548l649.52-375M402.452 437.26l-375-649.52M-231.01 240.072l649.52-375M402.452 437.26l-375-649.52M-249.76 207.596l649.52-375M402.452 437.26l-375-649.52M-268.51 175.12l649.52-375M402.452 437.26l-375-649.52M-287.26 142.644l649.52-375M402.452 437.26l-375-649.52M-306.01 110.168l649.52-375M402.452 437.26l-375-649.52M-324.76 77.692l649.52-375M402.452 437.26l-375-649.52M-343.51 45.216l649.52-375M402.452 437.26l-375-649.52M12.74 662.26l649.52-375M434.928 418.51l-375-649.52M-6.01 629.784l649.52-375M434.928 418.51l-375-649.52M-24.76 597.308l649.52-375M434.928 418.51l-375-649.52M-43.51 564.832l649.52-375M434.928 418.51l-375-649.52M-62.26 532.356l649.52-375M434.928 418.51l-375-649.52M-81.01 499.88l649.52-375M434.928 418.51l-375-649.52M-99.76 467.404l649.52-375M434.928 418.51l-375-649.52M-118.51 434.928l649.52-375M434.928 418.51l-375-649.52M-137.26 402.452l649.52-375M434.928 418.51l-375-649.52M-156.01 369.976l649.52-375M434.928 418.51l-375-649.52M-174.76 337.5l649.52-375M434.928 418.51l-375-649.52M-193.51 305.024l649.52-375M434.928 418.51l-375-649.52M-212.26 272.548l649.52-375M434.928 418.51l-375-649.52M-231.01 240.072l649.52-375M434.928 418.51l-375-649.52M-249.76 207.596l649.52-375M434.928 418.51l-375-649.52M-268.51 175.12l649.52-375M434.928 418.51l-375-649.52M-287.26 142.644l649.52-375M434.928 418.51l-375-649.52M-306.01 110.168l649.52-375M434.928 418.51l-375-649.52M-324.76 77.692l649.52-375M434.928 418.51l-375-649.52M-343.51 45.216l649.52-375M434.928 418.51l-375-649.52M12.74 662.26l649.52-375M467.404 399.76l-375-649.52M-6.01 629.784l649.52-375M467.404 399.76l-375-649.52M-24.76 597.308l649.52-375M467.404 399.76l-375-649.52M-43.51 564.832l649.52-375M467.404 399.76l-375-649.52M-62.26 532.356l649.52-375M467.404 399.76l-375-649.52M-81.01 499.88l649.52-375M467.404 399.76l-375-649.52M-99.76 467.404l649.52-375M467.404 399.76l-375-649.52M-118.51 434.928l649.52-375M467.404 399.76l-375-649.52M-137.26 402.452l649.52-375M467.404 399.76l-375-649.52M-156.01 369.976l649.52-375M467.404 399.76l-375-649.52M-174.76 337.5l649.52-375M467.404 399.76l-375-649.52M-193.51 305.024l649.52-375M467.404 399.76l-375-649.52M-212.26 272.548l649.52-375M467.404 399.76l-375-649.52M-231.01 240.072l649.52-375M467.404 399.76l-375-649.52M-249.76 207.596l649.52-375M467.404 399.76l-375-649.52M-268.51 175.12l649.52-375M467.404 399.76l-375-649.52M-287.26 142.644l649.52-375M467.404 399.76l-375-649.52M-306.01 110.168l649.52-375M467.404 399.76l-375-649.52M-324.76 77.692l649.52-375M467.404 399.76l-375-649.52M-343.51 45.216l649.52-375M467.404 399.76l-375-649.52M12.74 662.26l649.52-375M499.88 381.01l-375-649.52M-6.01 629.784l649.52-375M499.88 381.01l-375-649.52M-24.76 597.308l649.52-375M499.88 381.01l-375-649.52M-43.51 564.832l649.52-375M499.88 381.01l-375-649.52M-62.26 532.356l649.52-375M499.88 381.01l-375-649.52M-81.01 499.88l649.52-375M499.88 381.01l-375-649.52M-99.76 467.404l649.52-375M499.88 381.01l-375-649.52M-118.51 434.928l649.52-375M499.88 381.01l-375-649.52M-137.26 402.452l649.52-375M499.88 381.01l-375-649.52M-156.01 369.976l649.52-375M499.88 381.01l-375-649.52M-174.76 337.5l649.52-375M499.88 381.01l-375-649.52M-193.51 305.024l649.52-375M499.88 381.01l-375-649.52M-212.26 272.548l649.52-375M499.88 381.01l-375-649.52M-231.01 240.072l649.52-375M499.88 381.01l-375-649.52M-249.76 207.596l649.52-375M499.88 381.01l-375-649.52M-268.51 175.12l649.52-375M499.88 381.01l-375-649.52M-287.26 142.644l649.52-375M499.88 381.01l-375-649.52M-306.01 110.168l649.52-375M499.88 381.01l-375-649.52M-324.76 77.692l649.52-375M499.88 381.01l-375-649.52M-343.51 45.216l649.52-375M499.88 381.01l-375-649.52M12.74 662.26l649.52-375M532.356 362.26l-375-649.52M-6.01 629.784l649.52-375M532.356 362.26l-375-649.52M-24.76 597.308l649.52-375M532.356 362.26l-375-649.52M-43.51 564.832l649.52-375M532.356 362.26l-375-649.52M-62.26 532.356l649.52-375M532.356 362.26l-375-649.52M-81.01 499.88l649.52-375M532.356 362.26l-375-649.52M-99.76 467.404l649.52-375M532.356 362.26l-375-649.52M-118.51 434.928l649.52-375M532.356 362.26l-375-649.52M-137.26 402.452l649.52-375M532.356 362.26l-375-649.52M-156.01 369.976l649.52-375M532.356 362.26l-375-649.52M-174.76 337.5l649.52-375M532.356 362.26l-375-649.52M-193.51 305.024l649.52-375M532.356 362.26l-375-649.52M-212.26 272.548l649.52-375M532.356 362.26l-375-649.52M-231.01 240.072l649.52-375M532.356 362.26l-375-649.52M-249.76 207.596l649.52-375M532.356 362.26l-375-649.52M-268.51 175.12l649.52-375M532.356 362.26l-375-649.52M-287.26 142.644l649.52-375M532.356 362.26l-375-649.52M-306.01 110.168l649.52-375M532.356 362.26l-375-649.52M-324.76 77.692l649.52-375M532.356 362.26l-375-649.52M-343.51 45.216l649.52-375M532.356 362.26l-375-649.52M12.74 662.26l649.52-375M564.832 343.51l-375-649.52M-6.01 629.784l649.52-375M564.832 343.51l-375-649.52M-24.76 597.308l649.52-375M564.832 343.51l-375-649.52M-43.51 564.832l649.52-375M564.832 343.51l-375-649.52M-62.26 532.356l649.52-375M564.832 343.51l-375-649.52M-81.01 499.88l649.52-375M564.832 343.51l-375-649.52M-99.76 467.404l649.52-375M564.832 343.51l-375-649.52M-118.51 434.928l649.52-375M564.832 343.51l-375-649.52M-137.26 402.452l649.52-375M564.832 343.51l-375-649.52M-156.01 369.976l649.52-375M564.832 343.51l-375-649.52M-174.76 337.5l649.52-375M564.832 343.51l-375-649.52M-193.51 305.024l649.52-375M564.832 343.51l-375-649.52M-212.26 272.548l649.52-375M564.832 343.51l-375-649.52M-231.01 240.072l649.52-375M564.832 343.51l-375-649.52M-249.76 207.596l649.52-375M564.832 343.51l-375-649.52M-268.51 175.12l649.52-375M564.832 343.51l-375-649.52M-287.26 142.644l649.52-375M564.832 343.51l-375-649.52M-306.01 110.168l649.52-375M564.832 343.51l-375-649.52M-324.76 77.692l649.52-375M564.832 343.51l-375-649.52M-343.51 45.216l649.52-375M564.832 343.51l-375-649.52M12.74 662.26l649.52-375M597.308 324.76l-375-649.52M-6.01 629.784l649.52-375M597.308 324.76l-375-649.52M-24.76 597.308l649.52-375M597.308 324.76l-375-649.52M-43.51 564.832l649.52-375M597.308 324.76l-375-649.52M-62.26 532.356l649.52-375M597.308 324.76l-375-649.52M-81.01 499.88l649.52-375M597.308 324.76l-375-649.52M-99.76 467.404l649.52-375M597.308 324.76l-375-649.52M-118.51 434.928l649.52-375M597.308 324.76l-375-649.52M-137.26 402.452l649.52-375M597.308 324.76l-375-649.52M-156.01 369.976l649.52-375M597.308 324.76l-375-649.52M-174.76 337.5l649.52-375M597.308 324.76l-375-649.52M-193.51 305.024l649.52-375M597.308 324.76l-375-649.52M-212.26 272.548l649.52-375M597.308 324.76l-375-649.52M-231.01 240.072l649.52-375M597.308 324.76l-375-649.52M-249.76 207.596l649.52-375M597.308 324.76l-375-649.52M-268.51 175.12l649.52-375M597.308 324.76l-375-649.52M-287.26 142.644l649.52-375M597.308 324.76l-375-649.52M-306.01 110.168l649.52-375M597.308 324.76l-375-649.52M-324.76 77.692l649.52-375M597.308 324.76l-375-649.52M-343.51 45.216l649.52-375M597.308 324.76l-375-649.52M12.74 662.26l649.52-375M629.784 306.01l-375-649.52M-6.01 629.784l649.52-375M629.784 306.01l-375-649.52M-24.76 597.308l649.52-375M629.784 306.01l-375-649.52M-43.51 564.832l649.52-375M629.784 306.01l-375-649.52M-62.26 532.356l649.52-375M629.784 306.01l-375-649.52M-81.01 499.88l649.52-375M629.784 306.01l-375-649.52M-99.76 467.404l649.52-375M629.784 306.01l-375-649.52M-118.51 434.928l649.52-375M629.784 306.01l-375-649.52M-137.26 402.452l649.52-375M629.784 306.01l-375-649.52M-156.01 369.976l649.52-375M629.784 306.01l-375-649.52M-174.76 337.5l649.52-375M629.784 306.01l-375-649.52M-193.51 305.024l649.52-375M629.784 306.01l-375-649.52M-212.26 272.548l649.52-375M629.784 306.01l-375-649.52M-231.01 240.072l649.52-375M629.784 306.01l-375-649.52M-249.76 207.596l649.52-375M629.784 306.01l-375-649.52M-268.51 175.12l649.52-375M629.784 306.01l-375-649.52M-287.26 142.644l649.52-375M629.784 306.01l-375-649.52M-306.01 110.168l649.52-375M629.784 306.01l-375-649.52M-324.76 77.692l649.52-375M629.784 306.01l-375-649.52M-343.51 45.216l649.52-375M629.784 306.01l-375-649.52" stroke-width="2" clip-path="url(#a)"/><path fill="#8af281" stroke="#1fab54" d="M150 150l-18.75-32.476 32.476-18.75 18.75 32.476" stroke-width="2" clip-path="url(#a)" fill-opacity=".235"/><path fill="none" stroke="#000" d="M-174.76 337.5l649.52-375M337.5 474.76l-375-649.52" stroke-width="2" clip-path="url(#a)"/><path fill="none" stroke="#11accd" d="M175.307 139.125c.45-2.7 5.4-6.75 6.75-7.2-1.35-.45-6.3-4.5-6.75-7.2" transform="rotate(-30 182.057 131.925)" stroke-width="3" clip-path="url(#b)" stroke-linejoin="round" stroke-linecap="round"/><path fill="none" stroke="#11accd" d="M150 150l31.307-18.075" stroke-width="3" clip-path="url(#a)"/><path fill="none" stroke="#ca337c" d="M125.925 125.893c.45-2.7 5.4-6.75 6.75-7.2-1.35-.45-6.3-4.5-6.75-7.2" transform="rotate(-120 132.675 118.693)" stroke-width="3" clip-path="url(#c)" stroke-linejoin="round" stroke-linecap="round"/><path fill="none" stroke="#ca337c" d="M150 150l-18.075-31.307" stroke-width="3" clip-path="url(#a)"/></svg>
