<svg xmlns="http://www.w3.org/2000/svg" width="300" height="300" viewBox="0 0 300 300"><defs><clipPath id="a"><path d="M0 0h300v300H0z"/></clipPath><clipPath id="b"><path transform="rotate(45 187.295 113.455)" d="M0 0h300v300H0z"/></clipPath><clipPath id="c"><path transform="rotate(-135 114.205 186.545)" d="M0 0h300v300H0z"/></clipPath></defs><path fill="none" stroke="#f6f7f7" d="M-225 525h750M-225 525v-750M-225 487.5h750M-225 525v-750M-225 450h750M-225 525v-750M-225 412.5h750M-225 525v-750M-225 375h750M-225 525v-750M-225 337.5h750M-225 525v-750M-225 300h750M-225 525v-750M-225 262.5h750M-225 525v-750M-225 225h750M-225 525v-750M-225 187.5h750M-225 525v-750M-225 150h750M-225 525v-750M-225 112.5h750M-225 525v-750M-225 75h750M-225 525v-750M-225 37.5h750M-225 525v-750M-225 0h750M-225 525v-750M-225-37.5h750M-225 525v-750M-225-75h750M-225 525v-750M-225-112.5h750M-225 525v-750M-225-150h750M-225 525v-750M-225-187.5h750M-225 525v-750M-225 525h750M-187.5 525v-750M-225 487.5h750M-187.5 525v-750M-225 450h750M-187.5 525v-750M-225 412.5h750M-187.5 525v-750M-225 375h750M-187.5 525v-750M-225 337.5h750M-187.5 525v-750M-225 300h750M-187.5 525v-750M-225 262.5h750M-187.5 525v-750M-225 225h750M-187.5 525v-750M-225 187.5h750M-187.5 525v-750M-225 150h750M-187.5 525v-750M-225 112.5h750M-187.5 525v-750M-225 75h750M-187.5 525v-750M-225 37.5h750M-187.5 525v-750M-225 0h750M-187.5 525v-750M-225-37.5h750M-187.5 525v-750M-225-75h750M-187.5 525v-750M-225-112.5h750M-187.5 525v-750M-225-150h750M-187.5 525v-750M-225-187.5h750M-187.5 525v-750M-225 525h750M-150 525v-750M-225 487.5h750M-150 525v-750M-225 450h750M-150 525v-750M-225 412.5h750M-150 525v-750M-225 375h750M-150 525v-750M-225 337.5h750M-150 525v-750M-225 300h750M-150 525v-750M-225 262.5h750M-150 525v-750M-225 225h750M-150 525v-750M-225 187.5h750M-150 525v-750M-225 150h750M-150 525v-750M-225 112.5h750M-150 525v-750M-225 75h750M-150 525v-750M-225 37.5h750M-150 525v-750M-225 0h750M-150 525v-750M-225-37.5h750M-150 525v-750M-225-75h750M-150 525v-750M-225-112.5h750M-150 525v-750M-225-150h750M-150 525v-750M-225-187.5h750M-150 525v-750M-225 525h750M-112.5 525v-750M-225 487.5h750M-112.5 525v-750M-225 450h750M-112.5 525v-750M-225 412.5h750M-112.5 525v-750M-225 375h750M-112.5 525v-750M-225 337.5h750M-112.5 525v-750M-225 300h750M-112.5 525v-750M-225 262.5h750M-112.5 525v-750M-225 225h750M-112.5 525v-750M-225 187.5h750M-112.5 525v-750M-225 150h750M-112.5 525v-750M-225 112.5h750M-112.5 525v-750M-225 75h750M-112.5 525v-750M-225 37.5h750M-112.5 525v-750M-225 0h750M-112.5 525v-750M-225-37.5h750M-112.5 525v-750M-225-75h750M-112.5 525v-750M-225-112.5h750M-112.5 525v-750M-225-150h750M-112.5 525v-750M-225-187.5h750M-112.5 525v-750M-225 525h750M-75 525v-750M-225 487.5h750M-75 525v-750M-225 450h750M-75 525v-750M-225 412.5h750M-75 525v-750M-225 375h750M-75 525v-750M-225 337.5h750M-75 525v-750M-225 300h750M-75 525v-750M-225 262.5h750M-75 525v-750M-225 225h750M-75 525v-750M-225 187.5h750M-75 525v-750M-225 150h750M-75 525v-750M-225 112.5h750M-75 525v-750M-225 75h750M-75 525v-750M-225 37.5h750M-75 525v-750M-225 0h750M-75 525v-750M-225-37.5h750M-75 525v-750M-225-75h750M-75 525v-750M-225-112.5h750M-75 525v-750M-225-150h750M-75 525v-750M-225-187.5h750M-75 525v-750M-225 525h750M-37.5 525v-750M-225 487.5h750M-37.5 525v-750M-225 450h750M-37.5 525v-750M-225 412.5h750M-37.5 525v-750M-225 375h750M-37.5 525v-750M-225 337.5h750M-37.5 525v-750M-225 300h750M-37.5 525v-750M-225 262.5h750M-37.5 525v-750M-225 225h750M-37.5 525v-750M-225 187.5h750M-37.5 525v-750M-225 150h750M-37.5 525v-750M-225 112.5h750M-37.5 525v-750M-225 75h750M-37.5 525v-750M-225 37.5h750M-37.5 525v-750M-225 0h750M-37.5 525v-750M-225-37.5h750M-37.5 525v-750M-225-75h750M-37.5 525v-750M-225-112.5h750M-37.5 525v-750M-225-150h750M-37.5 525v-750M-225-187.5h750M-37.5 525v-750M-225 525h750M0 525v-750M-225 487.5h750M0 525v-750M-225 450h750M0 525v-750M-225 412.5h750M0 525v-750M-225 375h750M0 525v-750M-225 337.5h750M0 525v-750M-225 300h750M0 525v-750M-225 262.5h750M0 525v-750M-225 225h750M0 525v-750M-225 187.5h750M0 525v-750M-225 150h750M0 525v-750M-225 112.5h750M0 525v-750M-225 75h750M0 525v-750M-225 37.5h750M0 525v-750M-225 0h750M0 525v-750M-225-37.5h750M0 525v-750M-225-75h750M0 525v-750M-225-112.5h750M0 525v-750M-225-150h750M0 525v-750M-225-187.5h750M0 525v-750M-225 525h750M37.5 525v-750M-225 487.5h750M37.5 525v-750M-225 450h750M37.5 525v-750M-225 412.5h750M37.5 525v-750M-225 375h750M37.5 525v-750M-225 337.5h750M37.5 525v-750M-225 300h750M37.5 525v-750M-225 262.5h750M37.5 525v-750M-225 225h750M37.5 525v-750M-225 187.5h750M37.5 525v-750M-225 150h750M37.5 525v-750M-225 112.5h750M37.5 525v-750M-225 75h750M37.5 525v-750M-225 37.5h750M37.5 525v-750M-225 0h750M37.5 525v-750M-225-37.5h750M37.5 525v-750M-225-75h750M37.5 525v-750M-225-112.5h750M37.5 525v-750M-225-150h750M37.5 525v-750M-225-187.5h750M37.5 525v-750M-225 525h750M75 525v-750M-225 487.5h750M75 525v-750M-225 450h750M75 525v-750M-225 412.5h750M75 525v-750M-225 375h750M75 525v-750M-225 337.5h750M75 525v-750M-225 300h750M75 525v-750M-225 262.5h750M75 525v-750M-225 225h750M75 525v-750M-225 187.5h750M75 525v-750M-225 150h750M75 525v-750M-225 112.5h750M75 525v-750M-225 75h750M75 525v-750M-225 37.5h750M75 525v-750M-225 0h750M75 525v-750M-225-37.5h750M75 525v-750M-225-75h750M75 525v-750M-225-112.5h750M75 525v-750M-225-150h750M75 525v-750M-225-187.5h750M75 525v-750M-225 525h750M112.5 525v-750M-225 487.5h750M112.5 525v-750M-225 450h750M112.5 525v-750M-225 412.5h750M112.5 525v-750M-225 375h750M112.5 525v-750M-225 337.5h750M112.5 525v-750M-225 300h750M112.5 525v-750M-225 262.5h750M112.5 525v-750M-225 225h750M112.5 525v-750M-225 187.5h750M112.5 525v-750M-225 150h750M112.5 525v-750M-225 112.5h750M112.5 525v-750M-225 75h750M112.5 525v-750M-225 37.5h750M112.5 525v-750M-225 0h750M112.5 525v-750M-225-37.5h750M112.5 525v-750M-225-75h750M112.5 525v-750M-225-112.5h750M112.5 525v-750M-225-150h750M112.5 525v-750M-225-187.5h750M112.5 525v-750M-225 525h750M150 525v-750M-225 487.5h750M150 525v-750M-225 450h750M150 525v-750M-225 412.5h750M150 525v-750M-225 375h750M150 525v-750M-225 337.5h750M150 525v-750M-225 300h750M150 525v-750M-225 262.5h750M150 525v-750M-225 225h750M150 525v-750M-225 187.5h750M150 525v-750M-225 150h750M150 525v-750M-225 112.5h750M150 525v-750M-225 75h750M150 525v-750M-225 37.5h750M150 525v-750M-225 0h750M150 525v-750M-225-37.5h750M150 525v-750M-225-75h750M150 525v-750M-225-112.5h750M150 525v-750M-225-150h750M150 525v-750M-225-187.5h750M150 525v-750M-225 525h750M187.5 525v-750M-225 487.5h750M187.5 525v-750M-225 450h750M187.5 525v-750M-225 412.5h750M187.5 525v-750M-225 375h750M187.5 525v-750M-225 337.5h750M187.5 525v-750M-225 300h750M187.5 525v-750M-225 262.5h750M187.5 525v-750M-225 225h750M187.5 525v-750M-225 187.5h750M187.5 525v-750M-225 150h750M187.5 525v-750M-225 112.5h750M187.5 525v-750M-225 75h750M187.5 525v-750M-225 37.5h750M187.5 525v-750M-225 0h750M187.5 525v-750M-225-37.5h750M187.5 525v-750M-225-75h750M187.5 525v-750M-225-112.5h750M187.5 525v-750M-225-150h750M187.5 525v-750M-225-187.5h750M187.5 525v-750M-225 525h750M225 525v-750M-225 487.5h750M225 525v-750M-225 450h750M225 525v-750M-225 412.5h750M225 525v-750M-225 375h750M225 525v-750M-225 337.5h750M225 525v-750M-225 300h750M225 525v-750M-225 262.5h750M225 525v-750M-225 225h750M225 525v-750M-225 187.5h750M225 525v-750M-225 150h750M225 525v-750M-225 112.5h750M225 525v-750M-225 75h750M225 525v-750M-225 37.5h750M225 525v-750M-225 0h750M225 525v-750M-225-37.5h750M225 525v-750M-225-75h750M225 525v-750M-225-112.5h750M225 525v-750M-225-150h750M225 525v-750M-225-187.5h750M225 525v-750M-225 525h750M262.5 525v-750M-225 487.5h750M262.5 525v-750M-225 450h750M262.5 525v-750M-225 412.5h750M262.5 525v-750M-225 375h750M262.5 525v-750M-225 337.5h750M262.5 525v-750M-225 300h750M262.5 525v-750M-225 262.5h750M262.5 525v-750M-225 225h750M262.5 525v-750M-225 187.5h750M262.5 525v-750M-225 150h750M262.5 525v-750M-225 112.5h750M262.5 525v-750M-225 75h750M262.5 525v-750M-225 37.5h750M262.5 525v-750M-225 0h750M262.5 525v-750M-225-37.5h750M262.5 525v-750M-225-75h750M262.5 525v-750M-225-112.5h750M262.5 525v-750M-225-150h750M262.5 525v-750M-225-187.5h750M262.5 525v-750M-225 525h750M300 525v-750M-225 487.5h750M300 525v-750M-225 450h750M300 525v-750M-225 412.5h750M300 525v-750M-225 375h750M300 525v-750M-225 337.5h750M300 525v-750M-225 300h750M300 525v-750M-225 262.5h750M300 525v-750M-225 225h750M300 525v-750M-225 187.5h750M300 525v-750M-225 150h750M300 525v-750M-225 112.5h750M300 525v-750M-225 75h750M300 525v-750M-225 37.5h750M300 525v-750M-225 0h750M300 525v-750M-225-37.5h750M300 525v-750M-225-75h750M300 525v-750M-225-112.5h750M300 525v-750M-225-150h750M300 525v-750M-225-187.5h750M300 525v-750M-225 525h750M337.5 525v-750M-225 487.5h750M337.5 525v-750M-225 450h750M337.5 525v-750M-225 412.5h750M337.5 525v-750M-225 375h750M337.5 525v-750M-225 337.5h750M337.5 525v-750M-225 300h750M337.5 525v-750M-225 262.5h750M337.5 525v-750M-225 225h750M337.5 525v-750M-225 187.5h750M337.5 525v-750M-225 150h750M337.5 525v-750M-225 112.5h750M337.5 525v-750M-225 75h750M337.5 525v-750M-225 37.5h750M337.5 525v-750M-225 0h750M337.5 525v-750M-225-37.5h750M337.5 525v-750M-225-75h750M337.5 525v-750M-225-112.5h750M337.5 525v-750M-225-150h750M337.5 525v-750M-225-187.5h750M337.5 525v-750M-225 525h750M375 525v-750M-225 487.5h750M375 525v-750M-225 450h750M375 525v-750M-225 412.5h750M375 525v-750M-225 375h750M375 525v-750M-225 337.5h750M375 525v-750M-225 300h750M375 525v-750M-225 262.5h750M375 525v-750M-225 225h750M375 525v-750M-225 187.5h750M375 525v-750M-225 150h750M375 525v-750M-225 112.5h750M375 525v-750M-225 75h750M375 525v-750M-225 37.5h750M375 525v-750M-225 0h750M375 525v-750M-225-37.5h750M375 525v-750M-225-75h750M375 525v-750M-225-112.5h750M375 525v-750M-225-150h750M375 525v-750M-225-187.5h750M375 525v-750M-225 525h750M412.5 525v-750M-225 487.5h750M412.5 525v-750M-225 450h750M412.5 525v-750M-225 412.5h750M412.5 525v-750M-225 375h750M412.5 525v-750M-225 337.5h750M412.5 525v-750M-225 300h750M412.5 525v-750M-225 262.5h750M412.5 525v-750M-225 225h750M412.5 525v-750M-225 187.5h750M412.5 525v-750M-225 150h750M412.5 525v-750M-225 112.5h750M412.5 525v-750M-225 75h750M412.5 525v-750M-225 37.5h750M412.5 525v-750M-225 0h750M412.5 525v-750M-225-37.5h750M412.5 525v-750M-225-75h750M412.5 525v-750M-225-112.5h750M412.5 525v-750M-225-150h750M412.5 525v-750M-225-187.5h750M412.5 525v-750M-225 525h750M450 525v-750M-225 487.5h750M450 525v-750M-225 450h750M450 525v-750M-225 412.5h750M450 525v-750M-225 375h750M450 525v-750M-225 337.5h750M450 525v-750M-225 300h750M450 525v-750M-225 262.5h750M450 525v-750M-225 225h750M450 525v-750M-225 187.5h750M450 525v-750M-225 150h750M450 525v-750M-225 112.5h750M450 525v-750M-225 75h750M450 525v-750M-225 37.5h750M450 525v-750M-225 0h750M450 525v-750M-225-37.5h750M450 525v-750M-225-75h750M450 525v-750M-225-112.5h750M450 525v-750M-225-150h750M450 525v-750M-225-187.5h750M450 525v-750M-225 525h750M487.5 525v-750M-225 487.5h750M487.5 525v-750M-225 450h750M487.5 525v-750M-225 412.5h750M487.5 525v-750M-225 375h750M487.5 525v-750M-225 337.5h750M487.5 525v-750M-225 300h750M487.5 525v-750M-225 262.5h750M487.5 525v-750M-225 225h750M487.5 525v-750M-225 187.5h750M487.5 525v-750M-225 150h750M487.5 525v-750M-225 112.5h750M487.5 525v-750M-225 75h750M487.5 525v-750M-225 37.5h750M487.5 525v-750M-225 0h750M487.5 525v-750M-225-37.5h750M487.5 525v-750M-225-75h750M487.5 525v-750M-225-112.5h750M487.5 525v-750M-225-150h750M487.5 525v-750M-225-187.5h750M487.5 525v-750" clip-path="url(#a)"/><path fill="none" stroke="#e3e5e6" d="M150 150l750-750M150 150l-750 750M112.5 187.5l750-750M150 150l-750 750M75 225l750-750M150 150l-750 750M37.5 262.5l750-750M150 150l-750 750M0 300l750-750M150 150l-750 750M-37.5 337.5l750-750M150 150l-750 750M-75 375l750-750M150 150l-750 750M-112.5 412.5l750-750M150 150l-750 750M-150 450l750-750M150 150l-750 750M-187.5 487.5l750-750M150 150l-750 750M-225 525l750-750M150 150l-750 750M-262.5 562.5l750-750M150 150l-750 750M-300 600l750-750M150 150l-750 750M-337.5 637.5l750-750M150 150l-750 750M-375 675L375-75M150 150l-750 750M-412.5 712.5l750-750M150 150l-750 750M-450 750L300 0M150 150l-750 750M-487.5 787.5l750-750M150 150l-750 750M-525 825L225 75M150 150l-750 750M-562.5 862.5l750-750M150 150l-750 750M150 150l750-750M187.5 112.5l-750 750M112.5 187.5l750-750M187.5 112.5l-750 750M75 225l750-750M187.5 112.5l-750 750M37.5 262.5l750-750M187.5 112.5l-750 750M0 300l750-750M187.5 112.5l-750 750M-37.5 337.5l750-750M187.5 112.5l-750 750M-75 375l750-750M187.5 112.5l-750 750M-112.5 412.5l750-750M187.5 112.5l-750 750M-150 450l750-750M187.5 112.5l-750 750M-187.5 487.5l750-750M187.5 112.5l-750 750M-225 525l750-750M187.5 112.5l-750 750M-262.5 562.5l750-750M187.5 112.5l-750 750M-300 600l750-750M187.5 112.5l-750 750M-337.5 637.5l750-750M187.5 112.5l-750 750M-375 675L375-75M187.5 112.5l-750 750M-412.5 712.5l750-750M187.5 112.5l-750 750M-450 750L300 0M187.5 112.5l-750 750M-487.5 787.5l750-750M187.5 112.5l-750 750M-525 825L225 75M187.5 112.5l-750 750M-562.5 862.5l750-750M187.5 112.5l-750 750M150 150l750-750M225 75l-750 750M112.5 187.5l750-750M225 75l-750 750M75 225l750-750M225 75l-750 750M37.5 262.5l750-750M225 75l-750 750M0 300l750-750M225 75l-750 750M-37.5 337.5l750-750M225 75l-750 750M-75 375l750-750M225 75l-750 750M-112.5 412.5l750-750M225 75l-750 750M-150 450l750-750M225 75l-750 750M-187.5 487.5l750-750M225 75l-750 750M-225 525l750-750M225 75l-750 750M-262.5 562.5l750-750M225 75l-750 750M-300 600l750-750M225 75l-750 750M-337.5 637.5l750-750M225 75l-750 750M-375 675L375-75M225 75l-750 750M-412.5 712.5l750-750M225 75l-750 750M-450 750L300 0M225 75l-750 750M-487.5 787.5l750-750M225 75l-750 750M-525 825L225 75M225 75l-750 750M-562.5 862.5l750-750M225 75l-750 750M150 150l750-750M262.5 37.5l-750 750M112.5 187.5l750-750M262.5 37.5l-750 750M75 225l750-750M262.5 37.5l-750 750M37.5 262.5l750-750M262.5 37.5l-750 750M0 300l750-750M262.5 37.5l-750 750M-37.5 337.5l750-750M262.5 37.5l-750 750M-75 375l750-750M262.5 37.5l-750 750M-112.5 412.5l750-750M262.5 37.5l-750 750M-150 450l750-750M262.5 37.5l-750 750M-187.5 487.5l750-750M262.5 37.5l-750 750M-225 525l750-750M262.5 37.5l-750 750M-262.5 562.5l750-750M262.5 37.5l-750 750M-300 600l750-750M262.5 37.5l-750 750M-337.5 637.5l750-750M262.5 37.5l-750 750M-375 675L375-75M262.5 37.5l-750 750M-412.5 712.5l750-750M262.5 37.5l-750 750M-450 750L300 0M262.5 37.5l-750 750M-487.5 787.5l750-750M262.5 37.5l-750 750M-525 825L225 75M262.5 37.5l-750 750M-562.5 862.5l750-750M262.5 37.5l-750 750M150 150l750-750M300 0l-750 750M112.5 187.5l750-750M300 0l-750 750M75 225l750-750M300 0l-750 750M37.5 262.5l750-750M300 0l-750 750M0 300l750-750M300 0l-750 750M-37.5 337.5l750-750M300 0l-750 750M-75 375l750-750M300 0l-750 750M-112.5 412.5l750-750M300 0l-750 750M-150 450l750-750M300 0l-750 750M-187.5 487.5l750-750M300 0l-750 750M-225 525l750-750M300 0l-750 750M-262.5 562.5l750-750M300 0l-750 750M-300 600l750-750M300 0l-750 750M-337.5 637.5l750-750M300 0l-750 750M-375 675L375-75M300 0l-750 750M-412.5 712.5l750-750M300 0l-750 750M-450 750L300 0M300 0l-750 750M-487.5 787.5l750-750M300 0l-750 750M-525 825L225 75M300 0l-750 750M-562.5 862.5l750-750M300 0l-750 750M150 150l750-750M337.5-37.5l-750 750M112.5 187.5l750-750M337.5-37.5l-750 750M75 225l750-750M337.5-37.5l-750 750M37.5 262.5l750-750M337.5-37.5l-750 750M0 300l750-750M337.5-37.5l-750 750M-37.5 337.5l750-750M337.5-37.5l-750 750M-75 375l750-750M337.5-37.5l-750 750M-112.5 412.5l750-750M337.5-37.5l-750 750M-150 450l750-750M337.5-37.5l-750 750M-187.5 487.5l750-750M337.5-37.5l-750 750M-225 525l750-750M337.5-37.5l-750 750M-262.5 562.5l750-750M337.5-37.5l-750 750M-300 600l750-750M337.5-37.5l-750 750M-337.5 637.5l750-750M337.5-37.5l-750 750M-375 675L375-75M337.5-37.5l-750 750M-412.5 712.5l750-750M337.5-37.5l-750 750M-450 750L300 0M337.5-37.5l-750 750M-487.5 787.5l750-750M337.5-37.5l-750 750M-525 825L225 75M337.5-37.5l-750 750M-562.5 862.5l750-750M337.5-37.5l-750 750M150 150l750-750M375-75l-750 750M112.5 187.5l750-750M375-75l-750 750M75 225l750-750M375-75l-750 750M37.5 262.5l750-750M375-75l-750 750M0 300l750-750M375-75l-750 750M-37.5 337.5l750-750M375-75l-750 750M-75 375l750-750M375-75l-750 750M-112.5 412.5l750-750M375-75l-750 750M-150 450l750-750M375-75l-750 750M-187.5 487.5l750-750M375-75l-750 750M-225 525l750-750M375-75l-750 750M-262.5 562.5l750-750M375-75l-750 750M-300 600l750-750M375-75l-750 750M-337.5 637.5l750-750M375-75l-750 750M-375 675L375-75M375-75l-750 750M-412.5 712.5l750-750M375-75l-750 750M-450 750L300 0M375-75l-750 750M-487.5 787.5l750-750M375-75l-750 750M-525 825L225 75M375-75l-750 750M-562.5 862.5l750-750M375-75l-750 750M150 150l750-750M412.5-112.5l-750 750M112.5 187.5l750-750M412.5-112.5l-750 750M75 225l750-750M412.5-112.5l-750 750M37.5 262.5l750-750M412.5-112.5l-750 750M0 300l750-750M412.5-112.5l-750 750M-37.5 337.5l750-750M412.5-112.5l-750 750M-75 375l750-750M412.5-112.5l-750 750M-112.5 412.5l750-750M412.5-112.5l-750 750M-150 450l750-750M412.5-112.5l-750 750M-187.5 487.5l750-750M412.5-112.5l-750 750M-225 525l750-750M412.5-112.5l-750 750M-262.5 562.5l750-750M412.5-112.5l-750 750M-300 600l750-750M412.5-112.5l-750 750M-337.5 637.5l750-750M412.5-112.5l-750 750M-375 675L375-75M412.5-112.5l-750 750M-412.5 712.5l750-750M412.5-112.5l-750 750M-450 750L300 0M412.5-112.5l-750 750M-487.5 787.5l750-750M412.5-112.5l-750 750M-525 825L225 75M412.5-112.5l-750 750M-562.5 862.5l750-750M412.5-112.5l-750 750M150 150l750-750M450-150l-750 750M112.5 187.5l750-750M450-150l-750 750M75 225l750-750M450-150l-750 750M37.5 262.5l750-750M450-150l-750 750M0 300l750-750M450-150l-750 750M-37.5 337.5l750-750M450-150l-750 750M-75 375l750-750M450-150l-750 750M-112.5 412.5l750-750M450-150l-750 750M-150 450l750-750M450-150l-750 750M-187.5 487.5l750-750M450-150l-750 750M-225 525l750-750M450-150l-750 750M-262.5 562.5l750-750M450-150l-750 750M-300 600l750-750M450-150l-750 750M-337.5 637.5l750-750M450-150l-750 750M-375 675L375-75M450-150l-750 750M-412.5 712.5l750-750M450-150l-750 750M-450 750L300 0M450-150l-750 750M-487.5 787.5l750-750M450-150l-750 750M-525 825L225 75M450-150l-750 750M-562.5 862.5l750-750M450-150l-750 750M150 150l750-750M487.5-187.5l-750 750M112.5 187.5l750-750M487.5-187.5l-750 750M75 225l750-750M487.5-187.5l-750 750M37.5 262.5l750-750M487.5-187.5l-750 750M0 300l750-750M487.5-187.5l-750 750M-37.5 337.5l750-750M487.5-187.5l-750 750M-75 375l750-750M487.5-187.5l-750 750M-112.5 412.5l750-750M487.5-187.5l-750 750M-150 450l750-750M487.5-187.5l-750 750M-187.5 487.5l750-750M487.5-187.5l-750 750M-225 525l750-750M487.5-187.5l-750 750M-262.5 562.5l750-750M487.5-187.5l-750 750M-300 600l750-750M487.5-187.5l-750 750M-337.5 637.5l750-750M487.5-187.5l-750 750M-375 675L375-75M487.5-187.5l-750 750M-412.5 712.5l750-750M487.5-187.5l-750 750M-450 750L300 0M487.5-187.5l-750 750M-487.5 787.5l750-750M487.5-187.5l-750 750M-525 825L225 75M487.5-187.5l-750 750M-562.5 862.5l750-750M487.5-187.5l-750 750M150 150l750-750M525-225l-750 750M112.5 187.5l750-750M525-225l-750 750M75 225l750-750M525-225l-750 750M37.5 262.5l750-750M525-225l-750 750M0 300l750-750M525-225l-750 750M-37.5 337.5l750-750M525-225l-750 750M-75 375l750-750M525-225l-750 750M-112.5 412.5l750-750M525-225l-750 750M-150 450l750-750M525-225l-750 750M-187.5 487.5l750-750M525-225l-750 750M-225 525l750-750M525-225l-750 750M-262.5 562.5l750-750M525-225l-750 750M-300 600l750-750M525-225l-750 750M-337.5 637.5l750-750M525-225l-750 750M-375 675L375-75M525-225l-750 750M-412.5 712.5l750-750M525-225l-750 750M-450 750L300 0M525-225l-750 750M-487.5 787.5l750-750M525-225l-750 750M-525 825L225 75M525-225l-750 750M-562.5 862.5l750-750M525-225l-750 750M150 150l750-750M562.5-262.5l-750 750M112.5 187.5l750-750M562.5-262.5l-750 750M75 225l750-750M562.5-262.5l-750 750M37.5 262.5l750-750M562.5-262.5l-750 750M0 300l750-750M562.5-262.5l-750 750M-37.5 337.5l750-750M562.5-262.5l-750 750M-75 375l750-750M562.5-262.5l-750 750M-112.5 412.5l750-750M562.5-262.5l-750 750M-150 450l750-750M562.5-262.5l-750 750M-187.5 487.5l750-750M562.5-262.5l-750 750M-225 525l750-750M562.5-262.5l-750 750M-262.5 562.5l750-750M562.5-262.5l-750 750M-300 600l750-750M562.5-262.5l-750 750M-337.5 637.5l750-750M562.5-262.5l-750 750M-375 675L375-75M562.5-262.5l-750 750M-412.5 712.5l750-750M562.5-262.5l-750 750M-450 750L300 0M562.5-262.5l-750 750M-487.5 787.5l750-750M562.5-262.5l-750 750M-525 825L225 75M562.5-262.5l-750 750M-562.5 862.5l750-750M562.5-262.5l-750 750M150 150l750-750M600-300l-750 750M112.5 187.5l750-750M600-300l-750 750M75 225l750-750M600-300l-750 750M37.5 262.5l750-750M600-300l-750 750M0 300l750-750M600-300l-750 750M-37.5 337.5l750-750M600-300l-750 750M-75 375l750-750M600-300l-750 750M-112.5 412.5l750-750M600-300l-750 750M-150 450l750-750M600-300l-750 750M-187.5 487.5l750-750M600-300l-750 750M-225 525l750-750M600-300l-750 750M-262.5 562.5l750-750M600-300l-750 750M-300 600l750-750M600-300l-750 750M-337.5 637.5l750-750M600-300l-750 750M-375 675L375-75M600-300l-750 750M-412.5 712.5l750-750M600-300l-750 750M-450 750L300 0M600-300l-750 750M-487.5 787.5l750-750M600-300l-750 750M-525 825L225 75M600-300l-750 750M-562.5 862.5l750-750M600-300l-750 750M150 150l750-750M637.5-337.5l-750 750M112.5 187.5l750-750M637.5-337.5l-750 750M75 225l750-750M637.5-337.5l-750 750M37.5 262.5l750-750M637.5-337.5l-750 750M0 300l750-750M637.5-337.5l-750 750M-37.5 337.5l750-750M637.5-337.5l-750 750M-75 375l750-750M637.5-337.5l-750 750M-112.5 412.5l750-750M637.5-337.5l-750 750M-150 450l750-750M637.5-337.5l-750 750M-187.5 487.5l750-750M637.5-337.5l-750 750M-225 525l750-750M637.5-337.5l-750 750M-262.5 562.5l750-750M637.5-337.5l-750 750M-300 600l750-750M637.5-337.5l-750 750M-337.5 637.5l750-750M637.5-337.5l-750 750M-375 675L375-75M637.5-337.5l-750 750M-412.5 712.5l750-750M637.5-337.5l-750 750M-450 750L300 0M637.5-337.5l-750 750M-487.5 787.5l750-750M637.5-337.5l-750 750M-525 825L225 75M637.5-337.5l-750 750M-562.5 862.5l750-750M637.5-337.5l-750 750M150 150l750-750M675-375L-75 375M112.5 187.5l750-750M675-375L-75 375M75 225l750-750M675-375L-75 375M37.5 262.5l750-750M675-375L-75 375M0 300l750-750M675-375L-75 375M-37.5 337.5l750-750M675-375L-75 375M-75 375l750-750M675-375L-75 375M-112.5 412.5l750-750M675-375L-75 375M-150 450l750-750M675-375L-75 375M-187.5 487.5l750-750M675-375L-75 375M-225 525l750-750M675-375L-75 375M-262.5 562.5l750-750M675-375L-75 375M-300 600l750-750M675-375L-75 375M-337.5 637.5l750-750M675-375L-75 375M-375 675L375-75M675-375L-75 375M-412.5 712.5l750-750M675-375L-75 375M-450 750L300 0M675-375L-75 375M-487.5 787.5l750-750M675-375L-75 375M-525 825L225 75M675-375L-75 375M-562.5 862.5l750-750M675-375L-75 375M150 150l750-750M712.5-412.5l-750 750M112.5 187.5l750-750M712.5-412.5l-750 750M75 225l750-750M712.5-412.5l-750 750M37.5 262.5l750-750M712.5-412.5l-750 750M0 300l750-750M712.5-412.5l-750 750M-37.5 337.5l750-750M712.5-412.5l-750 750M-75 375l750-750M712.5-412.5l-750 750M-112.5 412.5l750-750M712.5-412.5l-750 750M-150 450l750-750M712.5-412.5l-750 750M-187.5 487.5l750-750M712.5-412.5l-750 750M-225 525l750-750M712.5-412.5l-750 750M-262.5 562.5l750-750M712.5-412.5l-750 750M-300 600l750-750M712.5-412.5l-750 750M-337.5 637.5l750-750M712.5-412.5l-750 750M-375 675L375-75M712.5-412.5l-750 750M-412.5 712.5l750-750M712.5-412.5l-750 750M-450 750L300 0M712.5-412.5l-750 750M-487.5 787.5l750-750M712.5-412.5l-750 750M-525 825L225 75M712.5-412.5l-750 750M-562.5 862.5l750-750M712.5-412.5l-750 750M150 150l750-750M750-450L0 300M112.5 187.5l750-750M750-450L0 300M75 225l750-750M750-450L0 300M37.5 262.5l750-750M750-450L0 300M0 300l750-750M750-450L0 300M-37.5 337.5l750-750M750-450L0 300M-75 375l750-750M750-450L0 300M-112.5 412.5l750-750M750-450L0 300M-150 450l750-750M750-450L0 300M-187.5 487.5l750-750M750-450L0 300M-225 525l750-750M750-450L0 300M-262.5 562.5l750-750M750-450L0 300M-300 600l750-750M750-450L0 300M-337.5 637.5l750-750M750-450L0 300M-375 675L375-75M750-450L0 300M-412.5 712.5l750-750M750-450L0 300M-450 750L300 0M750-450L0 300M-487.5 787.5l750-750M750-450L0 300M-525 825L225 75M750-450L0 300M-562.5 862.5l750-750M750-450L0 300M150 150l750-750M787.5-487.5l-750 750M112.5 187.5l750-750M787.5-487.5l-750 750M75 225l750-750M787.5-487.5l-750 750M37.5 262.5l750-750M787.5-487.5l-750 750M0 300l750-750M787.5-487.5l-750 750M-37.5 337.5l750-750M787.5-487.5l-750 750M-75 375l750-750M787.5-487.5l-750 750M-112.5 412.5l750-750M787.5-487.5l-750 750M-150 450l750-750M787.5-487.5l-750 750M-187.5 487.5l750-750M787.5-487.5l-750 750M-225 525l750-750M787.5-487.5l-750 750M-262.5 562.5l750-750M787.5-487.5l-750 750M-300 600l750-750M787.5-487.5l-750 750M-337.5 637.5l750-750M787.5-487.5l-750 750M-375 675L375-75M787.5-487.5l-750 750M-412.5 712.5l750-750M787.5-487.5l-750 750M-450 750L300 0M787.5-487.5l-750 750M-487.5 787.5l750-750M787.5-487.5l-750 750M-525 825L225 75M787.5-487.5l-750 750M-562.5 862.5l750-750M787.5-487.5l-750 750M150 150l750-750M825-525L75 225M112.5 187.5l750-750M825-525L75 225M75 225l750-750M825-525L75 225M37.5 262.5l750-750M825-525L75 225M0 300l750-750M825-525L75 225M-37.5 337.5l750-750M825-525L75 225M-75 375l750-750M825-525L75 225M-112.5 412.5l750-750M825-525L75 225M-150 450l750-750M825-525L75 225M-187.5 487.5l750-750M825-525L75 225M-225 525l750-750M825-525L75 225M-262.5 562.5l750-750M825-525L75 225M-300 600l750-750M825-525L75 225M-337.5 637.5l750-750M825-525L75 225M-375 675L375-75M825-525L75 225M-412.5 712.5l750-750M825-525L75 225M-450 750L300 0M825-525L75 225M-487.5 787.5l750-750M825-525L75 225M-525 825L225 75M825-525L75 225M-562.5 862.5l750-750M825-525L75 225M150 150l750-750M862.5-562.5l-750 750M112.5 187.5l750-750M862.5-562.5l-750 750M75 225l750-750M862.5-562.5l-750 750M37.5 262.5l750-750M862.5-562.5l-750 750M0 300l750-750M862.5-562.5l-750 750M-37.5 337.5l750-750M862.5-562.5l-750 750M-75 375l750-750M862.5-562.5l-750 750M-112.5 412.5l750-750M862.5-562.5l-750 750M-150 450l750-750M862.5-562.5l-750 750M-187.5 487.5l750-750M862.5-562.5l-750 750M-225 525l750-750M862.5-562.5l-750 750M-262.5 562.5l750-750M862.5-562.5l-750 750M-300 600l750-750M862.5-562.5l-750 750M-337.5 637.5l750-750M862.5-562.5l-750 750M-375 675L375-75M862.5-562.5l-750 750M-412.5 712.5l750-750M862.5-562.5l-750 750M-450 750L300 0M862.5-562.5l-750 750M-487.5 787.5l750-750M862.5-562.5l-750 750M-525 825L225 75M862.5-562.5l-750 750M-562.5 862.5l750-750M862.5-562.5l-750 750" stroke-width="2" clip-path="url(#a)"/><path fill="none" stroke="#000" d="M-225 525l750-750M525-225l-750 750" stroke-width="2" clip-path="url(#a)"/><path fill="none" stroke="#11accd" d="M180.545 120.655c.45-2.7 5.4-6.75 6.75-7.2-1.35-.45-6.3-4.5-6.75-7.2" transform="rotate(-45 187.295 113.455)" stroke-width="3" clip-path="url(#b)" stroke-linejoin="round" stroke-linecap="round"/><path fill="none" stroke="#11accd" d="M150 150l36.545-36.545" stroke-width="3" clip-path="url(#a)"/><path fill="none" stroke="#ca337c" d="M107.455 193.745c.45-2.7 5.4-6.75 6.75-7.2-1.35-.45-6.3-4.5-6.75-7.2" transform="rotate(135 114.205 186.545)" stroke-width="3" clip-path="url(#c)" stroke-linejoin="round" stroke-linecap="round"/><path fill="none" stroke="#ca337c" d="M150 150l-36.545 36.545" stroke-width="3" clip-path="url(#a)"/></svg>
