<svg xmlns="http://www.w3.org/2000/svg" width="300" height="300" viewBox="0 0 300 300"><defs><clipPath id="a"><path d="M0 0h300v300H0z"/></clipPath><clipPath id="b"><path d="M0 0h300v300H0z"/></clipPath><clipPath id="c"><path transform="rotate(90 150.75 113.85)" d="M0 0h300v300H0z"/></clipPath></defs><path fill="none" stroke="#f6f7f7" d="M-225 525h750M-225 525v-750M-225 487.5h750M-225 525v-750M-225 450h750M-225 525v-750M-225 412.5h750M-225 525v-750M-225 375h750M-225 525v-750M-225 337.5h750M-225 525v-750M-225 300h750M-225 525v-750M-225 262.5h750M-225 525v-750M-225 225h750M-225 525v-750M-225 187.5h750M-225 525v-750M-225 150h750M-225 525v-750M-225 112.5h750M-225 525v-750M-225 75h750M-225 525v-750M-225 37.5h750M-225 525v-750M-225 0h750M-225 525v-750M-225-37.5h750M-225 525v-750M-225-75h750M-225 525v-750M-225-112.5h750M-225 525v-750M-225-150h750M-225 525v-750M-225-187.5h750M-225 525v-750M-225 525h750M-187.5 525v-750M-225 487.5h750M-187.5 525v-750M-225 450h750M-187.5 525v-750M-225 412.5h750M-187.5 525v-750M-225 375h750M-187.5 525v-750M-225 337.5h750M-187.5 525v-750M-225 300h750M-187.5 525v-750M-225 262.5h750M-187.5 525v-750M-225 225h750M-187.5 525v-750M-225 187.5h750M-187.5 525v-750M-225 150h750M-187.5 525v-750M-225 112.5h750M-187.5 525v-750M-225 75h750M-187.5 525v-750M-225 37.5h750M-187.5 525v-750M-225 0h750M-187.5 525v-750M-225-37.5h750M-187.5 525v-750M-225-75h750M-187.5 525v-750M-225-112.5h750M-187.5 525v-750M-225-150h750M-187.5 525v-750M-225-187.5h750M-187.5 525v-750M-225 525h750M-150 525v-750M-225 487.5h750M-150 525v-750M-225 450h750M-150 525v-750M-225 412.5h750M-150 525v-750M-225 375h750M-150 525v-750M-225 337.5h750M-150 525v-750M-225 300h750M-150 525v-750M-225 262.5h750M-150 525v-750M-225 225h750M-150 525v-750M-225 187.5h750M-150 525v-750M-225 150h750M-150 525v-750M-225 112.5h750M-150 525v-750M-225 75h750M-150 525v-750M-225 37.5h750M-150 525v-750M-225 0h750M-150 525v-750M-225-37.5h750M-150 525v-750M-225-75h750M-150 525v-750M-225-112.5h750M-150 525v-750M-225-150h750M-150 525v-750M-225-187.5h750M-150 525v-750M-225 525h750M-112.5 525v-750M-225 487.5h750M-112.5 525v-750M-225 450h750M-112.5 525v-750M-225 412.5h750M-112.5 525v-750M-225 375h750M-112.5 525v-750M-225 337.5h750M-112.5 525v-750M-225 300h750M-112.5 525v-750M-225 262.5h750M-112.5 525v-750M-225 225h750M-112.5 525v-750M-225 187.5h750M-112.5 525v-750M-225 150h750M-112.5 525v-750M-225 112.5h750M-112.5 525v-750M-225 75h750M-112.5 525v-750M-225 37.5h750M-112.5 525v-750M-225 0h750M-112.5 525v-750M-225-37.5h750M-112.5 525v-750M-225-75h750M-112.5 525v-750M-225-112.5h750M-112.5 525v-750M-225-150h750M-112.5 525v-750M-225-187.5h750M-112.5 525v-750M-225 525h750M-75 525v-750M-225 487.5h750M-75 525v-750M-225 450h750M-75 525v-750M-225 412.5h750M-75 525v-750M-225 375h750M-75 525v-750M-225 337.5h750M-75 525v-750M-225 300h750M-75 525v-750M-225 262.5h750M-75 525v-750M-225 225h750M-75 525v-750M-225 187.5h750M-75 525v-750M-225 150h750M-75 525v-750M-225 112.5h750M-75 525v-750M-225 75h750M-75 525v-750M-225 37.5h750M-75 525v-750M-225 0h750M-75 525v-750M-225-37.5h750M-75 525v-750M-225-75h750M-75 525v-750M-225-112.5h750M-75 525v-750M-225-150h750M-75 525v-750M-225-187.5h750M-75 525v-750M-225 525h750M-37.5 525v-750M-225 487.5h750M-37.5 525v-750M-225 450h750M-37.5 525v-750M-225 412.5h750M-37.5 525v-750M-225 375h750M-37.5 525v-750M-225 337.5h750M-37.5 525v-750M-225 300h750M-37.5 525v-750M-225 262.5h750M-37.5 525v-750M-225 225h750M-37.5 525v-750M-225 187.5h750M-37.5 525v-750M-225 150h750M-37.5 525v-750M-225 112.5h750M-37.5 525v-750M-225 75h750M-37.5 525v-750M-225 37.5h750M-37.5 525v-750M-225 0h750M-37.5 525v-750M-225-37.5h750M-37.5 525v-750M-225-75h750M-37.5 525v-750M-225-112.5h750M-37.5 525v-750M-225-150h750M-37.5 525v-750M-225-187.5h750M-37.5 525v-750M-225 525h750M0 525v-750M-225 487.5h750M0 525v-750M-225 450h750M0 525v-750M-225 412.5h750M0 525v-750M-225 375h750M0 525v-750M-225 337.5h750M0 525v-750M-225 300h750M0 525v-750M-225 262.5h750M0 525v-750M-225 225h750M0 525v-750M-225 187.5h750M0 525v-750M-225 150h750M0 525v-750M-225 112.5h750M0 525v-750M-225 75h750M0 525v-750M-225 37.5h750M0 525v-750M-225 0h750M0 525v-750M-225-37.5h750M0 525v-750M-225-75h750M0 525v-750M-225-112.5h750M0 525v-750M-225-150h750M0 525v-750M-225-187.5h750M0 525v-750M-225 525h750M37.5 525v-750M-225 487.5h750M37.5 525v-750M-225 450h750M37.5 525v-750M-225 412.5h750M37.5 525v-750M-225 375h750M37.5 525v-750M-225 337.5h750M37.5 525v-750M-225 300h750M37.5 525v-750M-225 262.5h750M37.5 525v-750M-225 225h750M37.5 525v-750M-225 187.5h750M37.5 525v-750M-225 150h750M37.5 525v-750M-225 112.5h750M37.5 525v-750M-225 75h750M37.5 525v-750M-225 37.5h750M37.5 525v-750M-225 0h750M37.5 525v-750M-225-37.5h750M37.5 525v-750M-225-75h750M37.5 525v-750M-225-112.5h750M37.5 525v-750M-225-150h750M37.5 525v-750M-225-187.5h750M37.5 525v-750M-225 525h750M75 525v-750M-225 487.5h750M75 525v-750M-225 450h750M75 525v-750M-225 412.5h750M75 525v-750M-225 375h750M75 525v-750M-225 337.5h750M75 525v-750M-225 300h750M75 525v-750M-225 262.5h750M75 525v-750M-225 225h750M75 525v-750M-225 187.5h750M75 525v-750M-225 150h750M75 525v-750M-225 112.5h750M75 525v-750M-225 75h750M75 525v-750M-225 37.5h750M75 525v-750M-225 0h750M75 525v-750M-225-37.5h750M75 525v-750M-225-75h750M75 525v-750M-225-112.5h750M75 525v-750M-225-150h750M75 525v-750M-225-187.5h750M75 525v-750M-225 525h750M112.5 525v-750M-225 487.5h750M112.5 525v-750M-225 450h750M112.5 525v-750M-225 412.5h750M112.5 525v-750M-225 375h750M112.5 525v-750M-225 337.5h750M112.5 525v-750M-225 300h750M112.5 525v-750M-225 262.5h750M112.5 525v-750M-225 225h750M112.5 525v-750M-225 187.5h750M112.5 525v-750M-225 150h750M112.5 525v-750M-225 112.5h750M112.5 525v-750M-225 75h750M112.5 525v-750M-225 37.5h750M112.5 525v-750M-225 0h750M112.5 525v-750M-225-37.5h750M112.5 525v-750M-225-75h750M112.5 525v-750M-225-112.5h750M112.5 525v-750M-225-150h750M112.5 525v-750M-225-187.5h750M112.5 525v-750M-225 525h750M150 525v-750M-225 487.5h750M150 525v-750M-225 450h750M150 525v-750M-225 412.5h750M150 525v-750M-225 375h750M150 525v-750M-225 337.5h750M150 525v-750M-225 300h750M150 525v-750M-225 262.5h750M150 525v-750M-225 225h750M150 525v-750M-225 187.5h750M150 525v-750M-225 150h750M150 525v-750M-225 112.5h750M150 525v-750M-225 75h750M150 525v-750M-225 37.5h750M150 525v-750M-225 0h750M150 525v-750M-225-37.5h750M150 525v-750M-225-75h750M150 525v-750M-225-112.5h750M150 525v-750M-225-150h750M150 525v-750M-225-187.5h750M150 525v-750M-225 525h750M187.5 525v-750M-225 487.5h750M187.5 525v-750M-225 450h750M187.5 525v-750M-225 412.5h750M187.5 525v-750M-225 375h750M187.5 525v-750M-225 337.5h750M187.5 525v-750M-225 300h750M187.5 525v-750M-225 262.5h750M187.5 525v-750M-225 225h750M187.5 525v-750M-225 187.5h750M187.5 525v-750M-225 150h750M187.5 525v-750M-225 112.5h750M187.5 525v-750M-225 75h750M187.5 525v-750M-225 37.5h750M187.5 525v-750M-225 0h750M187.5 525v-750M-225-37.5h750M187.5 525v-750M-225-75h750M187.5 525v-750M-225-112.5h750M187.5 525v-750M-225-150h750M187.5 525v-750M-225-187.5h750M187.5 525v-750M-225 525h750M225 525v-750M-225 487.5h750M225 525v-750M-225 450h750M225 525v-750M-225 412.5h750M225 525v-750M-225 375h750M225 525v-750M-225 337.5h750M225 525v-750M-225 300h750M225 525v-750M-225 262.5h750M225 525v-750M-225 225h750M225 525v-750M-225 187.5h750M225 525v-750M-225 150h750M225 525v-750M-225 112.5h750M225 525v-750M-225 75h750M225 525v-750M-225 37.5h750M225 525v-750M-225 0h750M225 525v-750M-225-37.5h750M225 525v-750M-225-75h750M225 525v-750M-225-112.5h750M225 525v-750M-225-150h750M225 525v-750M-225-187.5h750M225 525v-750M-225 525h750M262.5 525v-750M-225 487.5h750M262.5 525v-750M-225 450h750M262.5 525v-750M-225 412.5h750M262.5 525v-750M-225 375h750M262.5 525v-750M-225 337.5h750M262.5 525v-750M-225 300h750M262.5 525v-750M-225 262.5h750M262.5 525v-750M-225 225h750M262.5 525v-750M-225 187.5h750M262.5 525v-750M-225 150h750M262.5 525v-750M-225 112.5h750M262.5 525v-750M-225 75h750M262.5 525v-750M-225 37.5h750M262.5 525v-750M-225 0h750M262.5 525v-750M-225-37.5h750M262.5 525v-750M-225-75h750M262.5 525v-750M-225-112.5h750M262.5 525v-750M-225-150h750M262.5 525v-750M-225-187.5h750M262.5 525v-750M-225 525h750M300 525v-750M-225 487.5h750M300 525v-750M-225 450h750M300 525v-750M-225 412.5h750M300 525v-750M-225 375h750M300 525v-750M-225 337.5h750M300 525v-750M-225 300h750M300 525v-750M-225 262.5h750M300 525v-750M-225 225h750M300 525v-750M-225 187.5h750M300 525v-750M-225 150h750M300 525v-750M-225 112.5h750M300 525v-750M-225 75h750M300 525v-750M-225 37.5h750M300 525v-750M-225 0h750M300 525v-750M-225-37.5h750M300 525v-750M-225-75h750M300 525v-750M-225-112.5h750M300 525v-750M-225-150h750M300 525v-750M-225-187.5h750M300 525v-750M-225 525h750M337.5 525v-750M-225 487.5h750M337.5 525v-750M-225 450h750M337.5 525v-750M-225 412.5h750M337.5 525v-750M-225 375h750M337.5 525v-750M-225 337.5h750M337.5 525v-750M-225 300h750M337.5 525v-750M-225 262.5h750M337.5 525v-750M-225 225h750M337.5 525v-750M-225 187.5h750M337.5 525v-750M-225 150h750M337.5 525v-750M-225 112.5h750M337.5 525v-750M-225 75h750M337.5 525v-750M-225 37.5h750M337.5 525v-750M-225 0h750M337.5 525v-750M-225-37.5h750M337.5 525v-750M-225-75h750M337.5 525v-750M-225-112.5h750M337.5 525v-750M-225-150h750M337.5 525v-750M-225-187.5h750M337.5 525v-750M-225 525h750M375 525v-750M-225 487.5h750M375 525v-750M-225 450h750M375 525v-750M-225 412.5h750M375 525v-750M-225 375h750M375 525v-750M-225 337.5h750M375 525v-750M-225 300h750M375 525v-750M-225 262.5h750M375 525v-750M-225 225h750M375 525v-750M-225 187.5h750M375 525v-750M-225 150h750M375 525v-750M-225 112.5h750M375 525v-750M-225 75h750M375 525v-750M-225 37.5h750M375 525v-750M-225 0h750M375 525v-750M-225-37.5h750M375 525v-750M-225-75h750M375 525v-750M-225-112.5h750M375 525v-750M-225-150h750M375 525v-750M-225-187.5h750M375 525v-750M-225 525h750M412.5 525v-750M-225 487.5h750M412.5 525v-750M-225 450h750M412.5 525v-750M-225 412.5h750M412.5 525v-750M-225 375h750M412.5 525v-750M-225 337.5h750M412.5 525v-750M-225 300h750M412.5 525v-750M-225 262.5h750M412.5 525v-750M-225 225h750M412.5 525v-750M-225 187.5h750M412.5 525v-750M-225 150h750M412.5 525v-750M-225 112.5h750M412.5 525v-750M-225 75h750M412.5 525v-750M-225 37.5h750M412.5 525v-750M-225 0h750M412.5 525v-750M-225-37.5h750M412.5 525v-750M-225-75h750M412.5 525v-750M-225-112.5h750M412.5 525v-750M-225-150h750M412.5 525v-750M-225-187.5h750M412.5 525v-750M-225 525h750M450 525v-750M-225 487.5h750M450 525v-750M-225 450h750M450 525v-750M-225 412.5h750M450 525v-750M-225 375h750M450 525v-750M-225 337.5h750M450 525v-750M-225 300h750M450 525v-750M-225 262.5h750M450 525v-750M-225 225h750M450 525v-750M-225 187.5h750M450 525v-750M-225 150h750M450 525v-750M-225 112.5h750M450 525v-750M-225 75h750M450 525v-750M-225 37.5h750M450 525v-750M-225 0h750M450 525v-750M-225-37.5h750M450 525v-750M-225-75h750M450 525v-750M-225-112.5h750M450 525v-750M-225-150h750M450 525v-750M-225-187.5h750M450 525v-750M-225 525h750M487.5 525v-750M-225 487.5h750M487.5 525v-750M-225 450h750M487.5 525v-750M-225 412.5h750M487.5 525v-750M-225 375h750M487.5 525v-750M-225 337.5h750M487.5 525v-750M-225 300h750M487.5 525v-750M-225 262.5h750M487.5 525v-750M-225 225h750M487.5 525v-750M-225 187.5h750M487.5 525v-750M-225 150h750M487.5 525v-750M-225 112.5h750M487.5 525v-750M-225 75h750M487.5 525v-750M-225 37.5h750M487.5 525v-750M-225 0h750M487.5 525v-750M-225-37.5h750M487.5 525v-750M-225-75h750M487.5 525v-750M-225-112.5h750M487.5 525v-750M-225-150h750M487.5 525v-750M-225-187.5h750M487.5 525v-750" clip-path="url(#a)"/><path fill="none" stroke="#e3e5e6" d="M-225 525h750M-225 525v-750M-225 487.5h750M-225 525v-750M-225 450h750M-225 525v-750M-225 412.5h750M-225 525v-750M-225 375h750M-225 525v-750M-225 337.5h750M-225 525v-750M-225 300h750M-225 525v-750M-225 262.5h750M-225 525v-750M-225 225h750M-225 525v-750M-225 187.5h750M-225 525v-750M-225 150h750M-225 525v-750M-225 112.5h750M-225 525v-750M-225 75h750M-225 525v-750M-225 37.5h750M-225 525v-750M-225 0h750M-225 525v-750M-225-37.5h750M-225 525v-750M-225-75h750M-225 525v-750M-225-112.5h750M-225 525v-750M-225-150h750M-225 525v-750M-225-187.5h750M-225 525v-750M-225 525h750M-187.5 525v-750M-225 487.5h750M-187.5 525v-750M-225 450h750M-187.5 525v-750M-225 412.5h750M-187.5 525v-750M-225 375h750M-187.5 525v-750M-225 337.5h750M-187.5 525v-750M-225 300h750M-187.5 525v-750M-225 262.5h750M-187.5 525v-750M-225 225h750M-187.5 525v-750M-225 187.5h750M-187.5 525v-750M-225 150h750M-187.5 525v-750M-225 112.5h750M-187.5 525v-750M-225 75h750M-187.5 525v-750M-225 37.5h750M-187.5 525v-750M-225 0h750M-187.5 525v-750M-225-37.5h750M-187.5 525v-750M-225-75h750M-187.5 525v-750M-225-112.5h750M-187.5 525v-750M-225-150h750M-187.5 525v-750M-225-187.5h750M-187.5 525v-750M-225 525h750M-150 525v-750M-225 487.5h750M-150 525v-750M-225 450h750M-150 525v-750M-225 412.5h750M-150 525v-750M-225 375h750M-150 525v-750M-225 337.5h750M-150 525v-750M-225 300h750M-150 525v-750M-225 262.5h750M-150 525v-750M-225 225h750M-150 525v-750M-225 187.5h750M-150 525v-750M-225 150h750M-150 525v-750M-225 112.5h750M-150 525v-750M-225 75h750M-150 525v-750M-225 37.5h750M-150 525v-750M-225 0h750M-150 525v-750M-225-37.5h750M-150 525v-750M-225-75h750M-150 525v-750M-225-112.5h750M-150 525v-750M-225-150h750M-150 525v-750M-225-187.5h750M-150 525v-750M-225 525h750M-112.5 525v-750M-225 487.5h750M-112.5 525v-750M-225 450h750M-112.5 525v-750M-225 412.5h750M-112.5 525v-750M-225 375h750M-112.5 525v-750M-225 337.5h750M-112.5 525v-750M-225 300h750M-112.5 525v-750M-225 262.5h750M-112.5 525v-750M-225 225h750M-112.5 525v-750M-225 187.5h750M-112.5 525v-750M-225 150h750M-112.5 525v-750M-225 112.5h750M-112.5 525v-750M-225 75h750M-112.5 525v-750M-225 37.5h750M-112.5 525v-750M-225 0h750M-112.5 525v-750M-225-37.5h750M-112.5 525v-750M-225-75h750M-112.5 525v-750M-225-112.5h750M-112.5 525v-750M-225-150h750M-112.5 525v-750M-225-187.5h750M-112.5 525v-750M-225 525h750M-75 525v-750M-225 487.5h750M-75 525v-750M-225 450h750M-75 525v-750M-225 412.5h750M-75 525v-750M-225 375h750M-75 525v-750M-225 337.5h750M-75 525v-750M-225 300h750M-75 525v-750M-225 262.5h750M-75 525v-750M-225 225h750M-75 525v-750M-225 187.5h750M-75 525v-750M-225 150h750M-75 525v-750M-225 112.5h750M-75 525v-750M-225 75h750M-75 525v-750M-225 37.5h750M-75 525v-750M-225 0h750M-75 525v-750M-225-37.5h750M-75 525v-750M-225-75h750M-75 525v-750M-225-112.5h750M-75 525v-750M-225-150h750M-75 525v-750M-225-187.5h750M-75 525v-750M-225 525h750M-37.5 525v-750M-225 487.5h750M-37.5 525v-750M-225 450h750M-37.5 525v-750M-225 412.5h750M-37.5 525v-750M-225 375h750M-37.5 525v-750M-225 337.5h750M-37.5 525v-750M-225 300h750M-37.5 525v-750M-225 262.5h750M-37.5 525v-750M-225 225h750M-37.5 525v-750M-225 187.5h750M-37.5 525v-750M-225 150h750M-37.5 525v-750M-225 112.5h750M-37.5 525v-750M-225 75h750M-37.5 525v-750M-225 37.5h750M-37.5 525v-750M-225 0h750M-37.5 525v-750M-225-37.5h750M-37.5 525v-750M-225-75h750M-37.5 525v-750M-225-112.5h750M-37.5 525v-750M-225-150h750M-37.5 525v-750M-225-187.5h750M-37.5 525v-750M-225 525h750M0 525v-750M-225 487.5h750M0 525v-750M-225 450h750M0 525v-750M-225 412.5h750M0 525v-750M-225 375h750M0 525v-750M-225 337.5h750M0 525v-750M-225 300h750M0 525v-750M-225 262.5h750M0 525v-750M-225 225h750M0 525v-750M-225 187.5h750M0 525v-750M-225 150h750M0 525v-750M-225 112.5h750M0 525v-750M-225 75h750M0 525v-750M-225 37.5h750M0 525v-750M-225 0h750M0 525v-750M-225-37.5h750M0 525v-750M-225-75h750M0 525v-750M-225-112.5h750M0 525v-750M-225-150h750M0 525v-750M-225-187.5h750M0 525v-750M-225 525h750M37.5 525v-750M-225 487.5h750M37.5 525v-750M-225 450h750M37.5 525v-750M-225 412.5h750M37.5 525v-750M-225 375h750M37.5 525v-750M-225 337.5h750M37.5 525v-750M-225 300h750M37.5 525v-750M-225 262.5h750M37.5 525v-750M-225 225h750M37.5 525v-750M-225 187.5h750M37.5 525v-750M-225 150h750M37.5 525v-750M-225 112.5h750M37.5 525v-750M-225 75h750M37.5 525v-750M-225 37.5h750M37.5 525v-750M-225 0h750M37.5 525v-750M-225-37.5h750M37.5 525v-750M-225-75h750M37.5 525v-750M-225-112.5h750M37.5 525v-750M-225-150h750M37.5 525v-750M-225-187.5h750M37.5 525v-750M-225 525h750M75 525v-750M-225 487.5h750M75 525v-750M-225 450h750M75 525v-750M-225 412.5h750M75 525v-750M-225 375h750M75 525v-750M-225 337.5h750M75 525v-750M-225 300h750M75 525v-750M-225 262.5h750M75 525v-750M-225 225h750M75 525v-750M-225 187.5h750M75 525v-750M-225 150h750M75 525v-750M-225 112.5h750M75 525v-750M-225 75h750M75 525v-750M-225 37.5h750M75 525v-750M-225 0h750M75 525v-750M-225-37.5h750M75 525v-750M-225-75h750M75 525v-750M-225-112.5h750M75 525v-750M-225-150h750M75 525v-750M-225-187.5h750M75 525v-750M-225 525h750M112.5 525v-750M-225 487.5h750M112.5 525v-750M-225 450h750M112.5 525v-750M-225 412.5h750M112.5 525v-750M-225 375h750M112.5 525v-750M-225 337.5h750M112.5 525v-750M-225 300h750M112.5 525v-750M-225 262.5h750M112.5 525v-750M-225 225h750M112.5 525v-750M-225 187.5h750M112.5 525v-750M-225 150h750M112.5 525v-750M-225 112.5h750M112.5 525v-750M-225 75h750M112.5 525v-750M-225 37.5h750M112.5 525v-750M-225 0h750M112.5 525v-750M-225-37.5h750M112.5 525v-750M-225-75h750M112.5 525v-750M-225-112.5h750M112.5 525v-750M-225-150h750M112.5 525v-750M-225-187.5h750M112.5 525v-750M-225 525h750M150 525v-750M-225 487.5h750M150 525v-750M-225 450h750M150 525v-750M-225 412.5h750M150 525v-750M-225 375h750M150 525v-750M-225 337.5h750M150 525v-750M-225 300h750M150 525v-750M-225 262.5h750M150 525v-750M-225 225h750M150 525v-750M-225 187.5h750M150 525v-750M-225 150h750M150 525v-750M-225 112.5h750M150 525v-750M-225 75h750M150 525v-750M-225 37.5h750M150 525v-750M-225 0h750M150 525v-750M-225-37.5h750M150 525v-750M-225-75h750M150 525v-750M-225-112.5h750M150 525v-750M-225-150h750M150 525v-750M-225-187.5h750M150 525v-750M-225 525h750M187.5 525v-750M-225 487.5h750M187.5 525v-750M-225 450h750M187.5 525v-750M-225 412.5h750M187.5 525v-750M-225 375h750M187.5 525v-750M-225 337.5h750M187.5 525v-750M-225 300h750M187.5 525v-750M-225 262.5h750M187.5 525v-750M-225 225h750M187.5 525v-750M-225 187.5h750M187.5 525v-750M-225 150h750M187.5 525v-750M-225 112.5h750M187.5 525v-750M-225 75h750M187.5 525v-750M-225 37.5h750M187.5 525v-750M-225 0h750M187.5 525v-750M-225-37.5h750M187.5 525v-750M-225-75h750M187.5 525v-750M-225-112.5h750M187.5 525v-750M-225-150h750M187.5 525v-750M-225-187.5h750M187.5 525v-750M-225 525h750M225 525v-750M-225 487.5h750M225 525v-750M-225 450h750M225 525v-750M-225 412.5h750M225 525v-750M-225 375h750M225 525v-750M-225 337.5h750M225 525v-750M-225 300h750M225 525v-750M-225 262.5h750M225 525v-750M-225 225h750M225 525v-750M-225 187.5h750M225 525v-750M-225 150h750M225 525v-750M-225 112.5h750M225 525v-750M-225 75h750M225 525v-750M-225 37.5h750M225 525v-750M-225 0h750M225 525v-750M-225-37.5h750M225 525v-750M-225-75h750M225 525v-750M-225-112.5h750M225 525v-750M-225-150h750M225 525v-750M-225-187.5h750M225 525v-750M-225 525h750M262.5 525v-750M-225 487.5h750M262.5 525v-750M-225 450h750M262.5 525v-750M-225 412.5h750M262.5 525v-750M-225 375h750M262.5 525v-750M-225 337.5h750M262.5 525v-750M-225 300h750M262.5 525v-750M-225 262.5h750M262.5 525v-750M-225 225h750M262.5 525v-750M-225 187.5h750M262.5 525v-750M-225 150h750M262.5 525v-750M-225 112.5h750M262.5 525v-750M-225 75h750M262.5 525v-750M-225 37.5h750M262.5 525v-750M-225 0h750M262.5 525v-750M-225-37.5h750M262.5 525v-750M-225-75h750M262.5 525v-750M-225-112.5h750M262.5 525v-750M-225-150h750M262.5 525v-750M-225-187.5h750M262.5 525v-750M-225 525h750M300 525v-750M-225 487.5h750M300 525v-750M-225 450h750M300 525v-750M-225 412.5h750M300 525v-750M-225 375h750M300 525v-750M-225 337.5h750M300 525v-750M-225 300h750M300 525v-750M-225 262.5h750M300 525v-750M-225 225h750M300 525v-750M-225 187.5h750M300 525v-750M-225 150h750M300 525v-750M-225 112.5h750M300 525v-750M-225 75h750M300 525v-750M-225 37.5h750M300 525v-750M-225 0h750M300 525v-750M-225-37.5h750M300 525v-750M-225-75h750M300 525v-750M-225-112.5h750M300 525v-750M-225-150h750M300 525v-750M-225-187.5h750M300 525v-750M-225 525h750M337.5 525v-750M-225 487.5h750M337.5 525v-750M-225 450h750M337.5 525v-750M-225 412.5h750M337.5 525v-750M-225 375h750M337.5 525v-750M-225 337.5h750M337.5 525v-750M-225 300h750M337.5 525v-750M-225 262.5h750M337.5 525v-750M-225 225h750M337.5 525v-750M-225 187.5h750M337.5 525v-750M-225 150h750M337.5 525v-750M-225 112.5h750M337.5 525v-750M-225 75h750M337.5 525v-750M-225 37.5h750M337.5 525v-750M-225 0h750M337.5 525v-750M-225-37.5h750M337.5 525v-750M-225-75h750M337.5 525v-750M-225-112.5h750M337.5 525v-750M-225-150h750M337.5 525v-750M-225-187.5h750M337.5 525v-750M-225 525h750M375 525v-750M-225 487.5h750M375 525v-750M-225 450h750M375 525v-750M-225 412.5h750M375 525v-750M-225 375h750M375 525v-750M-225 337.5h750M375 525v-750M-225 300h750M375 525v-750M-225 262.5h750M375 525v-750M-225 225h750M375 525v-750M-225 187.5h750M375 525v-750M-225 150h750M375 525v-750M-225 112.5h750M375 525v-750M-225 75h750M375 525v-750M-225 37.5h750M375 525v-750M-225 0h750M375 525v-750M-225-37.5h750M375 525v-750M-225-75h750M375 525v-750M-225-112.5h750M375 525v-750M-225-150h750M375 525v-750M-225-187.5h750M375 525v-750M-225 525h750M412.5 525v-750M-225 487.5h750M412.5 525v-750M-225 450h750M412.5 525v-750M-225 412.5h750M412.5 525v-750M-225 375h750M412.5 525v-750M-225 337.5h750M412.5 525v-750M-225 300h750M412.5 525v-750M-225 262.5h750M412.5 525v-750M-225 225h750M412.5 525v-750M-225 187.5h750M412.5 525v-750M-225 150h750M412.5 525v-750M-225 112.5h750M412.5 525v-750M-225 75h750M412.5 525v-750M-225 37.5h750M412.5 525v-750M-225 0h750M412.5 525v-750M-225-37.5h750M412.5 525v-750M-225-75h750M412.5 525v-750M-225-112.5h750M412.5 525v-750M-225-150h750M412.5 525v-750M-225-187.5h750M412.5 525v-750M-225 525h750M450 525v-750M-225 487.5h750M450 525v-750M-225 450h750M450 525v-750M-225 412.5h750M450 525v-750M-225 375h750M450 525v-750M-225 337.5h750M450 525v-750M-225 300h750M450 525v-750M-225 262.5h750M450 525v-750M-225 225h750M450 525v-750M-225 187.5h750M450 525v-750M-225 150h750M450 525v-750M-225 112.5h750M450 525v-750M-225 75h750M450 525v-750M-225 37.5h750M450 525v-750M-225 0h750M450 525v-750M-225-37.5h750M450 525v-750M-225-75h750M450 525v-750M-225-112.5h750M450 525v-750M-225-150h750M450 525v-750M-225-187.5h750M450 525v-750M-225 525h750M487.5 525v-750M-225 487.5h750M487.5 525v-750M-225 450h750M487.5 525v-750M-225 412.5h750M487.5 525v-750M-225 375h750M487.5 525v-750M-225 337.5h750M487.5 525v-750M-225 300h750M487.5 525v-750M-225 262.5h750M487.5 525v-750M-225 225h750M487.5 525v-750M-225 187.5h750M487.5 525v-750M-225 150h750M487.5 525v-750M-225 112.5h750M487.5 525v-750M-225 75h750M487.5 525v-750M-225 37.5h750M487.5 525v-750M-225 0h750M487.5 525v-750M-225-37.5h750M487.5 525v-750M-225-75h750M487.5 525v-750M-225-112.5h750M487.5 525v-750M-225-150h750M487.5 525v-750M-225-187.5h750M487.5 525v-750" stroke-width="2" clip-path="url(#a)"/><path fill="#8af281" stroke="#1fab54" d="M150 150v-37.5h37.5V150" stroke-width="2" clip-path="url(#a)" fill-opacity=".235"/><path fill="none" stroke="#000" d="M-225 150h750M150 525v-750" stroke-width="2" clip-path="url(#a)"/><path fill="none" stroke="#11accd" d="M180.15 157.2c.45-2.7 5.4-6.75 6.75-7.2-1.35-.45-6.3-4.5-6.75-7.2" stroke-width="3" clip-path="url(#b)" stroke-linejoin="round" stroke-linecap="round"/><path fill="none" stroke="#11accd" d="M150 150h36.15" stroke-width="3" clip-path="url(#a)"/><path fill="none" stroke="#ca337c" d="M144 121.05c.45-2.7 5.4-6.75 6.75-7.2-1.35-.45-6.3-4.5-6.75-7.2" transform="rotate(-90 150.75 113.85)" stroke-width="3" clip-path="url(#c)" stroke-linejoin="round" stroke-linecap="round"/><path fill="none" stroke="#ca337c" d="M150 150v-36.15" stroke-width="3" clip-path="url(#a)"/></svg>
