<?xml version="1.0" encoding="UTF-8" standalone="no"?>
<!-- Created with Inkscape (http://www.inkscape.org/) -->

<svg
   sodipodi:docname="matrix-multiply-rows-cols.svg"
   inkscape:version="1.1 (c68e22c387, 2021-05-23)"
   version="1.1"
   id="svg2"
   height="26.4265"
   width="340.53"
   xmlns:inkscape="http://www.inkscape.org/namespaces/inkscape"
   xmlns:sodipodi="http://sodipodi.sourceforge.net/DTD/sodipodi-0.dtd"
   xmlns:xlink="http://www.w3.org/1999/xlink"
   xmlns="http://www.w3.org/2000/svg"
   xmlns:svg="http://www.w3.org/2000/svg"
   xmlns:rdf="http://www.w3.org/1999/02/22-rdf-syntax-ns#"
   xmlns:cc="http://creativecommons.org/ns#"
   xmlns:dc="http://purl.org/dc/elements/1.1/">
  <sodipodi:namedview
     id="base"
     pagecolor="#ffffff"
     bordercolor="#666666"
     borderopacity="1.0"
     inkscape:pageopacity="0.0"
     inkscape:pageshadow="2"
     inkscape:zoom="0.18322917"
     inkscape:cx="2621.9199"
     inkscape:cy="1629.1074"
     inkscape:document-units="px"
     inkscape:current-layer="layer1"
     showgrid="false"
     inkscape:window-width="1920"
     inkscape:window-height="1005"
     inkscape:window-x="1911"
     inkscape:window-y="-9"
     inkscape:window-maximized="1"
     showborder="true"
     inkscape:pagecheckerboard="0" />
  <defs
     id="defs4" />
  <metadata
     id="metadata7">
    <rdf:RDF>
      <cc:Work
         rdf:about="">
        <dc:format>image/svg+xml</dc:format>
        <dc:type
           rdf:resource="http://purl.org/dc/dcmitype/StillImage" />
      </cc:Work>
    </rdf:RDF>
  </metadata>
  <g
     transform="translate(212.049,-3308.65)"
     id="layer1"
     inkscape:groupmode="layer"
     inkscape:label="Layer 1">
    <g
       aria-label="m"
       transform="scale(0.991622,1.00845)"
       id="text5494"
       style="font-weight:900;font-size:7.93212px;line-height:0%;font-family:'Comic Sans MS';-inkscape-font-specification:'Comic Sans MS';display:inline;overflow:visible;fill:#19aeff;stroke-width:1.1;marker:none;enable-background:accumulate">
      <path
         d="m -210.032,3287.05 q 2.07,-2.4 3.92,-2.4 2.111,0 3.098,1.6 0.836,-0.74 1.851,-1.11 1.014,-0.37 2.193,-0.37 2.687,0 3.646,2.68 0.192,0.54 0.59,3.71 0.384,2.22 0.987,7.4 0.06,0.78 -0.535,1.29 -0.589,0.51 -1.384,0.51 -1.577,0 -1.851,-1.56 -0.247,-1.42 -0.507,-3.99 -0.274,-2.83 -0.452,-4.01 -0.371,-2.45 -0.946,-2.45 -0.316,0 -1.44,0.63 -1.124,0.63 -1.645,1.08 0,1.57 0.37,4.5 0.384,3 0.384,4.5 0,0.78 -0.534,1.3 -0.535,0.52 -1.357,0.52 -0.823,0 -1.358,-0.52 -0.534,-0.52 -0.534,-1.3 0,-1.57 -0.343,-4.6 -0.329,-3.04 -0.329,-4.6 0,-0.88 -0.151,-1.4 -1.59,0.92 -3.194,3.06 -0.07,0.1 -0.233,0.28 -0.05,2.77 -0.05,4.35 0,0.38 -0.03,1.04 -0.03,0.65 -0.03,0.96 0,0.74 -0.603,1.17 -0.549,0.39 -1.358,0.39 -1.165,0 -1.576,-1.01 -0.288,-0.69 -0.288,-2.18 v -5.1 q 0,-0.68 -0.06,-2 -0.06,-1.33 -0.06,-2.02 0,-1.22 0.439,-2.2 0.535,-1.24 1.508,-1.24 0.768,0 1.371,0.61 0.603,0.59 0.603,1.3 0,-0.29 -0.123,1.18 z"
         style="font-size:28.0742px;line-height:1"
         id="path2525" />
    </g>
    <g
       aria-label="x"
       transform="matrix(0.991622,0,0,1.00845,0.341103,0.341103)"
       id="text5498"
       style="font-weight:900;font-size:7.93212px;line-height:0%;font-family:'Comic Sans MS';-inkscape-font-specification:'Comic Sans MS';display:inline;overflow:visible;fill:#999999;stroke-width:1.1;marker:none;enable-background:accumulate">
      <path
         d="m -172.508,3288.06 q -0.782,0.67 -2.015,1.77 l -2.098,1.95 4.181,5.11 q 0.453,0.56 0.453,1.11 0,0.71 -0.576,1.25 -0.576,0.53 -1.316,0.53 -0.768,0 -1.371,-0.65 -1.234,-1.35 -4.071,-4.84 -1.111,1.11 -3.441,3.23 -0.74,0.62 -1.124,1.03 -0.603,0.63 -1.357,0.63 -0.74,0 -1.316,-0.53 -0.562,-0.54 -0.562,-1.25 0,-0.8 1.124,-1.83 0.905,-0.78 1.809,-1.54 0.837,-0.84 2.605,-2.57 -0.768,-1.07 -1.549,-2.14 -0.946,-1.26 -1.782,-1.96 -0.713,-0.59 -0.713,-1.33 0,-0.71 0.535,-1.26 0.548,-0.56 1.302,-0.56 0.973,0 2.687,1.96 l 2.193,2.82 q 1.179,-0.98 2.344,-1.97 1.453,-1.26 2.084,-2.15 0.589,-0.84 1.494,-0.84 0.74,0 1.316,0.52 0.589,0.52 0.589,1.24 0,0.89 -1.425,2.27 z"
         style="font-size:28.0742px;line-height:1"
         id="path2865" />
    </g>
    <g
       aria-label="n"
       transform="scale(0.991622,1.00845)"
       id="text5502"
       style="font-weight:900;font-size:7.93212px;line-height:0%;font-family:'Comic Sans MS';-inkscape-font-specification:'Comic Sans MS';display:inline;overflow:visible;fill:#9ade00;stroke-width:1.1;marker:none;enable-background:accumulate">
      <path
         d="m -151.979,3300.15 q -1.686,0 -1.878,-1.66 -0.192,-1.41 -0.384,-2.83 -0.205,-1.51 -0.205,-2.84 0,-0.36 0.04,-1.22 0.06,-0.86 0.06,-1.22 0,-0.1 0.03,-0.48 0.03,-0.4 0.03,-0.64 0,-1.14 -0.59,-1.14 -1.261,0 -2.481,1.48 -1.206,1.46 -1.892,3.73 -0.03,0.45 -0.123,1.2 -0.08,0.62 -0.08,1.21 0,0.38 0.08,1.16 0.1,0.77 0.1,1.16 0,0.78 -0.549,1.28 -0.534,0.53 -1.357,0.53 -0.822,0 -1.357,-0.53 -0.534,-0.5 -0.534,-1.28 0,-0.39 -0.08,-1.16 -0.08,-0.78 -0.08,-1.16 0,-1.32 0.192,-3.66 0.192,-2.34 0.192,-3.66 0,-0.41 -0.06,-1.22 -0.04,-0.82 -0.04,-1.22 0,-0.77 0.548,-1.26 0.562,-0.51 1.371,-0.51 1.796,0 1.919,2.15 l 0.01,0.15 q 2.001,-2.01 4.222,-2.01 2.591,0 3.578,2.16 0.658,1.46 0.658,4.35 v 0.97 q -0.01,0.63 -0.01,0.89 0,1.07 0.288,2.76 0.302,1.69 0.302,2.74 0,0.77 -0.549,1.28 -0.548,0.5 -1.357,0.5 z"
         style="font-size:28.0742px;line-height:1"
         id="path3947" />
    </g>
    <g
       aria-label="p"
       id="text5514"
       style="font-weight:900;font-size:7.93211px;line-height:0%;font-family:'Comic Sans MS';-inkscape-font-specification:'Comic Sans MS';display:inline;overflow:visible;fill:#005c94;stroke-width:1.1;marker:none;enable-background:accumulate">
      <path
         d="m -30.0472,3327.87 q -1.1889,0 -2.5022,-0.28 l -0.014,5.64 q 0,0.8 -0.5391,1.33 -0.5391,0.52 -1.3686,0.52 -0.8294,0 -1.3685,-0.52 -0.5392,-0.53 -0.5392,-1.33 0,-0.65 0.028,-5.16 0.028,-3.34 0,-5.46 -0.041,-2.98 -0.1936,-5.14 -0.2073,-2.97 -0.2073,-2.72 0,-1.15 0.5115,-1.97 0.5944,-0.92 1.6035,-0.92 0.7742,0 1.2995,0.52 0.5253,0.53 0.5253,1.26 l -0.014,0.14 q 0.9262,-0.53 1.8524,-0.78 0.94,-0.26 1.88,-0.26 3.1795,0 4.6448,2.7 1.0921,2.03 1.0921,5.26 0,3.03 -1.728,5.02 -1.8524,2.15 -4.9627,2.15 z m 0.9538,-11.44 q -0.8709,0 -1.7694,0.42 -0.8986,0.4 -1.811,1.21 0.1659,2.85 0.1659,5.71 1.2303,0.4 2.4607,0.4 1.4238,0 2.1841,-1 0.6912,-0.92 0.6912,-2.47 0,-1.86 -0.1659,-2.58 -0.4008,-1.69 -1.7556,-1.69 z"
         style="font-size:28.3113px;line-height:1"
         id="path4050" />
    </g>
    <g
       aria-label="×"
       id="text5530"
       style="font-size:7.93211px;line-height:0%;font-family:'Comic Sans MS';-inkscape-font-specification:'Comic Sans MS';letter-spacing:0px;word-spacing:0px;display:inline;overflow:visible;fill:#009100;stroke-width:0.952807px;marker:none;enable-background:accumulate"
       transform="matrix(1.04953,0,0,1.04953,6.26521,-164.955)">
      <path
         d="m -112.633,3319.59 q 1.79,1.33 3.529,3.22 2.336,2.54 2.336,3.97 0,1.04 -0.571,1.84 -0.649,0.89 -1.635,0.89 -1.895,0 -4.023,-3.43 -0.778,-1.27 -2.491,-2.41 -1.868,2.31 -3.841,4.82 -0.648,1.85 -2.465,1.85 -1.09,0 -1.843,-0.68 -0.752,-0.7 -0.752,-1.76 0,-1.51 1.323,-3.01 2.128,-2.42 2.18,-2.52 0.415,-0.7 1.298,-2.1 -1.843,-1.84 -2.699,-2.62 -1.557,-1.43 -2.959,-2.36 -1.245,-0.84 -1.245,-2.11 0,-1.06 0.752,-1.87 0.779,-0.83 1.817,-0.83 1.765,0 7.422,5.61 2.024,-2.41 4.282,-4.15 0.519,-0.39 1.453,-1.25 0.857,-1.01 1.947,-1.01 1.038,0 1.842,0.8 0.831,0.78 0.831,1.82 0,1.27 -1.791,2.8 -1.401,1.15 -2.803,2.29 -0.908,0.93 -1.894,2.2 z"
         style="font-size:53.1484px;line-height:1.25;stroke-width:0.952807px"
         id="path3926" />
    </g>
    <g
       id="g5538"
       transform="matrix(0.35335,0,0,0.35335,59.6972,2694.45)"
       style="fill:#009100;stroke-width:1.42381">
      <path
         d="m -164.828,1768.25 c 0.371,-0.35 0.766,-0.67 1.171,-0.97 0.419,-0.32 0.866,-0.59 1.318,-0.86 0.351,-0.2 0.707,-0.39 1.062,-0.59 0.339,-0.19 0.682,-0.37 1.025,-0.55 0.42,-0.22 0.85,-0.42 1.283,-0.62 0.446,-0.2 0.898,-0.39 1.35,-0.57 0.449,-0.19 0.899,-0.37 1.352,-0.54 0.473,-0.19 0.95,-0.37 1.429,-0.54 0.488,-0.17 0.978,-0.34 1.47,-0.51 0.543,-0.17 1.092,-0.34 1.641,-0.49 0.529,-0.15 1.059,-0.3 1.59,-0.43 0.536,-0.14 1.074,-0.28 1.613,-0.41 0.617,-0.14 1.241,-0.26 1.866,-0.36 0.601,-0.1 1.206,-0.17 1.81,-0.24 0.51,-0.1 1.02,-0.12 1.53,-0.17 0.553,-0.1 1.106,-0.11 1.661,-0.15 0.616,0 1.234,-0.1 1.852,-0.1 0.589,0 1.178,0 1.766,0 0.509,0 1.018,0 1.526,0 0.509,0 1.017,0 1.525,0.1 0.544,0 1.086,0.1 1.629,0.13 0.556,0 1.111,0.12 1.665,0.18 0.495,0.1 0.99,0.12 1.485,0.19 0.499,0.1 0.996,0.14 1.494,0.21 0.53,0.1 1.057,0.18 1.584,0.28 0.516,0.1 1.029,0.21 1.543,0.32 0.486,0.11 0.97,0.22 1.454,0.33 0.485,0.12 0.969,0.23 1.452,0.35 0.496,0.13 0.991,0.25 1.485,0.39 0.49,0.12 0.979,0.26 1.467,0.39 0.477,0.13 0.952,0.26 1.428,0.39 0.487,0.14 0.976,0.27 1.464,0.4 0.479,0.14 0.958,0.27 1.438,0.4 0.457,0.12 0.916,0.24 1.376,0.35 0.479,0.12 0.96,0.23 1.441,0.34 0.5,0.11 0.998,0.23 1.496,0.34 0.458,0.11 0.916,0.21 1.375,0.31 0.455,0.1 0.91,0.2 1.365,0.3 0.42,0.1 0.841,0.18 1.262,0.26 0.37,0.1 0.743,0.15 1.117,0.21 0.384,0.1 0.771,0.1 1.157,0.15 0.398,0 0.798,0.1 1.198,0.13 0.367,0 0.735,0.1 1.103,0.1 0.371,0 0.743,0 1.114,0 0.414,0 0.828,0 1.243,0 0.3353,0 0.671,0 1.0067,0 0.337,0 0.6735,0 1.0097,0 0.3804,0 0.7599,0 1.1394,-0.1 0.3791,0 0.757,-0.1 1.1351,-0.11 0.3219,0 0.6423,-0.1 0.9626,-0.14 0.3652,0 0.7303,-0.11 1.0952,-0.17 0.3249,0 0.6482,-0.11 0.9715,-0.17 0.2988,-0.1 0.5956,-0.13 0.8926,-0.2 0.267,-0.1 0.5312,-0.14 0.7956,-0.21 0.292,-0.1 0.5833,-0.18 0.8745,-0.27 0.3153,-0.11 0.6308,-0.21 0.946,-0.31 0.3151,-0.11 0.6306,-0.21 0.946,-0.32 0.257,-0.1 0.512,-0.18 0.7671,-0.27 0.1951,-0.1 0.3825,-0.15 0.5698,-0.24 0.2649,-0.12 0.5255,-0.26 0.7867,-0.39 0.3166,-0.16 0.6329,-0.33 0.9493,-0.49 0.2906,-0.15 0.583,-0.3 0.8783,-0.44 0,0 4.875,10.21 4.875,10.21 v 0 c -0.196,0.1 -0.3883,0.19 -0.5817,0.29 -0.3215,0.17 -0.643,0.33 -0.9646,0.5 -0.4102,0.21 -0.8203,0.42 -1.2387,0.61 -0.4447,0.2 -0.8934,0.4 -1.3536,0.56 -0.3565,0.13 -0.7146,0.26 -1.0742,0.38 -0.3309,0.11 -0.6618,0.22 -0.9925,0.33 -0.3568,0.12 -0.7152,0.24 -1.0725,0.35 -0.4039,0.13 -0.8091,0.25 -1.2153,0.38 -0.4534,0.12 -0.9077,0.25 -1.3668,0.36 -0.4344,0.1 -0.8692,0.2 -1.3067,0.28 -0.4161,0.1 -0.8326,0.16 -1.2507,0.23 -0.4049,0.1 -0.8107,0.12 -1.216,0.19 -0.4844,0.1 -0.9693,0.14 -1.4563,0.2 -0.4504,0 -0.9007,0.1 -1.3522,0.13 -0.4744,0 -0.9488,0.1 -1.4242,0.11 -0.5048,0 -1.0101,0.1 -1.5158,0.1 -0.4789,0 -0.9578,0 -1.4363,0 -0.423,0 -0.845,0 -1.267,0 -0.504,0 -1.009,0 -1.512,0 -0.516,0 -1.032,-0.1 -1.546,-0.11 -0.498,0 -0.996,-0.1 -1.492,-0.16 -0.529,-0.1 -1.058,-0.13 -1.584,-0.22 -0.525,-0.1 -1.05,-0.17 -1.571,-0.28 -0.461,-0.1 -0.923,-0.19 -1.383,-0.29 -0.472,-0.1 -0.944,-0.21 -1.415,-0.31 -0.51,-0.11 -1.019,-0.23 -1.528,-0.34 -0.484,-0.12 -0.967,-0.23 -1.452,-0.34 -0.532,-0.12 -1.063,-0.25 -1.592,-0.37 -0.551,-0.14 -1.101,-0.28 -1.648,-0.43 -0.499,-0.13 -0.997,-0.27 -1.495,-0.4 -0.469,-0.13 -0.938,-0.26 -1.406,-0.39 -0.482,-0.13 -0.962,-0.27 -1.444,-0.4 -0.462,-0.12 -0.924,-0.25 -1.387,-0.37 -0.449,-0.12 -0.899,-0.23 -1.348,-0.35 -0.427,-0.1 -0.855,-0.21 -1.283,-0.31 -0.423,-0.1 -0.847,-0.19 -1.271,-0.28 -0.409,-0.1 -0.817,-0.18 -1.227,-0.26 -0.395,-0.1 -0.79,-0.15 -1.186,-0.21 -0.426,-0.1 -0.852,-0.13 -1.278,-0.19 -0.463,-0.1 -0.927,-0.11 -1.39,-0.17 -0.43,-0.1 -0.86,-0.11 -1.291,-0.15 -0.403,0 -0.806,-0.1 -1.211,-0.1 -0.443,0 -0.887,-0.1 -1.331,-0.1 -0.502,0 -1.005,0 -1.508,0 -0.448,0 -0.896,0 -1.344,0 -0.364,0 -0.728,0 -1.092,0 -0.4,0 -0.799,0.1 -1.197,0.11 -0.495,0 -0.99,0.11 -1.484,0.17 -0.436,0 -0.873,0.1 -1.307,0.17 -0.381,0.1 -0.761,0.13 -1.137,0.21 -0.436,0.1 -0.867,0.22 -1.3,0.33 -0.448,0.12 -0.896,0.24 -1.342,0.36 -0.404,0.12 -0.806,0.23 -1.204,0.37 -0.399,0.13 -0.796,0.27 -1.191,0.41 -0.38,0.13 -0.759,0.27 -1.135,0.42 -0.389,0.15 -0.777,0.31 -1.165,0.47 -0.322,0.13 -0.644,0.26 -0.963,0.4 -0.241,0.11 -0.483,0.22 -0.716,0.35 -0.279,0.14 -0.558,0.29 -0.833,0.44 -0.26,0.14 -0.52,0.29 -0.779,0.43 -0.1,0.1 -0.195,0.11 -0.287,0.18 -0.107,0.1 -0.213,0.15 -0.306,0.25 0,0 -7.63,-8.35 -7.63,-8.35 z"
         id="path5540"
         style="color:#000000;display:inline;overflow:visible;visibility:visible;fill:#009100;fill-opacity:1;fill-rule:nonzero;stroke:none;stroke-width:0.407929;marker:none;enable-background:accumulate"
         inkscape:connector-curvature="0" />
      <path
         d="m -103.076,1748.02 c 0.251,0.21 0.501,0.41 0.75,0.62 0.208,0.17 0.417,0.34 0.626,0.52 0.187,0.15 0.378,0.3 0.568,0.45 0.23,0.18 0.464,0.36 0.697,0.53 0.269,0.21 0.539,0.41 0.8086,0.61 0.2717,0.21 0.5436,0.42 0.8176,0.62 0.2601,0.2 0.523,0.39 0.7863,0.59 0.2721,0.2 0.5458,0.4 0.8186,0.6 0.2617,0.2 0.5261,0.39 0.7895,0.58 0.2322,0.16 0.4686,0.33 0.7064,0.48 0.284,0.19 0.5729,0.37 0.8611,0.55 0.3555,0.23 0.7098,0.45 1.0641,0.67 0.3302,0.21 0.6616,0.41 0.9928,0.62 0.3185,0.19 0.6348,0.39 0.9534,0.59 0.2463,0.15 0.4995,0.29 0.7537,0.43 0.245,0.13 0.4959,0.26 0.7468,0.38 0.3164,0.15 0.6334,0.29 0.9532,0.44 0.3122,0.13 0.6275,0.27 0.9439,0.39 0.3683,0.16 0.7374,0.3 1.1062,0.45 0.3912,0.16 0.7821,0.32 1.1725,0.48 0.3626,0.15 0.7278,0.3 1.093,0.44 0.337,0.14 0.6754,0.27 1.015,0.39 0.33,0.13 0.6621,0.24 0.9949,0.36 0.3341,0.11 0.6693,0.23 1.0053,0.34 0.3391,0.11 0.6785,0.22 1.0179,0.33 0.3134,0.1 0.6273,0.19 0.9411,0.29 0.2749,0.1 0.5516,0.17 0.8288,0.25 0.2718,0.1 0.5452,0.15 0.8189,0.22 0.3059,0.1 0.6126,0.16 0.9192,0.23 0.3009,0.1 0.6018,0.15 0.9027,0.23 0.2579,0.1 0.5167,0.12 0.7758,0.18 0.2505,0.1 0.5021,0.11 0.7537,0.17 0.2669,0 0.5343,0.11 0.8018,0.16 0.2534,0 0.5073,0.1 0.7613,0.15 0.2524,0 0.5053,0.1 0.7583,0.13 0.2613,0 0.5227,0.1 0.784,0.14 0.2328,0 0.4659,0.1 0.6991,0.11 0.2246,0 0.4498,0.1 0.6749,0.11 0.2349,0 0.4699,0.1 0.7049,0.1 0.2256,0 0.4515,0.1 0.6773,0.1 0.2108,0 0.4216,0.1 0.6324,0.1 0.192,0 0.3843,0 0.5766,0.1 0.1522,0 0.2923,0 0.4473,0 0.2193,0 0.4387,0 0.6581,0 0.2125,0 0.4249,0 0.6374,0 0.1958,0 0.3917,0 0.5875,0 0.1803,0 0.3606,0 0.541,0 0.3487,0 0.6942,0.1 1.0395,0.11 0,0 -1.8229,11.17 -1.8229,11.17 v 0 c 0.3007,0 0.335,0 0.043,0 -0.1803,0 -0.3607,0 -0.541,0 -0.1958,0 -0.3917,0 -0.5875,0 -0.2129,0 -0.4258,0 -0.6387,0 -0.2376,0 -0.4751,0 -0.7125,0 -0.3225,0 -0.645,0 -0.9658,-0.1 -0.2542,0 -0.5084,-0.1 -0.7621,-0.1 -0.2279,0 -0.4557,-0.1 -0.6835,-0.1 -0.2415,0 -0.4831,-0.1 -0.7244,-0.1 -0.2586,0 -0.5172,-0.1 -0.7757,-0.11 -0.2749,0 -0.5498,-0.1 -0.8241,-0.13 -0.2644,0 -0.5285,-0.1 -0.7925,-0.13 -0.2678,0 -0.5356,-0.1 -0.8034,-0.14 -0.2996,-0.1 -0.599,-0.11 -0.8979,-0.16 -0.3027,-0.1 -0.6052,-0.12 -0.9071,-0.18 -0.3036,-0.1 -0.6071,-0.12 -0.9101,-0.18 -0.3288,-0.1 -0.6574,-0.14 -0.9849,-0.22 -0.3129,-0.1 -0.6255,-0.14 -0.9371,-0.22 -0.3019,-0.1 -0.6038,-0.15 -0.9057,-0.23 -0.3409,-0.1 -0.682,-0.17 -1.0221,-0.25 -0.3834,-0.1 -0.7665,-0.2 -1.1471,-0.31 -0.3583,-0.11 -0.7158,-0.21 -1.0712,-0.33 -0.3437,-0.1 -0.6874,-0.21 -1.0305,-0.32 -0.3558,-0.12 -0.7117,-0.23 -1.0672,-0.35 -0.3927,-0.13 -0.7846,-0.26 -1.1752,-0.39 -0.4138,-0.15 -0.8268,-0.29 -1.2372,-0.45 -0.4173,-0.15 -0.8333,-0.31 -1.2474,-0.47 -0.4083,-0.17 -0.8163,-0.33 -1.2218,-0.5 -0.3718,-0.15 -0.7443,-0.3 -1.1169,-0.45 -0.3742,-0.16 -0.7487,-0.31 -1.1226,-0.46 -0.4275,-0.17 -0.8536,-0.35 -1.2754,-0.54 -0.4091,-0.18 -0.8156,-0.37 -1.2203,-0.56 -0.4486,-0.22 -0.8941,-0.44 -1.3308,-0.67 -0.4109,-0.23 -0.8192,-0.46 -1.218,-0.71 -0.3306,-0.2 -0.6594,-0.41 -0.9897,-0.61 -0.3589,-0.22 -0.718,-0.44 -1.0757,-0.67 -0.3524,-0.22 -0.7064,-0.44 -1.0604,-0.66 -0.375,-0.24 -0.75,-0.48 -1.119,-0.72 -0.357,-0.24 -0.712,-0.48 -1.061,-0.74 -0.293,-0.21 -0.587,-0.42 -0.878,-0.63 -0.269,-0.2 -0.537,-0.4 -0.805,-0.6 -0.278,-0.2 -0.556,-0.41 -0.831,-0.62 -0.278,-0.21 -0.553,-0.41 -0.828,-0.63 -0.285,-0.21 -0.569,-0.42 -0.853,-0.64 -0.289,-0.21 -0.578,-0.43 -0.862,-0.66 -0.27,-0.21 -0.537,-0.42 -0.802,-0.64 -0.219,-0.18 -0.438,-0.36 -0.656,-0.54 -0.22,-0.18 -0.44,-0.37 -0.66,-0.55 0,0 7.155,-8.76 7.155,-8.76 z"
         id="path5542"
         style="color:#000000;display:inline;overflow:visible;visibility:visible;fill:#009100;fill-opacity:1;fill-rule:nonzero;stroke:none;stroke-width:0.407929;marker:none;enable-background:accumulate"
         inkscape:connector-curvature="0" />
      <path
         d="m -107.977,1789.7 c 0.349,-0.39 0.72,-0.76 1.097,-1.12 0.362,-0.34 0.736,-0.67 1.113,-1 0.377,-0.33 0.761,-0.64 1.146,-0.96 0.362,-0.29 0.718,-0.6 1.076,-0.89 0.368,-0.31 0.734,-0.62 1.1,-0.93 0.398,-0.34 0.799,-0.68 1.203,-1.01 0.413,-0.34 0.827,-0.69 1.2429,-1.02 0.4198,-0.35 0.8421,-0.69 1.2655,-1.03 0.4219,-0.34 0.8443,-0.68 1.268,-1.02 0.4576,-0.36 0.9174,-0.73 1.38,-1.08 0.4972,-0.39 1.0015,-0.77 1.5084,-1.15 0.5001,-0.37 1.0064,-0.73 1.5139,-1.09 0.4766,-0.35 0.9565,-0.68 1.4402,-1.02 0.516,-0.36 1.0426,-0.7 1.5736,-1.03 0.4985,-0.32 1.003,-0.62 1.5096,-0.92 0.5029,-0.3 1.0096,-0.59 1.5168,-0.88 0.492,-0.28 0.9837,-0.55 1.4777,-0.83 0.4815,-0.27 0.9653,-0.54 1.4513,-0.8 0.4763,-0.26 0.9556,-0.52 1.4366,-0.77 0.452,-0.24 0.9022,-0.48 1.3537,-0.71 0.4633,-0.24 0.9303,-0.48 1.3988,-0.71 0.4427,-0.22 0.8851,-0.43 1.3286,-0.65 0.429,-0.21 0.8632,-0.4 1.295,-0.61 0.4307,-0.2 0.8643,-0.4 1.2995,-0.6 0.4092,-0.18 0.8202,-0.36 1.2298,-0.54 0.4033,-0.17 0.8077,-0.35 1.212,-0.52 0.3679,-0.16 0.7352,-0.32 1.1037,-0.47 0.3613,-0.16 0.7232,-0.31 1.0862,-0.46 0.3256,-0.13 0.6513,-0.26 0.9771,-0.39 0.296,-0.12 0.592,-0.24 0.888,-0.36 0.2725,-0.11 0.545,-0.23 0.8175,-0.34 0.2508,-0.1 0.5017,-0.2 0.7525,-0.3 0.231,-0.1 0.462,-0.19 0.6929,-0.28 0.2127,-0.1 0.4253,-0.18 0.638,-0.26 0.1958,-0.1 0.3916,-0.16 0.5873,-0.24 0.1803,-0.1 0.3606,-0.15 0.5408,-0.22 0.166,-0.1 0.3319,-0.13 0.4979,-0.2 0.1528,-0.1 0.3056,-0.13 0.4584,-0.19 0.1407,-0.1 0.2814,-0.11 0.422,-0.17 0.1296,0 0.2591,-0.1 0.3886,-0.16 0.204,-0.1 0.4112,-0.16 0.6187,-0.24 0.1468,0 0.2935,-0.1 0.4403,-0.13 0,0 2.9545,10.92 2.9545,10.92 v 0 c 0.1112,0 0.2225,-0.1 0.3337,-0.11 0.467,-0.18 0.014,0 -0.092,0 -0.1295,0 -0.259,0.1 -0.3886,0.15 -0.1406,0.1 -0.2813,0.12 -0.422,0.17 -0.1528,0.1 -0.3056,0.13 -0.4584,0.19 -0.166,0.1 -0.332,0.13 -0.4979,0.2 -0.1803,0.1 -0.3606,0.15 -0.5408,0.22 -0.1958,0.1 -0.3916,0.16 -0.5874,0.24 -0.2127,0.1 -0.4254,0.17 -0.638,0.26 -0.231,0.1 -0.462,0.19 -0.693,0.28 -0.2508,0.1 -0.5017,0.2 -0.7526,0.31 -0.2725,0.11 -0.545,0.22 -0.8175,0.33 -0.2958,0.12 -0.5917,0.24 -0.8876,0.36 -0.3164,0.13 -0.6328,0.25 -0.949,0.38 -0.3194,0.13 -0.6378,0.27 -0.9557,0.4 -0.351,0.15 -0.7005,0.3 -1.0509,0.45 -0.37,0.16 -0.7401,0.32 -1.1093,0.48 -0.3895,0.17 -0.7801,0.34 -1.1695,0.51 -0.3768,0.17 -0.7517,0.35 -1.1245,0.52 -0.3961,0.19 -0.7939,0.37 -1.1875,0.56 -0.4062,0.2 -0.8112,0.4 -1.2168,0.59 -0.398,0.2 -0.7947,0.4 -1.1882,0.61 -0.4407,0.23 -0.8801,0.46 -1.3212,0.69 -0.4423,0.23 -0.8826,0.47 -1.3205,0.71 -0.4499,0.24 -0.8974,0.49 -1.343,0.74 -0.4578,0.25 -0.9132,0.51 -1.3691,0.77 -0.4463,0.25 -0.8923,0.51 -1.335,0.77 -0.4268,0.25 -0.8523,0.51 -1.2721,0.77 -0.3951,0.25 -0.7867,0.51 -1.1704,0.77 -0.4407,0.31 -0.8764,0.62 -1.3105,0.93 -0.4481,0.32 -0.8951,0.64 -1.3366,0.96 -0.44,0.33 -0.878,0.66 -1.3094,1 -0.4204,0.32 -0.8373,0.65 -1.253,0.98 -0.4173,0.34 -0.8325,0.67 -1.2478,1.01 -0.4013,0.32 -0.801,0.64 -1.1987,0.97 -0.3945,0.32 -0.7865,0.64 -1.1781,0.97 -0.3753,0.31 -0.7474,0.62 -1.1173,0.94 -0.386,0.32 -0.7704,0.65 -1.1581,0.97 -0.378,0.32 -0.7538,0.63 -1.135,0.94 -0.3067,0.26 -0.6119,0.51 -0.912,0.77 -0.2389,0.2 -0.4758,0.41 -0.7059,0.63 -0.1713,0.16 -0.3429,0.33 -0.5024,0.5 0,0 -8.4117,-7.56 -8.4117,-7.56 z"
         id="path5544"
         style="color:#000000;display:inline;overflow:visible;visibility:visible;fill:#009100;fill-opacity:1;fill-rule:nonzero;stroke:none;stroke-width:0.407929;marker:none;enable-background:accumulate"
         inkscape:connector-curvature="0" />
    </g>
    <use
       x="0"
       y="0"
       xlink:href="#text5494"
       id="use3620"
       transform="translate(274.247,-0.341103)"
       width="100%"
       height="100%" />
    <use
       x="0"
       y="0"
       xlink:href="#text5498"
       id="use3622"
       transform="translate(123.867,0.682206)"
       width="100%"
       height="100%" />
    <use
       x="0"
       y="0"
       xlink:href="#text5498"
       id="use3624"
       transform="translate(274.247,-1.02331)"
       width="100%"
       height="100%" />
    <use
       x="0"
       y="0"
       xlink:href="#text5502"
       id="use4048"
       transform="translate(80.8414,1.02331)"
       width="100%"
       height="100%" />
    <use
       x="0"
       y="0"
       xlink:href="#text5514"
       id="use4151"
       transform="translate(151.837,-1.36441)"
       width="100%"
       height="100%" />
  </g>
</svg>
