<?xml version="1.0" encoding="utf-8"?>
<!-- Generator: Adobe Illustrator 25.2.1, SVG Export Plug-In . SVG Version: 6.00 Build 0)  -->
<svg version="1.1" xmlns="http://www.w3.org/2000/svg" xmlns:xlink="http://www.w3.org/1999/xlink" x="0px" y="0px" width="560px"
	 height="479.76932px" viewBox="0 0 560 479.76932" style="enable-background:new 0 0 560 479.76932;" xml:space="preserve">
<style type="text/css">
	.st0{fill:#C7C5DB;}
	.st1{fill:none;stroke:#999999;stroke-width:0.75;stroke-miterlimit:10;}
	.st2{fill:#666666;}
	.st3{fill:#363636;}
	.st4{fill:#B8DFDC;}
	.st5{fill:#C8D388;}
	.st6{fill:#A1D3EB;}
	.st7{fill:#4F4F4F;}
	.st8{fill:#808080;}
	.st9{fill:#F15A24;}
	.st10{fill:#E6E6E6;}
	.st11{fill:none;stroke:#666666;stroke-width:0.7;stroke-miterlimit:10;}
	.st12{fill:#A0DCF1;}
	.st13{fill:#ED1C24;stroke:#ED1C24;stroke-width:0.4;stroke-miterlimit:10;}
	.st14{fill:none;stroke:#F15A24;stroke-miterlimit:10;}
	.st15{fill:#B3B3B3;}
	.st16{opacity:0.4;fill:#0583FF;}
	.st17{opacity:0.4;fill:#7D66FF;}
	.st18{opacity:0.6;fill:#F7A71E;}
	.st19{fill:#ECC2C2;}
	.st20{fill:#C7C9DE;}
	.st21{fill:#EECB7F;}
	.st22{fill:#B3E1F5;}
	.st23{fill:#F8AE94;}
	.st24{fill:#A7DE82;}
	.st25{fill:#FDD22A;}
	.st26{fill:none;stroke:#666666;stroke-width:0.7843;stroke-miterlimit:10;}
	.st27{fill:#ED1C24;stroke:#ED1C24;stroke-width:0.44817;stroke-miterlimit:10;}
	.st28{fill:none;stroke:#F15A24;stroke-width:1.12043;stroke-miterlimit:10;}
	.st29{fill:#FFFFFF;}
	.st30{fill:none;stroke:#5D5D5D;stroke-miterlimit:10;}
	.st31{fill:#9A9A9A;}
	.st32{fill:#999999;}
	.st33{fill:none;}
	.st34{fill:#1A1A1A;}
	.st35{fill:#CCCCCC;}
	.st36{fill:none;stroke:#B3B3B3;stroke-width:2.24085;stroke-linecap:round;stroke-linejoin:round;}
	.st37{fill:none;stroke:#B3B3B3;stroke-width:2.24085;stroke-linecap:round;stroke-linejoin:round;stroke-dasharray:0,5.5724;}
	.st38{fill:none;stroke:#808080;stroke-width:1.12043;stroke-linecap:round;stroke-linejoin:round;}
	.st39{fill:none;stroke:#B3B3B3;stroke-width:2;stroke-linecap:round;stroke-linejoin:round;}
	.st40{fill:none;stroke:#B3B3B3;stroke-width:2;stroke-linecap:round;stroke-linejoin:round;stroke-dasharray:0,4.97347;}
	.st41{fill:none;stroke:#808080;stroke-linecap:round;stroke-linejoin:round;}
	.st42{display:none;}
	.st43{display:inline;}
	.st44{fill:#6EA8AB;}
	.st45{fill:#809B49;}
	.st46{fill:#818AB9;}
</style>
<g id="Infog">
	<g>
		<g>
			<path class="st9" d="M184.69237,457.04926c0,2.75-2.20117,4.9502-5.54492,4.9502c-3.34473,0-5.54492-2.2002-5.54492-4.9502
				c0-1.73828,0.94629-3.08105,2.24414-3.93848c-0.79199-0.72656-1.36426-1.69434-1.36426-2.81641
				c0-2.35449,2.0459-4.26855,4.66504-4.26855c2.5957,0,4.66406,1.91406,4.66406,4.26855c0,1.12207-0.57129,2.08984-1.38574,2.81641
				C183.72362,453.9682,184.69237,455.31097,184.69237,457.04926z M181.96385,457.04926c0-1.36426-1.18848-2.39844-2.81641-2.39844
				c-1.62891,0-2.83887,1.03418-2.83887,2.39844s1.20996,2.39844,2.83887,2.39844
				C180.77538,459.44769,181.96385,458.41351,181.96385,457.04926z M177.18846,450.29437c0,1.09961,1.0127,1.69434,1.95898,1.69434
				s1.93555-0.59473,1.93555-1.69434c0-1.12207-0.98926-1.7168-1.93555-1.7168S177.18846,449.1723,177.18846,450.29437z"/>
			<path class="st9" d="M212.36815,454.84906v6.97461h-2.28809v-6.20508c0-1.78223-0.79199-2.9707-2.22266-2.9707
				c-1.75977,0-2.86035,1.80469-2.96973,4.13672v5.03906h-2.28906v-6.20508c0-1.78223-0.76953-2.9707-2.22168-2.9707
				c-1.76074,0-2.86035,1.80469-2.9707,4.13672v5.03906h-2.28809v-11.13379h2.15625l0.11035,1.73828
				c0.96777-1.12207,2.24414-1.95801,3.84961-1.95801c1.67285,0,2.79492,0.90234,3.32324,2.33203
				c1.01172-1.29785,2.37598-2.33203,4.1582-2.33203C211.09178,450.47015,212.36815,452.27386,212.36815,454.84906z"/>
			<path class="st9" d="M225.89745,450.68988v11.13379h-2.15625l-0.11035-1.78223c-1.05566,1.12207-2.48633,2.00195-4.29102,2.00195
				c-2.61816,0-4.0918-1.71582-4.0918-4.81836v-6.53516h2.28809v5.52344c0,2.68359,1.07812,3.65234,2.68457,3.65234
				c2.28809,0,3.38867-1.89258,3.38867-3.63086v-5.54492H225.89745z"/>
			<path class="st9" d="M231.37401,461.82367h-2.28809v-16.50195h2.28809V461.82367z"/>
			<path class="st9" d="M240.26268,452.86859h-2.37598v8.95508h-2.31055v-8.95508h-1.65039v-2.17871h1.65039v-3.30078h2.31055
				v3.30078h2.37598V452.86859z"/>
			<path class="st9" d="M242.59373,447.74164c0-0.68164,0.55078-1.23242,1.23242-1.23242c0.68262,0,1.23242,0.55078,1.23242,1.23242
				s-0.5498,1.23242-1.23242,1.23242C243.14452,448.97406,242.59373,448.42328,242.59373,447.74164z M244.97069,461.82367h-2.28809
				v-11.13379h2.28809V461.82367z"/>
			<path class="st9" d="M248.33592,450.68988h2.15625l0.13184,2.28809c0.66016-1.4082,2.24414-2.50781,4.24707-2.50781
				c3.19041,0,5.58885,2.59668,5.58885,5.78711s-2.39844,5.78613-5.58885,5.78613c-2.00293,0-3.58691-1.09961-4.24707-2.53027
				v7.37109h-2.28809V450.68988z M254.49706,459.86566c2.08983,0,3.65233-1.62891,3.65233-3.6084
				c0-1.98047-1.5625-3.60938-3.65233-3.60938c-2.09082,0-3.60938,1.62891-3.60938,3.60938
				C250.88768,458.23676,252.40623,459.86566,254.49706,459.86566z"/>
			<path class="st9" d="M265.27634,461.82367h-2.28809v-16.50195h2.28809V461.82367z"/>
			<path class="st9" d="M268.2236,447.74164c0-0.68164,0.55078-1.23242,1.23242-1.23242c0.68262,0,1.23242,0.55078,1.23242,1.23242
				s-0.5498,1.23242-1.23242,1.23242C268.77438,448.97406,268.2236,448.42328,268.2236,447.74164z M270.60056,461.82367h-2.28809
				v-11.13379h2.28809V461.82367z"/>
			<path class="st9" d="M279.5986,452.64789c-1.89258,0-3.6748,1.49707-3.6748,3.60938s1.78223,3.6084,3.6748,3.6084
				c1.14453,0,2.13379-0.41797,3.01465-1.27637v2.22266c-0.79199,0.74805-1.93652,1.23145-3.36719,1.23145
				c-3.27832,0-5.74219-2.63965-5.74219-5.78613c0-3.125,2.46387-5.78711,5.74219-5.78711c1.43066,0,2.5752,0.48438,3.36719,1.23242
				v2.2002C281.73239,453.04437,280.74313,452.64789,279.5986,452.64789z"/>
			<path class="st9" d="M290.53317,450.47015c2.00195,0,3.58594,1.09961,4.22461,2.50781l0.13184-2.28809h2.17871v11.13379h-2.17871
				l-0.13184-2.31055c-0.63867,1.43066-2.22266,2.53027-4.22461,2.53027c-3.19043,0-5.58887-2.5957-5.58887-5.78613
				S287.34274,450.47015,290.53317,450.47015z M290.9072,459.86566c2.06836,0,3.6084-1.62891,3.6084-3.6084
				c0-1.98047-1.54004-3.60938-3.6084-3.60938c-2.1123,0-3.6748,1.62891-3.6748,3.60938
				C287.23239,458.23676,288.79489,459.86566,290.9072,459.86566z"/>
			<path class="st9" d="M306.0654,452.86859h-2.37598v8.95508h-2.31055v-8.95508h-1.65039v-2.17871h1.65039v-3.30078h2.31055
				v3.30078h2.37598V452.86859z"/>
			<path class="st9" d="M308.39548,447.74164c0-0.68164,0.55078-1.23242,1.23242-1.23242c0.68262,0,1.23242,0.55078,1.23242,1.23242
				s-0.5498,1.23242-1.23242,1.23242C308.94626,448.97406,308.39548,448.42328,308.39548,447.74164z M310.77243,461.82367h-2.28809
				v-11.13379h2.28809V461.82367z"/>
			<path class="st9" d="M313.67673,456.25726c0-3.19043,2.50781-5.78711,5.96289-5.78711c3.41016,0,5.89648,2.59668,5.89648,5.78711
				s-2.48633,5.78613-5.89648,5.78613C316.18454,462.0434,313.67673,459.44769,313.67673,456.25726z M323.24802,456.25726
				c0-1.98047-1.54004-3.60938-3.6084-3.60938c-2.1123,0-3.6748,1.62891-3.6748,3.60938c0,1.97949,1.5625,3.6084,3.6748,3.6084
				C321.70798,459.86566,323.24802,458.23676,323.24802,456.25726z"/>
			<path class="st9" d="M338.84567,455.28851v6.53516h-2.28809v-5.52246c0-2.68457-1.07812-3.65332-2.68457-3.65332
				c-2.17871,0-3.27832,1.7168-3.38867,3.36719v5.80859h-2.28809v-11.13379h2.15625l0.11035,1.78223
				c1.05566-1.12207,2.48633-2.00195,4.29004-2.00195C337.37106,450.47015,338.84567,452.18597,338.84567,455.28851z"/>
			<path class="st9" d="M343.707,458.58929c0.21973,0.90234,1.14453,1.51855,2.57422,1.51855
				c1.12207,0,2.02441-0.44043,2.02441-1.23242c0-1.05664-1.01172-1.29883-3.30078-2.09082
				c-1.75977-0.57129-3.23438-1.42969-3.23438-3.23438c0-1.91406,1.93652-3.08008,3.93848-3.08008
				c2.5752,0,4.15918,1.45215,4.26855,3.27832h-2.30957c-0.08789-0.92383-1.0127-1.36426-1.87012-1.36426
				c-0.81445,0-1.7168,0.39648-1.7168,1.16602c0,0.87988,0.94629,1.07812,3.23438,1.93652
				c2.2666,0.79199,3.30078,1.89258,3.30078,3.43262c0,1.98047-1.91406,3.12402-4.37891,3.12402
				c-2.68457,0-4.59863-1.16602-4.81836-3.4541H343.707z"/>
		</g>
	</g>
	<path class="st4" d="M156.03577,88.14696H99.19735c-8.76501,0-15.87045-7.10544-15.87045-15.87044v-0.00004
		c0-8.765,7.10544-15.87044,15.87045-15.87044h56.83842c8.765,0,15.87044,7.10544,15.87044,15.87044v0.00004
		C171.9062,81.04152,164.80077,88.14696,156.03577,88.14696z"/>
	<path class="st10" d="M458.88535,138.85635h-69.20084c-7.80762,0-14.13693-6.32933-14.13693-14.13695V63.76341
		c0-7.80762,6.32932-14.13694,14.13693-14.13694h69.20084c7.80762,0,14.13693,6.32932,14.13693,14.13694v60.95599
		C473.02228,132.52702,466.69296,138.85635,458.88535,138.85635z"/>
	<path class="st16" d="M156.03577,131.69846H99.19735c-8.76501,0-15.87045-7.10545-15.87045-15.87045v-0.00004
		c0-8.765,7.10544-15.87044,15.87045-15.87044h56.83842c8.765,0,15.87044,7.10544,15.87044,15.87044v0.00004
		C171.9062,124.59301,164.80077,131.69846,156.03577,131.69846z"/>
	<path class="st17" d="M312.46454,66.00212v56.83842c0,8.76501-7.10544,15.87045-15.87045,15.87045h-0.00003
		c-8.76498,0-15.87042-7.10544-15.87042-15.87045V66.00212c0-8.76501,7.10544-15.87045,15.87042-15.87045h0.00003
		C305.3591,50.13168,312.46454,57.23711,312.46454,66.00212z"/>
	<path class="st10" d="M445.72501,227.0712v176.44855c0,11.64169-9.43744,21.07913-21.07913,21.07913h-0.00003
		c-11.64169,0-21.07913-9.43744-21.07913-21.07913V227.0712c0-11.64168,9.43744-21.07913,21.07913-21.07913h0.00003
		C436.28757,205.99207,445.72501,215.42952,445.72501,227.0712z"/>
	<path class="st18" d="M263.56906,66.00212v56.83842c0,8.76501-7.10544,15.87045-15.87044,15.87045h-0.00003
		c-8.765,0-15.87044-7.10544-15.87044-15.87045V66.00212c0-8.76501,7.10544-15.87045,15.87044-15.87045h0.00003
		C256.46362,50.13168,263.56906,57.23711,263.56906,66.00212z"/>
	<polygon class="st7" points="207.05829,97.29638 201.90088,92.13898 207.05823,86.98164 206.2686,86.19201 201.11125,91.34935 
		195.95392,86.19201 195.16422,86.9817 200.32156,92.13905 195.16422,97.29638 195.95386,98.08601 201.11119,92.92867 
		206.2686,98.08607 	"/>
	<g>
		<g>
			<path class="st8" d="M132.58299,28.9643h-6.59961l-1.3457,3.72608h-2.42383l5.74609-15.93653h2.64844l5.74609,15.93653h-2.42383
				L132.58299,28.9643z M131.79784,26.74213l-2.51367-6.93555l-2.49219,6.93555H131.79784z"/>
		</g>
	</g>
	<g>
		<g>
			<path class="st8" d="M278.99313,28.17866c0,2.89551-2.17578,4.51172-5.61133,4.51172h-5.11719V16.75385h4.78125
				c3.32227,0,5.05078,1.75098,5.05078,4.21973c0,1.36914-0.65234,2.4917-1.68359,3.20996
				C277.89352,24.96918,278.99313,26.36078,278.99313,28.17866z M270.5986,23.21821h2.44727
				c1.72852,0,2.69336-0.65088,2.69336-2.13232c0-1.36914-0.96484-2.10986-2.69336-2.10986h-2.44727V23.21821z M276.63766,28.04389
				c0-1.52588-1.09961-2.60352-3.14258-2.60352h-2.89648v5.02783h2.7832C275.53806,30.46821,276.63766,29.59272,276.63766,28.04389z
				"/>
		</g>
	</g>
	<g>
		<polyline class="st11" points="83.14236,138.9326 76.68346,138.9326 76.68346,48.13882 83.14236,48.13882 		"/>
		<rect x="76.68346" y="48.16762" class="st2" width="1.62903" height="90.70738"/>
	</g>
	<g>
		<polyline class="st11" points="227.08372,138.9326 220.62482,138.9326 220.62482,48.13882 227.08372,48.13882 		"/>
		<rect x="220.62482" y="48.16762" class="st2" width="1.62903" height="90.70738"/>
	</g>
	<g>
		<polyline class="st11" points="318.20813,48.13882 324.66705,48.13882 324.66705,138.9326 318.20813,138.9326 		"/>
		<rect x="323.03802" y="48.16762" class="st17" width="1.62903" height="90.70738"/>
	</g>
	<g>
		<polyline class="st11" points="371.90933,138.9326 365.45044,138.9326 365.45044,48.13882 371.90933,48.13882 		"/>
		<rect x="365.45044" y="48.16762" class="st2" width="1.62903" height="90.70738"/>
	</g>
	<g>
		<polyline class="st11" points="475.93906,48.13882 482.39795,48.13882 482.39795,138.9326 475.93906,138.9326 		"/>
		<rect x="480.76892" y="48.16762" class="st2" width="1.62903" height="90.70738"/>
	</g>
	<g>
		<polyline class="st11" points="174.26678,48.13882 180.72569,48.13882 180.72569,138.9326 174.26678,138.9326 		"/>
		<rect x="179.09666" y="48.16762" class="st2" width="1.62903" height="90.70738"/>
	</g>
	<g>
		
			<rect x="344.26709" y="86.86038" transform="matrix(6.123234e-17 -1 1 6.123234e-17 250.62277 438.96072)" class="st7" width="1.04932" height="14.61719"/>
		
			<rect x="344.26709" y="82.1909" transform="matrix(6.123234e-17 -1 1 6.123234e-17 255.29225 434.29123)" class="st7" width="1.04932" height="14.61719"/>
	</g>
	<path class="st4" d="M179.08862,245.99197h-0.00003c-8.765,0-15.87044-7.10544-15.87044-15.87045v-0.00003
		c0-8.765,7.10544-15.87044,15.87044-15.87044h0.00003c8.765,0,15.87044,7.10544,15.87044,15.87044v0.00003
		C194.95906,238.88654,187.85362,245.99197,179.08862,245.99197z"/>
	<path class="st17" d="M235.95776,245.99197h-0.00003c-8.765,0-15.87044-7.10544-15.87044-15.87045v-0.00003
		c0-8.765,7.10544-15.87044,15.87044-15.87044h0.00003c8.76501,0,15.87045,7.10544,15.87045,15.87044v0.00003
		C251.82822,238.88654,244.72278,245.99197,235.95776,245.99197z"/>
	<path class="st4" d="M293.21136,245.99197h-0.00003c-8.76498,0-15.87042-7.10544-15.87042-15.87045v-0.00003
		c0-8.765,7.10544-15.87044,15.87042-15.87044h0.00003c8.76501,0,15.87045,7.10544,15.87045,15.87044v0.00003
		C309.08182,238.88654,301.97638,245.99197,293.21136,245.99197z"/>
	<path class="st17" d="M350.58032,245.99197h-0.00003c-8.76501,0-15.87045-7.10544-15.87045-15.87045v-0.00003
		c0-8.765,7.10544-15.87044,15.87045-15.87044h0.00003c8.76498,0,15.87042,7.10544,15.87042,15.87044v0.00003
		C366.45074,238.88654,359.34531,245.99197,350.58032,245.99197z"/>
	<polygon class="st13" points="213.73611,235.8867 208.5787,230.72929 213.73605,225.57196 212.94641,224.78233 
		207.78908,229.93967 202.63174,224.78233 201.84204,225.57202 206.99939,230.72937 201.84204,235.8867 202.63167,236.67633 
		207.78902,231.519 212.94641,236.67639 	"/>
	<polygon class="st13" points="328.21231,235.8867 323.0549,230.72929 328.21222,225.57196 327.42261,224.78233 
		322.26526,229.93967 317.10794,224.78233 316.31824,225.57202 321.47559,230.72937 316.31824,235.8867 317.10785,236.67633 
		322.2652,231.519 327.42261,236.67639 	"/>
	
		<rect x="384.62057" y="225.4507" transform="matrix(6.123234e-17 -1 1 6.123234e-17 152.38594 617.90454)" class="st3" width="1.04932" height="14.61719"/>
	
		<rect x="384.62057" y="220.78122" transform="matrix(6.123234e-17 -1 1 6.123234e-17 157.05542 613.23505)" class="st3" width="1.04932" height="14.61719"/>
	<g>
		<g>
			<line class="st14" x1="208.37036" y1="444.04187" x2="208.37036" y2="420.76703"/>
			<g>
				<polygon class="st9" points="212.46021,424.08051 211.72778,424.76263 208.37134,421.15085 205.01392,424.76263 
					204.28149,424.08051 208.37134,419.68256 				"/>
			</g>
		</g>
	</g>
	<g>
		<g>
			<line class="st14" x1="322.04718" y1="444.04187" x2="322.04718" y2="420.76703"/>
			<g>
				<polygon class="st9" points="326.13702,424.08051 325.4046,424.76263 322.04816,421.15085 318.69073,424.76263 
					317.95831,424.08051 322.04816,419.68256 				"/>
			</g>
		</g>
	</g>
	<path class="st4" d="M178.52731,301.66135h-0.00003c-8.765,0-15.87045-7.10544-15.87045-15.87042v-0.00003
		c0-8.76501,7.10545-15.87045,15.87045-15.87045h0.00003c8.765,0,15.87044,7.10544,15.87044,15.87045v0.00003
		C194.39775,294.55591,187.29231,301.66135,178.52731,301.66135z"/>
	<path class="st18" d="M235.95776,301.66135h-0.00003c-8.765,0-15.87044-7.10544-15.87044-15.87042v-0.00003
		c0-8.76501,7.10544-15.87045,15.87044-15.87045h0.00003c8.76501,0,15.87045,7.10544,15.87045,15.87045v0.00003
		C251.82822,294.55591,244.72278,301.66135,235.95776,301.66135z"/>
	<path class="st4" d="M293.21136,301.66135h-0.00003c-8.76498,0-15.87042-7.10544-15.87042-15.87042v-0.00003
		c0-8.76501,7.10544-15.87045,15.87042-15.87045h0.00003c8.76501,0,15.87045,7.10544,15.87045,15.87045v0.00003
		C309.08182,294.55591,301.97638,301.66135,293.21136,301.66135z"/>
	<path class="st18" d="M350.58032,301.66135h-0.00003c-8.76501,0-15.87045-7.10544-15.87045-15.87042v-0.00003
		c0-8.76501,7.10544-15.87045,15.87045-15.87045h0.00003c8.76498,0,15.87042,7.10544,15.87042,15.87045v0.00003
		C366.45074,294.55591,359.34531,301.66135,350.58032,301.66135z"/>
	<polygon class="st13" points="213.73611,292.05609 208.5787,286.89868 213.73605,281.74136 212.94641,280.95172 
		207.78908,286.10907 202.63174,280.95172 201.84204,281.74142 206.99939,286.89874 201.84204,292.05609 202.63167,292.84573 
		207.78902,287.68839 212.94641,292.84579 	"/>
	<polygon class="st13" points="328.21231,292.05609 323.0549,286.89868 328.21222,281.74136 327.42261,280.95172 
		322.26526,286.10907 317.10794,280.95172 316.31824,281.74142 321.47559,286.89874 316.31824,292.05609 317.10785,292.84573 
		322.2652,287.68839 327.42261,292.84579 	"/>
	
		<rect x="384.62057" y="281.62009" transform="matrix(6.123234e-17 -1 1 6.123234e-17 96.21655 674.07391)" class="st3" width="1.04932" height="14.61719"/>
	
		<rect x="384.62057" y="276.95062" transform="matrix(6.123234e-17 -1 1 6.123234e-17 100.88602 669.40442)" class="st3" width="1.04932" height="14.61719"/>
	<path class="st16" d="M178.52731,414.00024h-0.00003c-8.765,0-15.87045-7.10544-15.87045-15.87042v-0.00003
		c0-8.76501,7.10545-15.87045,15.87045-15.87045h0.00003c8.765,0,15.87044,7.10544,15.87044,15.87045v0.00003
		C194.39775,406.89481,187.29231,414.00024,178.52731,414.00024z"/>
	<path class="st17" d="M235.95776,414.00024h-0.00003c-8.765,0-15.87044-7.10544-15.87044-15.87042v-0.00003
		c0-8.76501,7.10544-15.87045,15.87044-15.87045h0.00003c8.76501,0,15.87045,7.10544,15.87045,15.87045v0.00003
		C251.82822,406.89481,244.72278,414.00024,235.95776,414.00024z"/>
	<path class="st16" d="M293.21136,414.00024h-0.00003c-8.76498,0-15.87042-7.10544-15.87042-15.87042v-0.00003
		c0-8.76501,7.10544-15.87045,15.87042-15.87045h0.00003c8.76501,0,15.87045,7.10544,15.87045,15.87045v0.00003
		C309.08182,406.89481,301.97638,414.00024,293.21136,414.00024z"/>
	<path class="st17" d="M350.58032,414.00024h-0.00003c-8.76501,0-15.87045-7.10544-15.87045-15.87042v-0.00003
		c0-8.76501,7.10544-15.87045,15.87045-15.87045h0.00003c8.76498,0,15.87042,7.10544,15.87042,15.87045v0.00003
		C366.45074,406.89481,359.34531,414.00024,350.58032,414.00024z"/>
	<polygon class="st13" points="213.73611,404.39499 208.5787,399.23758 213.73605,394.08023 212.94641,393.29062 
		207.78908,398.44797 202.63174,393.29062 201.84204,394.08032 206.99939,399.23764 201.84204,404.39499 202.63167,405.1846 
		207.78902,400.02728 212.94641,405.18469 	"/>
	<polygon class="st13" points="328.21231,404.39499 323.0549,399.23758 328.21222,394.08023 327.42261,393.29062 
		322.26526,398.44797 317.10794,393.29062 316.31824,394.08032 321.47559,399.23764 316.31824,404.39499 317.10785,405.1846 
		322.2652,400.02728 327.42261,405.18469 	"/>
	
		<rect x="384.62057" y="393.95898" transform="matrix(6.123234e-17 -1 1 6.123234e-17 -16.12234 786.41284)" class="st3" width="1.04932" height="14.61719"/>
	
		<rect x="384.62057" y="389.28952" transform="matrix(6.123234e-17 -1 1 6.123234e-17 -11.45286 781.74335)" class="st3" width="1.04932" height="14.61719"/>
	<path class="st16" d="M178.52731,357.83105h-0.00003c-8.765,0-15.87045-7.10544-15.87045-15.87042v-0.00006
		c0-8.76498,7.10545-15.87042,15.87045-15.87042h0.00003c8.765,0,15.87044,7.10544,15.87044,15.87042v0.00006
		C194.39775,350.72562,187.29231,357.83105,178.52731,357.83105z"/>
	<path class="st18" d="M235.95776,357.83105h-0.00003c-8.765,0-15.87044-7.10544-15.87044-15.87042v-0.00006
		c0-8.76498,7.10544-15.87042,15.87044-15.87042h0.00003c8.76501,0,15.87045,7.10544,15.87045,15.87042v0.00006
		C251.82822,350.72562,244.72278,357.83105,235.95776,357.83105z"/>
	<path class="st16" d="M293.21136,357.83105h-0.00003c-8.76498,0-15.87042-7.10544-15.87042-15.87042v-0.00006
		c0-8.76498,7.10544-15.87042,15.87042-15.87042h0.00003c8.76501,0,15.87045,7.10544,15.87045,15.87042v0.00006
		C309.08182,350.72562,301.97638,357.83105,293.21136,357.83105z"/>
	<path class="st18" d="M350.58032,357.83105h-0.00003c-8.76501,0-15.87045-7.10544-15.87045-15.87042v-0.00006
		c0-8.76498,7.10544-15.87042,15.87045-15.87042h0.00003c8.76498,0,15.87042,7.10544,15.87042,15.87042v0.00006
		C366.45074,350.72562,359.34531,357.83105,350.58032,357.83105z"/>
	<polygon class="st13" points="213.73611,348.2258 208.5787,343.06839 213.73605,337.91104 212.94641,337.12143 
		207.78908,342.27875 202.63174,337.12143 201.84204,337.9111 206.99939,343.06845 201.84204,348.2258 202.63167,349.01541 
		207.78902,343.85809 212.94641,349.0155 	"/>
	<polygon class="st13" points="328.21231,348.2258 323.0549,343.06839 328.21222,337.91104 327.42261,337.12143 
		322.26526,342.27875 317.10794,337.12143 316.31824,337.9111 321.47559,343.06845 316.31824,348.2258 317.10785,349.01541 
		322.2652,343.85809 327.42261,349.0155 	"/>
	
		<rect x="384.62057" y="337.78979" transform="matrix(6.123234e-17 -1 1 6.123234e-17 40.04685 730.24365)" class="st3" width="1.04932" height="14.61719"/>
	
		<rect x="384.62057" y="333.1203" transform="matrix(6.123234e-17 -1 1 6.123234e-17 44.71633 725.57416)" class="st3" width="1.04932" height="14.61719"/>
	<g>
		<g>
			<path class="st15" d="M423.1178,163.6266c-0.56897-0.00494-0.15894-0.00989-0.28644-0.01483l-0.00214-0.01483l-0.00421-0.02966
				l-0.00836-0.05925l-0.0166-0.11829l-0.03265-0.23575c-0.0293-0.15553-0.02472-0.31584-0.08014-0.46574
				c-0.11322-0.29723-0.16449-0.61064-0.32092-0.88852c-0.26587-0.57166-0.61401-1.10641-1.04095-1.57948
				c-0.84723-0.95302-1.91412-1.71445-3.06311-2.31322c-1.15289-0.59749-2.37317-1.06937-3.62769-1.43642
				c-1.26654-0.32768-2.54883-0.60648-3.85583-0.73177c-0.64832-0.09312-1.30774-0.09795-1.95947-0.15216
				c-0.66083,0.00269-1.30011-0.03352-1.97632-0.02501l-4.04242,0.02649l-8.08484,0.05298l-8.08484-0.04695l-4.04242-0.0275
				c-1.33032-0.01312-2.73065,0.00424-4.10809-0.18193c-1.3772-0.15334-2.74512-0.40939-4.07721-0.80583
				c-1.33417-0.38034-2.64185-0.88248-3.86469-1.56738c-1.21277-0.6926-2.36157-1.54437-3.26831-2.64526
				c-0.23315-0.26892-0.44452-0.5553-0.61969-0.87126c-0.2027-0.29524-0.34888-0.62511-0.4812-0.96091
				c-0.15985-0.32269-0.20343-0.69107-0.29193-1.03683c-0.05286-0.1722-0.04102-0.35654-0.05524-0.5349l-0.0127-0.26854
				l-0.00598-0.13382l-0.00293-0.06679l-0.00146-0.03337l-0.00073-0.01668c0.12665-0.00555-0.28436-0.01111,0.28369-0.01666
				c0.56903,0.00493,0.15894,0.00986,0.2865,0.01479l0.00214,0.01477l0.00427,0.02954l0.00848,0.05902l0.01678,0.1178
				l0.03284,0.2347c0.0271,0.1552,0.02649,0.31407,0.08972,0.4619c0.10938,0.29677,0.16595,0.60657,0.33661,0.87802
				c0.13635,0.28351,0.27875,0.56192,0.47906,0.81142c0.16968,0.26607,0.37494,0.50754,0.6012,0.73409
				c0.87396,0.92686,1.97534,1.63847,3.13824,2.20169c1.15594,0.58478,2.40015,1.00755,3.66962,1.31233
				c1.26593,0.3214,2.5672,0.50983,3.87238,0.60069c2.57843,0.14307,5.33026,0.03395,8.01105,0.04045l8.08484-0.04695
				l8.08484,0.05298l4.04242,0.02649c0.67133,0.00453,1.37872,0.03452,2.06476,0.06915c0.68829,0.08308,1.38,0.11775,2.0625,0.24226
				c2.73383,0.4126,5.43488,1.21803,7.854,2.63306c1.19379,0.72507,2.30634,1.62621,3.18036,2.74879
				c0.43829,0.55736,0.79846,1.18526,1.05182,1.85638c0.1449,0.32695,0.18237,0.69588,0.27454,1.03844
				c0.04517,0.17291,0.02942,0.35727,0.04614,0.53441l0.01294,0.26749l0.00616,0.13335l0.00305,0.06654l0.00146,0.03326
				l0.00079,0.01662C423.27484,163.61554,423.68585,163.62108,423.1178,163.6266z"/>
		</g>
		<g>
			<path class="st15" d="M422.7229,163.6266c-0.56805-0.00552-0.15704-0.01106-0.28363-0.0166l0.00073-0.01662l0.00146-0.03326
				l0.00305-0.06654l0.00616-0.13335l0.01294-0.26749c0.01672-0.17714,0.00098-0.3615,0.04614-0.53441
				c0.09222-0.34256,0.1297-0.71149,0.27454-1.03844c0.25336-0.67113,0.61353-1.29903,1.05182-1.85638
				c0.87402-1.12259,1.98657-2.02373,3.18036-2.74879c2.41913-1.41502,5.12018-2.22046,7.854-2.63306
				c0.6825-0.12451,1.37427-0.15918,2.0625-0.24226c0.68604-0.03464,1.39343-0.06462,2.06476-0.06915l4.04242-0.02649
				l8.08484-0.05298l8.08484,0.04695c2.68079-0.0065,5.43262,0.10262,8.01105-0.04045
				c1.30518-0.09087,2.60645-0.2793,3.87238-0.60069c1.26947-0.30478,2.51367-0.72755,3.66962-1.31233
				c1.1629-0.56322,2.26428-1.27483,3.13824-2.20169c0.22626-0.22655,0.43152-0.46802,0.6012-0.73409
				c0.20032-0.2495,0.34271-0.52791,0.47906-0.81142c0.17072-0.27145,0.22723-0.58125,0.33667-0.87802
				c0.06317-0.14783,0.06262-0.3067,0.08966-0.4619l0.0329-0.2347l0.01678-0.1178l0.00842-0.05902l0.00427-0.02954l0.00214-0.01477
				c0.12756-0.00493-0.28247-0.00986,0.2865-0.01479c0.56805,0.00555,0.15704,0.01111,0.28369,0.01666l-0.00073,0.01668
				l-0.00146,0.03337l-0.00293,0.06679l-0.00598,0.13382l-0.0127,0.26854c-0.01422,0.17836-0.00232,0.3627-0.05524,0.5349
				c-0.0885,0.34576-0.13208,0.71414-0.29193,1.03683c-0.13232,0.3358-0.2785,0.66566-0.4812,0.96091
				c-0.17517,0.31596-0.38647,0.60234-0.61969,0.87126c-0.90668,1.10089-2.05554,1.95267-3.26831,2.64526
				c-1.22284,0.68491-2.53052,1.18704-3.86469,1.56738c-1.33209,0.39644-2.70001,0.6525-4.07721,0.80583
				c-1.37738,0.18617-2.77777,0.16881-4.10803,0.18193l-4.04248,0.0275l-8.08484,0.04695l-8.08484-0.05298l-4.04242-0.02649
				c-0.67621-0.00851-1.31549,0.02769-1.97632,0.02501c-0.65173,0.05421-1.3111,0.05904-1.95941,0.15216
				c-1.30707,0.12529-2.58936,0.40408-3.8559,0.73177c-1.25446,0.36705-2.47473,0.83893-3.62769,1.43642
				c-1.14899,0.59877-2.21588,1.3602-3.06305,2.31322c-0.427,0.47307-0.77515,1.00783-1.04102,1.57948
				c-0.15643,0.27788-0.2077,0.59129-0.32092,0.88852c-0.05542,0.1499-0.05084,0.31021-0.08014,0.46574l-0.03265,0.23575
				l-0.0166,0.11829l-0.00836,0.05925l-0.00421,0.02966l-0.00214,0.01483
				C422.88184,163.61671,423.29187,163.62166,422.7229,163.6266z"/>
		</g>
	</g>
	<g>
		<g>
			<line class="st39" x1="42.66299" y1="183.86368" x2="42.66299" y2="183.86368"/>
			<line class="st40" x1="47.63644" y1="183.86368" x2="507.6821" y2="183.86368"/>
			<line class="st39" x1="510.16891" y1="183.86368" x2="510.16891" y2="183.86368"/>
		</g>
	</g>
	<rect x="417.83347" y="180.24725" class="st29" width="10.52053" height="7.8904"/>
	<g>
		<g>
			<line class="st41" x1="423.07623" y1="206.20798" x2="423.07623" y2="169.96921"/>
			<g>
				<polygon class="st8" points="427.16608,173.28268 426.43365,173.96481 423.07721,170.353 419.71979,173.96481 
					418.98737,173.28268 423.07721,168.8847 				"/>
			</g>
		</g>
	</g>
</g>
<g id="Arrows" class="st42">
	<g class="st43">
		<g>
			<g>
				<path class="st41" d="M127.75185,55.09682c0,0,60.97034-64.01882,155.99779-7.57137"/>
				<g>
					<polygon class="st8" points="278.83887,49.46676 278.60754,48.49299 283.40588,47.35871 281.92383,42.65537 
						282.87878,42.35549 284.6825,48.08399 					"/>
				</g>
			</g>
		</g>
		<g>
			<g>
				<path class="st41" d="M127.75185,56.41189c0,0,50.70422-36.40305,107.29932-8.80989"/>
				<g>
					<polygon class="st8" points="230.31117,49.93095 230.00246,48.97886 234.69447,47.46345 232.8401,42.89411 233.76784,42.51862 
						236.02516,48.08402 					"/>
				</g>
			</g>
		</g>
		<circle class="st44" cx="127.09431" cy="57.06942" r="4.16438"/>
	</g>
	<g class="st43">
		<g>
			<g>
				<path class="st41" d="M127.75185,133.11722c0,0,60.97034,64.0188,155.99779,7.57135"/>
				<g>
					<polygon class="st8" points="282.87927,145.85938 281.92432,145.55949 283.40686,140.85703 278.60803,139.72189 
						278.83936,138.74811 284.68347,140.13174 					"/>
				</g>
			</g>
		</g>
		<g>
			<g>
				<path class="st41" d="M127.75185,131.80214c0,0,50.70422,36.40306,107.29932,8.80989"/>
				<g>
					<polygon class="st8" points="233.76833,145.69629 232.84047,145.3208 234.69533,140.75235 230.00294,139.23605 
						230.31154,138.28397 236.02602,140.13177 					"/>
				</g>
			</g>
		</g>
		<circle class="st46" cx="127.09431" cy="131.14462" r="4.16438"/>
	</g>
</g>
<g id="numbers">
	<g>
		<g>
			<path class="st7" d="M184.43846,236.41498v1.90967h-9.80664v-1.90967h3.88867v-12.32959l-3.22852,0.80176v-2.02734
				l5.25586-1.27344v14.82861H184.43846z"/>
			<path class="st7" d="M241.53612,232.85541c0,3.08838-2.52148,5.70508-5.89453,5.70508c-3.41797,0-5.93945-2.6167-5.93945-5.70508
				c0-1.15527,0.35352-2.26318,0.99023-3.18262l5.2793-8.08643h2.33398l-3.74805,5.63477
				c0.35352-0.04736,0.70703-0.09473,1.08398-0.09473C239.01463,227.1264,241.53612,229.79047,241.53612,232.85541z
				 M239.53221,232.85541c0-2.02734-1.67383-3.81934-3.89062-3.81934c-2.26172,0-3.91211,1.79199-3.91211,3.81934
				s1.65039,3.79541,3.91211,3.79541C237.85838,236.65082,239.53221,234.88275,239.53221,232.85541z"/>
			<path class="st7" d="M263.53806,236.7016v-5.74414h-5.73242v-0.94385h5.73242v-5.72119h0.91992v5.72119h5.75586v0.94385h-5.75586
				v5.74414H263.53806z"/>
			<path class="st7" d="M288.80368,236.41498h9.59375v1.90967H286.7529v-1.90967c0-4.90332,9.61719-5.49268,9.61719-9.90137
				c0-1.88574-1.46094-3.25342-3.46484-3.25342c-2.47461,0-4.125,1.50879-4.125,3.5127h-2.02734
				c0-3.01758,2.54492-5.42188,6.17578-5.42188c3.11133,0,5.46875,2.07422,5.46875,5.2334
				C298.39743,232.36029,288.80368,232.97308,288.80368,236.41498z"/>
			<path class="st7" d="M355.80368,233.3974c0,2.87646-2.35742,5.06885-5.82422,5.06885c-3.46484,0-5.82227-2.19238-5.82227-5.06885
				c0-1.95654,1.15625-3.46533,2.73438-4.31396c-1.03711-0.75439-1.79102-1.88623-1.79102-3.27686
				c0-2.56982,2.26367-4.36133,4.87891-4.36133c2.61719,0,4.88086,1.7915,4.88086,4.36133
				c0,1.39062-0.77734,2.52246-1.81445,3.27686C354.64743,229.93207,355.80368,231.44086,355.80368,233.3974z M353.77634,233.3974
				c0-1.8623-1.65039-3.15869-3.79688-3.15869c-2.16797,0-3.79492,1.29639-3.79492,3.15869s1.62695,3.15918,3.79492,3.15918
				C352.12595,236.55658,353.77634,235.2597,353.77634,233.3974z M347.1279,225.80658c0,1.62646,1.50781,2.42822,2.85156,2.42822
				s2.85352-0.80176,2.85352-2.42822c0-1.62695-1.50977-2.45215-2.85352-2.45215S347.1279,224.17963,347.1279,225.80658z"/>
		</g>
	</g>
	<g>
		<g>
			<path class="st7" d="M414.02634,235.54681h9.13672v1.81787h-11.08789v-1.81787c0-4.66895,9.15625-5.22998,9.15625-9.42725
				c0-1.7959-1.39062-3.09766-3.29883-3.09766c-2.35742,0-3.92773,1.43652-3.92773,3.34424h-1.92969
				c0-2.87305,2.42383-5.1626,5.87891-5.1626c2.96289,0,5.20898,1.97559,5.20898,4.9834
				C423.16306,231.68597,414.02634,232.26947,414.02634,235.54681z"/>
			<path class="st7" d="M427.70016,235.54681h9.13672v1.81787h-11.08789v-1.81787c0-4.66895,9.15625-5.22998,9.15625-9.42725
				c0-1.7959-1.39062-3.09766-3.29883-3.09766c-2.35742,0-3.92773,1.43652-3.92773,3.34424h-1.92969
				c0-2.87305,2.42383-5.1626,5.87891-5.1626c2.96289,0,5.20898,1.97559,5.20898,4.9834
				C436.83688,231.68597,427.70016,232.26947,427.70016,235.54681z"/>
		</g>
	</g>
	<g>
		<g>
			<path class="st7" d="M184.43846,292.58441v1.90967h-9.80664v-1.90967h3.88867v-12.32959l-3.22852,0.80176v-2.02783
				l5.25586-1.27295v14.82861H184.43846z"/>
			<path class="st7" d="M241.53612,288.97748c0,3.13574-2.47461,5.75244-5.91602,5.75244
				c-3.70117,0-5.91797-2.56982-5.91797-5.49316h2.02734c0.02344,1.93311,1.55664,3.46582,3.86719,3.46582
				c2.12109,0,3.93555-1.55615,3.93555-3.81934c0-2.49902-1.76758-3.86621-3.93555-3.86621
				c-1.41602,0-3.16016,0.66016-3.72461,2.28662h-1.98047l1.46094-9.54785h9.00586v1.90967h-7.30859l-0.70703,4.57373
				c1.06055-0.68408,2.33398-1.0376,3.67773-1.0376C239.03807,283.2016,241.53612,285.39398,241.53612,288.97748z"/>
			<path class="st7" d="M264.00876,292.87103v-5.74414h-5.73242v-0.94385h5.73242v-5.72119h0.91992v5.72119h5.75586v0.94385
				h-5.75586v5.74414H264.00876z"/>
			<path class="st7" d="M288.99313,292.58441h9.59375v1.90967h-11.64453v-1.90967c0-4.90332,9.61719-5.49268,9.61719-9.90137
				c0-1.88574-1.46094-3.25342-3.46484-3.25342c-2.47461,0-4.125,1.50879-4.125,3.5127h-2.02734
				c0-3.01758,2.54492-5.42236,6.17578-5.42236c3.11133,0,5.46875,2.07471,5.46875,5.23389
				C298.58688,288.52972,288.99313,289.14252,288.99313,292.58441z"/>
			<path class="st7" d="M356.74509,277.7558v1.90967l-7.16602,14.82861h-2.19336l7.16797-14.82861h-9.21875v-1.90967H356.74509z"/>
		</g>
	</g>
	<g>
		<g>
			<path class="st7" d="M422.64743,291.71576v1.81787h-9.33789v-1.81787h3.70312V279.9765l-3.07422,0.76318v-1.93066
				l5.00586-1.21191v14.11865H422.64743z"/>
			<path class="st7" d="M433.69431,285.7226h0.02148l-5.09375,7.81104h-2.24609l3.57031-5.36475
				c-0.33789,0.06738-0.67383,0.08984-1.0332,0.08984c-3.20898,0-5.61133-2.53613-5.61133-5.4541
				c0-2.94043,2.40234-5.43213,5.61133-5.43213c3.25391,0,5.65625,2.4917,5.65625,5.43213
				C434.56931,283.85931,434.25485,284.86957,433.69431,285.7226z M428.91306,286.4184c2.1543,0,3.74805-1.68359,3.74805-3.61377
				s-1.59375-3.61377-3.74805-3.61377c-2.10938,0-3.68164,1.68359-3.68164,3.61377S426.80368,286.4184,428.91306,286.4184z"/>
		</g>
	</g>
	<g>
		<g>
			<path class="st7" d="M184.12987,402.1181c0,2.64014-2.07422,4.95068-5.68164,4.95068c-3.70117,0-6.15234-2.47559-6.15234-5.49316
				h2.02734c0,2.21631,1.81641,3.5835,4.03125,3.5835c2.38086,0,3.77148-1.39111,3.77148-3.15918
				c0-2.12158-1.9082-2.85254-3.98242-2.85254h-1.29688v-1.93311h1.29688c2.09766,0,3.27539-1.01367,3.27539-2.59326
				c0-1.6499-1.27344-2.85254-3.30078-2.85254c-2.21484,0-3.79492,1.48535-3.79492,3.5835h-2.02734
				c0-3.01758,2.2168-5.49316,5.91797-5.49316c3.13477,0,5.20898,2.14551,5.20898,4.66797c0,1.65039-0.82422,2.85254-2.02734,3.5835
				C182.9287,398.81732,184.12987,400.1142,184.12987,402.1181z"/>
			<path class="st7" d="M241.41698,401.36371c0,3.08838-2.52148,5.70508-5.89453,5.70508c-3.41797,0-5.93945-2.6167-5.93945-5.70508
				c0-1.15527,0.35352-2.26318,0.99023-3.18262l5.2793-8.08643h2.33398l-3.74805,5.63477
				c0.35352-0.04736,0.70703-0.09473,1.08398-0.09473C238.89549,395.6347,241.41698,398.29877,241.41698,401.36371z
				 M239.41307,401.36371c0-2.02734-1.67383-3.81934-3.89062-3.81934c-2.26172,0-3.91211,1.79199-3.91211,3.81934
				s1.65039,3.79541,3.91211,3.79541C237.73924,405.15912,239.41307,403.39105,239.41307,401.36371z"/>
			<path class="st7" d="M263.41696,405.2099v-5.74414h-5.73242v-0.94385h5.73242v-5.72119h0.92188v5.72119h5.75586v0.94385h-5.75586
				v5.74414H263.41696z"/>
			<path class="st7" d="M299.10446,403.39105h-2.33398v3.44141h-2.02734v-3.44141h-8.86328v-1.90967l8.86328-11.38672h2.02734
				v11.38672h2.33398V403.39105z M294.74313,401.48138v-8.29834l-6.31836,8.29834H294.74313z"/>
			<path class="st7" d="M355.99118,401.9057c0,2.87646-2.35742,5.06934-5.82422,5.06934c-3.46484,0-5.82227-2.19287-5.82227-5.06934
				c0-1.95654,1.15625-3.46533,2.73438-4.31396c-1.03711-0.75439-1.79102-1.88623-1.79102-3.27686
				c0-2.56982,2.26367-4.36133,4.87891-4.36133c2.61719,0,4.88086,1.7915,4.88086,4.36133
				c0,1.39062-0.77734,2.52246-1.81445,3.27686C354.83493,398.44037,355.99118,399.94916,355.99118,401.9057z M353.96384,401.9057
				c0-1.8623-1.65039-3.15869-3.79688-3.15869c-2.16797,0-3.79492,1.29639-3.79492,3.15869s1.62695,3.15918,3.79492,3.15918
				C352.31345,405.06488,353.96384,403.76801,353.96384,401.9057z M347.3154,394.31488c0,1.62646,1.50781,2.42822,2.85156,2.42822
				s2.85352-0.80176,2.85352-2.42822c0-1.62695-1.50977-2.45215-2.85352-2.45215S347.3154,392.68793,347.3154,394.31488z"/>
		</g>
	</g>
	<g>
		<g>
			<path class="st7" d="M421.65915,400.62054c0,2.98535-2.35742,5.47705-5.63477,5.47705
				c-3.52344,0-5.63281-2.44678-5.63281-5.22998h1.92969c0.02148,1.84033,1.48047,3.29932,3.68164,3.29932
				c2.01953,0,3.74805-1.48145,3.74805-3.63623c0-2.37891-1.68359-3.68066-3.74805-3.68066
				c-1.34766,0-3.00781,0.62842-3.54688,2.17725h-1.88672l1.39258-9.09082h8.57422v1.81836h-6.95898l-0.67188,4.35449
				c1.00977-0.65088,2.2207-0.98779,3.5-0.98779C419.27829,395.12152,421.65915,397.20892,421.65915,400.62054z"/>
			<path class="st7" d="M436.70212,395.34613v5.11768c0,3.479-2.76172,5.63379-5.83594,5.63379
				c-3.07617,0-5.83594-2.15479-5.83594-5.63379v-5.11768c0-3.47949,2.75977-5.63379,5.83594-5.63379
				C433.9404,389.71234,436.70212,391.86664,436.70212,395.34613z M434.77048,400.46381v-5.11768
				c0-2.24463-1.75-3.81592-3.9043-3.81592c-2.15625,0-3.90625,1.57129-3.90625,3.81592v5.11768
				c0,2.24414,1.75,3.81543,3.90625,3.81543C433.02048,404.27924,434.77048,402.70795,434.77048,400.46381z"/>
		</g>
	</g>
	<g>
		<g>
			<path class="st7" d="M184.69237,345.94916c0,2.64014-2.07422,4.95068-5.68164,4.95068
				c-3.70117,0-6.15234-2.47559-6.15234-5.49316h2.02734c0,2.21631,1.81445,3.5835,4.03125,3.5835
				c2.38086,0,3.77148-1.39111,3.77148-3.15918c0-2.12158-1.91016-2.85254-3.98438-2.85254h-1.29688v-1.93311h1.29688
				c2.09766,0,3.27734-1.01367,3.27734-2.59326c0-1.6499-1.27344-2.85254-3.30078-2.85254c-2.2168,0-3.79492,1.48535-3.79492,3.5835
				h-2.02734c0-3.01758,2.21484-5.49316,5.91602-5.49316c3.13672,0,5.21094,2.14551,5.21094,4.66797
				c0,1.65039-0.82617,2.85254-2.02734,3.5835C183.48924,342.64838,184.69237,343.94525,184.69237,345.94916z"/>
			<path class="st7" d="M241.69627,345.1474c0,3.13574-2.47656,5.75244-5.91797,5.75244c-3.70117,0-5.91602-2.56982-5.91602-5.49316
				h2.02734c0.02344,1.93311,1.55469,3.46582,3.86523,3.46582c2.12109,0,3.9375-1.55615,3.9375-3.81934
				c0-2.49902-1.76758-3.86621-3.9375-3.86621c-1.41406,0-3.1582,0.66016-3.72461,2.28662h-1.98047l1.46094-9.54785h9.00586v1.90967
				h-7.30664l-0.70898,4.57373c1.0625-0.68408,2.33398-1.0376,3.67773-1.0376
				C239.19627,339.37152,241.69627,341.5639,241.69627,345.1474z"/>
			<path class="st7" d="M263.45993,349.04095v-5.74414h-5.73242v-0.94385h5.73242v-5.72119h0.92188v5.72119h5.75586v0.94385
				h-5.75586v5.74414H263.45993z"/>
			<path class="st7" d="M299.14743,347.22211h-2.33398v3.44189h-2.02734v-3.44189h-8.86523v-1.90967l8.86523-11.38672h2.02734
				v11.38672h2.33398V347.22211z M294.7861,345.31244v-8.29834l-6.31836,8.29834H294.7861z"/>
			<path class="st7" d="M356.83493,333.92572v1.90967l-7.16602,14.82861h-2.19336l7.16602-14.82861h-9.2168v-1.90967H356.83493z"/>
		</g>
	</g>
	<g>
		<g>
			<path class="st7" d="M423.6572,346.4267h-2.22266v3.27686h-1.92969v-3.27686h-8.43945v-1.81836l8.43945-10.84131h1.92969
				v10.84131h2.22266V346.4267z M419.50485,344.60834v-7.90088l-6.01562,7.90088H419.50485z"/>
			<path class="st7" d="M437.10641,345.21429c0,2.51416-1.97656,4.71387-5.41016,4.71387
				c-3.52344,0-5.85742-2.35693-5.85742-5.22998h1.92969c0,2.10986,1.72852,3.41162,3.83789,3.41162
				c2.26758,0,3.5918-1.32422,3.5918-3.00781c0-2.02002-1.81836-2.71582-3.79297-2.71582h-1.23438v-1.84033h1.23438
				c1.99609,0,3.11914-0.96533,3.11914-2.46924c0-1.57129-1.21289-2.71582-3.14258-2.71582
				c-2.10938,0-3.61328,1.41406-3.61328,3.41162h-1.92969c0-2.87305,2.10938-5.22998,5.63281-5.22998
				c2.98633,0,4.96094,2.04297,4.96094,4.44434c0,1.57129-0.78516,2.71631-1.92969,3.41211
				C435.96188,342.0722,437.10641,343.30658,437.10641,345.21429z"/>
		</g>
	</g>
	<g>
		<g>
			<path class="st7" d="M438.65524,77.87788h9.13672v1.81787h-11.08789v-1.81787c0-4.66895,9.15625-5.22998,9.15625-9.42725
				c0-1.7959-1.39062-3.09766-3.29883-3.09766c-2.35742,0-3.92773,1.43652-3.92773,3.34424h-1.92969
				c0-2.87305,2.42383-5.1626,5.87891-5.1626c2.96289,0,5.20898,1.97559,5.20898,4.9834
				C447.79196,74.01704,438.65524,74.60053,438.65524,77.87788z"/>
			<path class="st7" d="M452.32907,77.87788h9.13672v1.81787H450.3779v-1.81787c0-4.66895,9.15625-5.22998,9.15625-9.42725
				c0-1.7959-1.39062-3.09766-3.29883-3.09766c-2.35742,0-3.92773,1.43652-3.92773,3.34424h-1.92969
				c0-2.87305,2.42383-5.1626,5.87891-5.1626c2.96289,0,5.20898,1.97559,5.20898,4.9834
				C461.46579,74.01704,452.32907,74.60053,452.32907,77.87788z"/>
		</g>
	</g>
	<g>
		<g>
			<path class="st7" d="M395.07321,77.87788v1.81787h-9.33789v-1.81787h3.70312V66.13862l-3.07422,0.76318v-1.93066l5.00586-1.21191
				v14.11865H395.07321z"/>
			<path class="st7" d="M406.12009,71.88471h0.02148l-5.09375,7.81104h-2.24609l3.57031-5.36475
				c-0.33789,0.06738-0.67383,0.08984-1.0332,0.08984c-3.20898,0-5.61133-2.53613-5.61133-5.4541
				c0-2.94043,2.40234-5.43213,5.61133-5.43213c3.25391,0,5.65625,2.4917,5.65625,5.43213
				C406.99509,70.02143,406.68063,71.03168,406.12009,71.88471z M401.33884,72.58051c2.1543,0,3.74805-1.68359,3.74805-3.61377
				s-1.59375-3.61377-3.74805-3.61377c-2.10938,0-3.68164,1.68359-3.68164,3.61377S399.22946,72.58051,401.33884,72.58051z"/>
		</g>
	</g>
	<g>
		<g>
			<path class="st7" d="M447.97165,119.47114c0,2.98535-2.35742,5.47705-5.63477,5.47705
				c-3.52344,0-5.63281-2.44678-5.63281-5.22998h1.92969c0.02148,1.84033,1.48047,3.29932,3.68164,3.29932
				c2.01953,0,3.74805-1.48145,3.74805-3.63623c0-2.37891-1.68359-3.68066-3.74805-3.68066
				c-1.34766,0-3.00781,0.62842-3.54688,2.17725h-1.88672l1.39258-9.09082h8.57422v1.81836h-6.95898l-0.67188,4.35449
				c1.00977-0.65088,2.2207-0.98779,3.5-0.98779C445.59079,113.97211,447.97165,116.05952,447.97165,119.47114z"/>
			<path class="st7" d="M463.01462,114.19672v5.11768c0,3.479-2.76172,5.63379-5.83594,5.63379
				c-3.07617,0-5.83594-2.15479-5.83594-5.63379v-5.11768c0-3.47949,2.75977-5.63379,5.83594-5.63379
				C460.2529,108.56293,463.01462,110.71723,463.01462,114.19672z M461.08298,119.3144v-5.11768
				c0-2.24463-1.75-3.81592-3.9043-3.81592c-2.15625,0-3.90625,1.57129-3.90625,3.81592v5.11768
				c0,2.24414,1.75,3.81543,3.90625,3.81543C459.33298,123.12983,461.08298,121.55854,461.08298,119.3144z"/>
		</g>
	</g>
	<g>
		<g>
			<path class="st7" d="M398.32712,121.44672h-2.2207v3.27686h-1.93164v-3.27686h-8.43945v-1.81836l8.43945-10.84131h1.93164
				v10.84131h2.2207V121.44672z M394.17477,119.62836v-7.90088l-6.01562,7.90088H394.17477z"/>
			<path class="st7" d="M411.77634,120.23432c0,2.51416-1.97461,4.71387-5.4082,4.71387c-3.52539,0-5.85938-2.35693-5.85938-5.22998
				h1.92969c0,2.10986,1.72852,3.41162,3.83984,3.41162c2.26562,0,3.58984-1.32422,3.58984-3.00781
				c0-2.02002-1.81836-2.71582-3.79297-2.71582h-1.23438v-1.84033h1.23438c1.99805,0,3.12109-0.96533,3.12109-2.46924
				c0-1.57129-1.21289-2.71582-3.14258-2.71582c-2.11133,0-3.61523,1.41406-3.61523,3.41162h-1.92969
				c0-2.87305,2.10938-5.22949,5.63477-5.22949c2.98438,0,4.95898,2.04248,4.95898,4.44385
				c0,1.57129-0.78516,2.71631-1.92969,3.41211C410.63181,117.09223,411.77634,118.32661,411.77634,120.23432z"/>
		</g>
	</g>
	<g>
		<g>
			<g>
				<path class="st7" d="M148.21776,78.11469h9.13672v1.81787h-11.08789v-1.81787c0-4.66895,9.15625-5.22998,9.15625-9.42725
					c0-1.7959-1.39062-3.09766-3.29883-3.09766c-2.35742,0-3.92773,1.43652-3.92773,3.34424h-1.92969
					c0-2.87305,2.42383-5.16211,5.87891-5.16211c2.96289,0,5.20898,1.9751,5.20898,4.98291
					C157.35448,74.25385,148.21776,74.83735,148.21776,78.11469z"/>
			</g>
		</g>
	</g>
	<g>
		<g>
			<g>
				<path class="st7" d="M107.02635,78.11469v1.81787h-9.33594v-1.81787h3.70312V66.37543l-3.07617,0.76318v-1.93018l5.00586-1.2124
					v14.11865H107.02635z"/>
			</g>
		</g>
	</g>
	<g>
		<g>
			<g>
				<path class="st7" d="M158.40916,121.68354h-2.22266v3.27686h-1.92969v-3.27686h-8.43945v-1.81836l8.43945-10.84131h1.92969
					v10.84131h2.22266V121.68354z M154.25682,119.86518v-7.90088l-6.01562,7.90088H154.25682z"/>
			</g>
		</g>
	</g>
	<g>
		<g>
			<g>
				<path class="st7" d="M109.40721,120.47114c0,2.51416-1.97656,4.71387-5.41016,4.71387
					c-3.52344,0-5.85742-2.35693-5.85742-5.22998h1.92969c0,2.10986,1.72852,3.41162,3.83789,3.41162
					c2.26758,0,3.5918-1.32422,3.5918-3.00781c0-2.02002-1.81836-2.71582-3.79297-2.71582h-1.23438v-1.84033h1.23438
					c1.99609,0,3.11914-0.96533,3.11914-2.46924c0-1.57129-1.21289-2.71582-3.14258-2.71582
					c-2.10938,0-3.61328,1.41406-3.61328,3.41162h-1.92969c0-2.87305,2.10938-5.22998,5.63281-5.22998
					c2.98633,0,4.96094,2.04297,4.96094,4.44434c0,1.57129-0.78516,2.71631-1.92969,3.41211
					C108.26268,117.32905,109.40721,118.56342,109.40721,120.47114z"/>
			</g>
		</g>
	</g>
	<g>
		<g>
			<g>
				<path class="st7" d="M302.20016,74.72504c0,2.94043-2.40234,5.43213-5.61328,5.43213c-3.25391,0-5.65625-2.4917-5.65625-5.43213
					c0-1.09961,0.33789-2.15479,0.94336-3.03027l5.02734-7.69873h2.22266l-3.56836,5.36475
					c0.33594-0.04492,0.67383-0.08984,1.03125-0.08984C299.79782,69.27094,302.20016,71.80708,302.20016,74.72504z
					 M300.29196,74.72504c0-1.93018-1.59375-3.63623-3.70508-3.63623c-2.1543,0-3.72461,1.70605-3.72461,3.63623
					c0,1.93066,1.57031,3.61377,3.72461,3.61377C298.69821,78.33881,300.29196,76.65571,300.29196,74.72504z"/>
			</g>
		</g>
	</g>
	<g>
		<g>
			<g>
				<path class="st7" d="M253.84862,74.68012c0,2.98535-2.35742,5.47705-5.63477,5.47705
					c-3.52344,0-5.63281-2.44678-5.63281-5.22998h1.92969c0.02148,1.84033,1.48047,3.29932,3.68164,3.29932
					c2.01953,0,3.74805-1.48145,3.74805-3.63623c0-2.37891-1.68359-3.68066-3.74805-3.68066
					c-1.34766,0-3.00781,0.62842-3.54688,2.17725h-1.88672l1.39258-9.09082h8.57422v1.81836h-6.95898l-0.67188,4.35449
					c1.00977-0.65088,2.2207-0.98779,3.5-0.98779C251.46776,69.1811,253.84862,71.2685,253.84862,74.68012z"/>
			</g>
		</g>
	</g>
	<g>
		<g>
			<g>
				<path class="st7" d="M301.79587,120.26948c0,2.73828-2.24609,4.82568-5.54492,4.82568s-5.54297-2.0874-5.54297-4.82568
					c0-1.86328,1.09961-3.2998,2.60352-4.10791c-0.98828-0.71826-1.70703-1.79541-1.70703-3.11963
					c0-2.44678,2.1543-4.15283,4.64648-4.15283s4.64648,1.70605,4.64648,4.15283c0,1.32422-0.74023,2.40137-1.72852,3.11963
					C300.69626,116.96967,301.79587,118.4062,301.79587,120.26948z M299.86423,120.26948c0-1.77344-1.57031-3.00781-3.61328-3.00781
					c-2.06445,0-3.61328,1.23438-3.61328,3.00781c0,1.77295,1.54883,3.00732,3.61328,3.00732
					C298.29391,123.2768,299.86423,122.04243,299.86423,120.26948z M293.5361,113.04194c0,1.54834,1.43555,2.31152,2.71484,2.31152
					s2.7168-0.76318,2.7168-2.31152c0-1.54883-1.4375-2.33447-2.7168-2.33447S293.5361,111.49311,293.5361,113.04194z"/>
			</g>
		</g>
	</g>
	<g>
		<g>
			<g>
				<path class="st7" d="M253.21971,109.02387v1.81836l-6.82422,14.11816h-2.08789l6.82422-14.11816h-8.77539v-1.81836H253.21971z"
					/>
			</g>
		</g>
	</g>
	<g>
		<rect x="428.90192" y="461.01379" class="st33" width="10.52053" height="0.00001"/>
	</g>
</g>
<g id="Layer_1">
</g>
</svg>
