<?xml version="1.0" encoding="UTF-8" standalone="no"?>
<!-- Copyright 2017 mathsisfun.com -->

<svg
   width="360.1"
   height="122.6"
   version="1.1"
   style="font-family:'Comic Sans MS';font-size:19.5px;fill:#fd3301;stroke-width:1.1"
   id="svg64"
   sodipodi:docname="matrix-multiply-a.svg"
   inkscape:version="1.1 (c68e22c387, 2021-05-23)"
   xmlns:inkscape="http://www.inkscape.org/namespaces/inkscape"
   xmlns:sodipodi="http://sodipodi.sourceforge.net/DTD/sodipodi-0.dtd"
   xmlns="http://www.w3.org/2000/svg"
   xmlns:svg="http://www.w3.org/2000/svg">
  <sodipodi:namedview
     id="namedview66"
     pagecolor="#ffffff"
     bordercolor="#666666"
     borderopacity="1.0"
     inkscape:pageshadow="2"
     inkscape:pageopacity="0.0"
     inkscape:pagecheckerboard="0"
     showgrid="false"
     inkscape:current-layer="svg64" />
  <defs
     id="defs2" />
  <circle
     cx="291.873"
     cy="58.33"
     r="17.6615"
     style="fill:#ffeeb4;fill-opacity:1"
     id="circle4" />
  <rect
     x="34.031"
     y="-181.971"
     rx="10.6"
     ry="19.4"
     width="88.6"
     height="27.3"
     transform="rotate(90)"
     style="fill:#ffeeb4;fill-opacity:1"
     id="rect6" />
  <rect
     x="9.873"
     y="47.83"
     rx="10.9"
     ry="16.4"
     width="91"
     height="23.2"
     style="fill:#ffeeb4;fill-opacity:1"
     id="rect8" />
  <path
     style="fill:#0169c9;stroke:#636466;stroke-width:0.13;stroke-linejoin:round"
     d="m 10.373,49.23 c -2.6,-0.3 -5.7,-0.2 -8.1,-0.3 2.8,-2 0.3,6.9 1.1,8.9 -0.5,13.2 -0.6,27 -0.4,39.9 -0.5,-0.4 3.1,-0.1 4.1,-0.2 1.8,0.2 4.4,-0.9 3.4,2.2 -1,1.4 -4.4,0.1 -6.3,0.5 -4.6,1 -4.4,-4.4 -4.1,-7.5 -0.1,-15.2 0.3,-30.5 0.6,-45.7 2.6,-2 6.7,-0.4 9.8,-0.6 -0.1,0.9 -0.2,1.8 -0.4,2.7 z"
     id="path10" />
  <path
     style="fill:#0169c9;stroke:#636466;stroke-width:0.13;stroke-linejoin:round"
     d="m 101.473,49.03 c 2.6,-0.3 5.7,-0.1 8.1,-0.2 -2.6,-2.1 -0.5,6.1 -1.3,8.1 0.3,13.2 0,28.5 -0.4,40.7 -0.8,-0.3 -4.1,-0.1 -5.7,-0.2 -2,-1.3 -2.9,2.5 -1.3,2.6 3.1,-0.4 7.6,1.6 9.5,-1.5 1,-17.1 0.6,-34.3 0.6,-51.4 -2.5,-2.1 -6.7,-0.5 -9.8,-0.8 0.1,0.9 0.2,1.9 0.3,2.7 z"
     id="path12" />
  <text
     x="16.273"
     y="93.7299"
     style="font-weight:900"
     id="text14">4</text>
  <text
     x="15.873"
     y="66.2299"
     style="font-weight:900"
     id="text16">1</text>
  <text
     x="47.773"
     y="66.2299"
     style="font-weight:900"
     id="text18">2</text>
  <text
     x="80.773"
     y="93.7299"
     style="font-weight:900"
     id="text20">6</text>
  <text
     x="78.573"
     y="66.2299"
     style="font-weight:900"
     id="text22">3</text>
  <text
     x="47.473"
     y="93.7299"
     style="font-weight:900"
     id="text24">5</text>
  <text
     x="193.873"
     y="57.03"
     style="font-weight:900"
     id="text26">8</text>
  <text
     x="162.273"
     y="57.03"
     style="font-weight:900"
     id="text28">7</text>
  <text
     x="162.473"
     y="85.03"
     style="font-weight:900"
     id="text30">9</text>
  <text
     x="187.273"
     y="113.43"
     style="font-weight:900"
     id="text32">12</text>
  <text
     x="156.673"
     y="113.43"
     style="font-weight:900"
     id="text34">11</text>
  <text
     x="186.873"
     y="85.03"
     style="font-weight:900"
     id="text36">10</text>
  <path
     style="fill:#0169c9;stroke:#636466;stroke-width:0.13;stroke-linejoin:round"
     d="m 155.773,36.33 c -2.8,0.6 -6.9,-1.6 -8.8,1 0.5,13.2 0,26.4 -0.5,39.6 0.4,13.6 -0.3,27.3 0.5,40.9 2.3,2.2 6.3,1 9.3,1.4 1.8,-4 -3.2,-1.8 -5.3,-2.5 -1.5,-0.5 -2.6,0.1 -1.5,0.3 -0.5,-16.5 -0.5,-33.1 -0.1,-49.6 0.7,-9.8 0.5,-19.7 0.2,-29.5 -2.5,1.2 2.7,0.5 3.7,0.8 2.1,0.1 3.2,0.5 2.6,-2.3 z"
     id="path38" />
  <path
     style="fill:#0169c9;stroke:#636466;stroke-width:0.13;stroke-linejoin:round"
     d="m 210.773,36.33 c 2.8,0.6 6.9,-1.5 8.8,1.1 -0.7,13.2 -0.3,26.4 0.1,39.6 -0.6,13.6 0,27.3 -0.9,40.8 -2.4,2.2 -6.3,0.9 -9.3,1.3 -1.8,-4 3.2,-1.8 5.3,-2.5 1.5,-0.5 2.6,0.2 1.5,0.3 0.6,-16.8 0.9,-33.6 0.6,-50.5 -0.6,-9.6 -0.2,-19.1 0.2,-28.7 2.5,1.2 -2.7,0.5 -3.7,0.8 -2.1,0.1 -3.2,0.5 -2.6,-2.4 z"
     id="path40" />
  <text
     x="121.973"
     y="80.83"
     style="font-weight:bold;font-size:24.7px;fill:#0197fd"
     id="text42">x</text>
  <text
     x="232.573"
     y="88.03"
     style="font-size:32.1px;fill:#0197fd"
     id="text44">=</text>
  <path
     style="fill:#0169c9;stroke:#636466;stroke-width:0.13;stroke-linejoin:round"
     d="m 275.773,49.23 c -2.6,-0.3 -5.7,-0.2 -8.1,-0.3 2.8,-2 0.3,6.9 1.1,8.9 -0.5,13.2 -0.6,27 -0.4,39.9 -0.5,-0.4 3.1,-0.1 4.1,-0.2 1.8,0.2 4.4,-0.9 3.4,2.2 -1,1.4 -4.4,0.1 -6.3,0.5 -4.6,1 -4.4,-4.4 -4.1,-7.5 -0.1,-15.2 0.3,-30.5 0.7,-45.7 2.6,-2 6.7,-0.4 9.8,-0.6 -0.1,0.9 -0.2,1.8 -0.3,2.7 z"
     id="path46" />
  <path
     style="fill:#0169c9;stroke:#636466;stroke-width:0.13;stroke-linejoin:round"
     d="m 350.373,49.93 c 2.6,-0.3 5.7,-0.1 8.1,-0.2 -2.7,-2 -0.4,6.9 -1.3,8.9 0.2,13.2 0,27 -0.4,39.9 0.5,-0.4 -3.1,-0.1 -4.1,-0.3 -1.8,0.2 -4.4,-1 -3.5,2.1 0.9,1.4 4.2,0.3 6,0.7 3.4,1 5.1,-2.4 4.5,-5.4 0.4,-15.9 0.4,-31.8 0.3,-47.6 -2.5,-2.1 -6.7,-0.5 -9.8,-0.8 0.1,0.9 0.2,1.8 0.3,2.7 z"
     id="path48" />
  <text
     x="281.173"
     y="66.2299"
     style="font-weight:900"
     id="text50">58</text>
  <path
     style="fill:#eec73e"
     d="m 41.373,48.43 c 9.4,-13.6 25.5,-20.8 40.9,-25.4 24.2,-6.7 50.9,-6.5 74,4.1 3.7,1.3 15.3,6.3 8.5,8.3 -19.2,-11 -41.9,-15.7 -63.9,-12.5 -20.2,2.7 -41.5,9.5 -55.2,25.3 -1.1,3.2 -2.4,0.7 -4.4,0 z"
     id="path52" />
  <path
     style="fill:#eec73e"
     d="m 165.573,34.43 c 11.8,-11.6 29.2,-15.4 45.3,-16.5 23.4,-1.2 47.5,4.5 66.3,18.8 3.5,1.7 14.4,11 6.8,10.2 -16,-14.9 -37.1,-24.1 -59,-25.2 -19,-1.3 -39.9,1.3 -55.2,13.5 -1.7,2.9 -2.4,0.2 -4.1,-0.9 z"
     id="path54" />
  <path
     style="fill:#eec73e"
     d="m 268.673,40.43 c 0.2,-0.1 0.3,-0.1 0.5,-0.2 0.2,0 0.4,-0.1 0.5,-0.1 0.2,0 0.4,-0.1 0.6,-0.1 0.2,0 0.5,-0.1 0.7,-0.1 0.3,0 0.5,-0.1 0.8,-0.1 0.3,0 0.5,0 0.8,0 0.3,0 0.5,0 0.8,0 0.3,0 0.6,0 0.8,0.1 0.3,0 0.6,0.1 0.8,0.1 0.3,0 0.5,0.1 0.8,0.1 0.3,0 0.5,0.1 0.8,0.2 0.3,0.1 0.6,0.1 0.8,0.2 0.3,0.1 0.6,0.1 0.8,0.2 0.3,0.1 0.5,0.2 0.8,0.2 0.2,0.1 0.5,0.1 0.7,0.2 0.2,0.1 0.4,0.1 0.7,0.2 0.2,0.1 0.4,0.1 0.6,0.2 0.2,0 0.4,0.1 0.6,0.2 0.2,0 0.3,0.1 0.5,0.2 0.2,0 0.3,0.1 0.5,0.1 0.1,0 0.3,0.1 0.4,0.1 0.1,0 0.3,0.1 0.4,0.1 0.1,0 0.3,0.1 0.4,0.1 0.1,0 0.3,0.1 0.4,0.1 0.1,0 0.3,0.1 0.4,0.1 0.1,0 0.3,0.1 0.4,0.1 0.1,0 0.3,0.1 0.4,0.1 0.1,0 0.2,0.1 0.3,0.1 0.1,0 0.2,0.1 0.3,0.1 0,0 0.2,0.1 0.3,0.1 0,0 0.2,0.1 0.2,0.1 0,0 0.1,0 0.2,0.1 0,0 -1.1,3.5 -1.1,3.5 v 0 c 0,0 -0.1,0 -0.2,-0.1 -0.1,0 -0.2,-0.1 -0.3,-0.1 -0.1,0 -0.2,-0.1 -0.3,-0.1 -0.1,0 -0.2,-0.1 -0.3,-0.1 -0.1,0 -0.2,-0.1 -0.3,-0.1 -0.1,0 -0.2,-0.1 -0.3,-0.1 -0.1,0 -0.2,-0.1 -0.3,-0.1 -0.1,0 -0.2,-0.1 -0.3,-0.1 -0.1,0 -0.2,-0.1 -0.3,-0.1 -0.1,0 -0.2,-0.1 -0.4,-0.1 -0.1,0 -0.3,-0.1 -0.4,-0.1 -0.1,-0.1 -0.3,-0.1 -0.4,-0.1 -0.2,-0.1 -0.3,-0.1 -0.5,-0.1 -0.2,-0.1 -0.3,-0.1 -0.5,-0.2 -0.2,0 -0.4,-0.1 -0.6,-0.2 -0.2,-0.1 -0.4,-0.1 -0.6,-0.2 -0.2,-0.1 -0.4,-0.1 -0.7,-0.2 -0.2,-0.1 -0.5,-0.1 -0.7,-0.2 -0.2,-0.1 -0.5,-0.1 -0.7,-0.2 -0.2,-0.1 -0.5,-0.1 -0.7,-0.2 -0.2,-0.1 -0.5,-0.1 -0.7,-0.2 -0.2,0 -0.5,-0.1 -0.7,-0.1 -0.2,0 -0.5,-0.1 -0.7,-0.1 -0.2,0 -0.5,-0.1 -0.7,-0.1 -0.2,0 -0.5,-0.1 -0.7,-0.1 -0.2,0 -0.4,0 -0.6,0 -0.2,0 -0.4,0 -0.6,0 -0.2,0 -0.4,0 -0.5,0 -0.2,0 -0.4,0 -0.6,0.1 -0.1,0 -0.3,0.1 -0.4,0.1 0,0 -0.2,0 -0.3,0.1 0,0 -0.2,0 -0.2,0.1 0,0 -1.3,-3.4 -1.3,-3.4 z"
     id="path56" />
  <path
     style="fill:#eec73e"
     d="m 281.273,32.63 c 0,0.1 0,0.2 0,0.2 0,0.1 0,0.2 0,0.3 0,0.1 0,0.3 0,0.4 0,0.1 0,0.3 0.1,0.4 0,0.2 0,0.3 0.1,0.4 0,0.2 0.1,0.3 0.2,0.5 0,0.2 0.1,0.3 0.2,0.5 0,0.2 0.2,0.4 0.2,0.6 0,0.2 0.2,0.4 0.2,0.5 0,0.2 0.2,0.4 0.3,0.6 0.1,0.2 0.2,0.4 0.3,0.6 0.1,0.2 0.2,0.4 0.3,0.6 0.1,0.2 0.2,0.4 0.3,0.6 0.1,0.2 0.2,0.3 0.3,0.5 0.1,0.2 0.2,0.3 0.3,0.5 0,0.2 0.2,0.3 0.3,0.4 0.1,0.2 0.2,0.3 0.3,0.5 0.1,0.1 0.2,0.3 0.3,0.4 0.1,0.1 0.2,0.3 0.3,0.4 0.1,0.1 0.2,0.3 0.3,0.4 0.1,0.1 0.2,0.3 0.3,0.4 0,0.1 0.2,0.3 0.3,0.4 0,0.1 0.2,0.3 0.3,0.4 0,0.1 0.2,0.2 0.3,0.3 0,0.1 0.2,0.2 0.2,0.3 0,0.1 0.1,0.2 0.2,0.3 0,0.1 0.1,0.2 0.2,0.3 0,0.1 0.1,0.2 0.2,0.3 0,0.1 0,0 0,0.1 0,0 -3,2.1 -3,2.1 v 0 c 0,-0.1 0,0.1 0,-0.1 0,-0.1 -0.1,-0.2 -0.2,-0.3 0,-0.1 -0.1,-0.2 -0.2,-0.3 0,-0.1 -0.1,-0.2 -0.2,-0.3 0,-0.1 -0.2,-0.2 -0.2,-0.3 0,-0.1 -0.2,-0.2 -0.3,-0.4 0,-0.1 -0.2,-0.2 -0.3,-0.4 -0.1,-0.1 -0.2,-0.3 -0.3,-0.4 -0.1,-0.1 -0.2,-0.3 -0.3,-0.4 -0.1,-0.1 -0.2,-0.3 -0.3,-0.4 -0.1,-0.2 -0.2,-0.3 -0.3,-0.4 -0.1,-0.2 -0.2,-0.3 -0.3,-0.5 -0.1,-0.2 -0.2,-0.3 -0.3,-0.5 -0.1,-0.2 -0.2,-0.4 -0.4,-0.5 -0.1,-0.2 -0.2,-0.4 -0.3,-0.5 -0.1,-0.2 -0.2,-0.4 -0.3,-0.6 -0.1,-0.2 -0.2,-0.4 -0.3,-0.6 -0.1,-0.2 -0.2,-0.4 -0.3,-0.6 -0.1,-0.2 -0.2,-0.5 -0.3,-0.7 -0.1,-0.2 -0.2,-0.4 -0.3,-0.7 -0.1,-0.2 -0.2,-0.4 -0.3,-0.6 0,-0.2 -0.2,-0.4 -0.2,-0.6 0,-0.2 -0.2,-0.4 -0.2,-0.6 0,-0.2 -0.2,-0.4 -0.2,-0.6 0,-0.2 -0.1,-0.4 -0.2,-0.6 0,-0.2 -0.1,-0.4 -0.2,-0.6 0,-0.2 0,-0.3 -0.1,-0.5 0,-0.2 0,-0.3 -0.1,-0.5 0,-0.2 0,-0.3 0,-0.5 0,0 3.6,-0.3 3.6,-0.3 z"
     id="path58" />
  <text
     x="101.073"
     y="15.23"
     style="font-weight:900;fill:#eec73e"
     id="text60">&quot;Dot Product&quot;</text>
</svg>
