<?xml version="1.0" encoding="UTF-8" standalone="no"?>
<!-- Copyright 2021 mathsisfun.com -->

<svg
   width="299.456"
   height="108.435"
   version="1.1"
   style="font-size:6px;font-family:'Trebuchet MS';fill:#fd3301;stroke-width:0.55"
   id="svg72"
   sodipodi:docname="matrix-multiply-constant.svg"
   inkscape:version="1.1 (c68e22c387, 2021-05-23)"
   xmlns:inkscape="http://www.inkscape.org/namespaces/inkscape"
   xmlns:sodipodi="http://sodipodi.sourceforge.net/DTD/sodipodi-0.dtd"
   xmlns="http://www.w3.org/2000/svg"
   xmlns:svg="http://www.w3.org/2000/svg">
  <sodipodi:namedview
     id="namedview74"
     pagecolor="#ffffff"
     bordercolor="#666666"
     borderopacity="1.0"
     inkscape:pageshadow="2"
     inkscape:pageopacity="0.0"
     inkscape:pagecheckerboard="0"
     showgrid="false"
     inkscape:current-layer="svg72" />
  <defs
     id="defs18">
    <marker
       style="overflow:visible"
       orient="auto"
       id="marker4">
      <path
         transform="matrix(0.4,0,0,0.4,4,0)"
         style="fill:#f44800;stroke:#f44800;stroke-width:1pt"
         d="M 0,0 5,-5 -12.5,0 5,5 Z"
         id="path2" />
    </marker>
    <marker
       style="overflow:visible"
       orient="auto"
       id="marker8">
      <path
         transform="matrix(-0.4,0,0,-0.4,-4,0)"
         style="fill:#f44800;stroke:#f44800;stroke-width:1pt"
         d="M 0,0 5,-5 -12.5,0 5,5 Z"
         id="path6" />
    </marker>
    <marker
       style="overflow:visible"
       orient="auto"
       id="marker12">
      <path
         transform="matrix(0.4,0,0,0.4,4,0)"
         style="fill:#0197fd;stroke:#0197fd;stroke-width:1pt"
         d="M 0,0 5,-5 -12.5,0 5,5 Z"
         id="path10" />
    </marker>
    <marker
       style="overflow:visible"
       orient="auto"
       id="marker16">
      <path
         transform="matrix(-0.4,0,0,-0.4,-4,0)"
         style="fill:#0197fd;stroke:#0197fd;stroke-width:1pt"
         d="M 0,0 5,-5 -12.5,0 5,5 Z"
         id="path14" />
    </marker>
  </defs>
  <circle
     cx="19.347"
     cy="75.5343"
     r="19.347"
     style="fill:#ffeaa0"
     id="circle20" />
  <circle
     cx="236.07"
     cy="63.8804"
     r="19.347"
     style="fill:#ffeaa0"
     id="circle22" />
  <circle
     cx="92.4854"
     cy="63.365"
     r="19.347"
     style="fill:#ffeaa0"
     id="circle24" />
  <path
     style="fill:#0169c9;stroke:#636466;stroke-width:0.14;stroke-linejoin:round"
     d="m 77.8854,51.565 c -0.1,0 -0.2,0 -0.3,0 -0.1,0 -0.3,-0.1 -0.4,-0.1 -0.1,0 -0.3,0 -0.4,0 -0.1,0 -0.3,0 -0.4,0 -0.1,0 -0.3,0 -0.4,0 -0.2,0 -0.3,0 -0.5,0 -0.2,0 -0.3,0 -0.5,0 -0.2,0 -0.3,0 -0.5,0 -0.2,0 -0.3,0 -0.5,0 -0.2,0 -0.3,0 -0.5,0 -0.1,0 -0.3,0 -0.4,0 -0.1,0 -0.3,0 -0.4,0 -0.1,0 -0.2,0 -0.4,0 -0.1,0 -0.2,0 -0.3,0 -0.1,0 -0.2,0 -0.3,0 -0.1,0 -0.2,0 -0.3,0 -0.1,0 -0.2,0 -0.3,0 -0.1,0 -0.2,0 -0.3,0 -0.1,0 -0.2,0 -0.2,0 -0.1,0 -0.1,0 -0.2,0 -0.1,0 -0.1,0 -0.2,0 -0.1,0 -0.1,0 -0.2,0 -0.1,0 -0.1,0 -0.2,0 0,0 -0.1,0 -0.1,0 0,0 -0.1,0 -0.1,0 0,0 -0.1,0 -0.1,0 0,0 -0.1,0 -0.1,0 0,0 -0.1,0 -0.1,0 0,0 -0.1,0 -0.1,0 0,0 -0.1,0 -0.1,0 0,0 -0.1,0 -0.1,0 -0.1,0 0,0 0.1,0 0.3,0 0.6,-0.1 0.8,-0.3 0.2,-0.1 0.3,-0.3 0.4,-0.5 0,0 0,-0.1 0,-0.1 0,0 0,0 0,0 0,0.1 0,0.2 0,0.2 0,0.1 0,0.3 0,0.4 0,0.1 0,0.3 0,0.5 0,0.2 0,0.3 0,0.5 0,0.2 0,0.4 0,0.6 0,0.2 0,0.5 0,0.7 0,0.3 0,0.5 0,0.8 1e-4,0.3 0,0.5 0,0.8 0,0.3 0,0.6 0,0.8 0,0.3 0,0.6 0,0.9 0,0.3 0,0.6 0,0.9 0,0.3 0,0.6 0,0.9 0,0.3 0,0.6 0,0.9 0,0.3 0,0.6 0,0.9 0,0.3 0,0.6 0,0.9 0,0.3 0,0.6 0,0.9 0,0.3 0,0.6 0,0.9 0,0.3 0,0.7 0,1 0,0.3 0,0.7 0,1 0,0.3 0,0.7 0,1 0,0.4 0,0.7 0,1.1 0,0.4 0,0.7 0,1.1 0,0.4 0,0.7 0,1.1 0,0.4 0,0.7 0,1.1 0,0.4 0,0.8 0,1.1 0,0.4 0,0.8 0,1.1 0,0.4 0,0.8 0,1.2 0,0.4 0,0.8 0,1.2 0,0.4 0,0.8 0,1.2 0,0.4 0,0.8 0,1.3 0,0.4 0,0.8 0,1.3 0,0.4 0,0.9 0,1.3 0,0.5 0,0.9 0,1.4 0,0.5 0,0.9 0,1.4 0,0.5 0,0.9 0,1.3 0,0.4 -10e-5,0.9 0,1.3 0,0.4 0,0.8 0,1.3 0,0.4 0,0.8 0,1.2 0,0.4 0,0.8 0,1.2 0,0.4 0,0.8 0,1.2 0,0.4 0,0.7 0,1.1 0,0.4 0,0.7 0,1.1 0,0.4 0,0.7 0,1.1 0,0.4 0,0.7 0,1.1 0,0.4 0,0.7 0,1.1 0,0.3 0,0.7 0,1 0,0.3 0,0.7 0,1 0,0.3 0,0.6 0,0.9 0,0.3 0,0.6 0,0.8 0,0.3 0,0.5 0,0.8 0,0.2 0,0.5 0,0.7 0,0.2 0,0.4 0,0.7 0,0.2 0,0.4 0,0.6 0,0.2 0,0.3 0,0.5 0,0.2 0,0.3 0,0.5 0,0.1 0,0.3 0,0.4 0,0.1 0,0.2 0,0.3 0,0.1 0,0.2 0,0.3 0,0.1 0,0.2 0,0.2 0,0 0,0.1 0,0.1 0,0 0,0.1 0,0.1 0,0.1 0,0.1 0.1,0.2 0,0 0,0 0,0 0,0 0,-0.1 0,-0.1 0,0.1 0.1,0.1 0.1,0.1 0,-0.1 -0.1,-0.1 -0.2,-0.2 -0.1,-0.1 -0.2,-0.1 -0.2,-0.1 -0.1,0 0,0 0,0 0,0 0.1,0 0.1,0 0,0 0.1,0 0.1,0 0.1,0 0.1,0 0.2,0 0.1,0 0.2,0 0.3,0 0.1,0 0.2,0 0.3,0 0.1,0 0.2,0 0.3,0 0.1,0 0.2,0 0.3,0 0.1,0 0.2,0 0.3,0 0.1,0 0.2,0 0.3,0 0.1,0 0.2,0 0.3,0 0.1,0 0.2,0 0.3,0 0.1,0 0.2,0 0.3,0 0.1,0 0.2,0 0.3,0 0.1,0 0.2,0 0.3,0 0.1,0 0.2,0 0.3,0 0.1,0 0.2,0 0.3,0 0.1,0 0.2,0 0.3,0 0.1,0 0.2,0 0.4,0 0.1,0 0.2,0 0.3,0 0.1,0 0.2,0 0.3,0 0.1,0 0.2,0 0.3,0 0.1,0 0.2,0 0.3,0 0.1,0 0.2,0 0.2,0 0.1,0 0.2,0 0.3,0 0.1,0 0.2,0 0.3,0 0.1,0 0.1,0 0.2,0 0.1,0 0.2,0 0.2,0 0.1,0 0.2,0 0.2,0 0.1,0 0.1,0 0.2,0 0.1,0 0.1,0 0.2,0 0.1,0 0.1,0 0.2,0 0.1,0 0.1,0 0.2,0 0.1,0 0.1,0 0.2,0 0,0 0,0 0,0 0,0 0.1,3 0.1,3 v 0 c 0,0 0,0 0,0 -0.1,0 -0.1,0 -0.2,0 -0.1,0 -0.1,0 -0.2,0 -0.1,0 -0.1,0 -0.2,0 -0.1,0 -0.1,0 -0.2,0 -0.1,0 -0.1,0 -0.2,0 -0.1,0 -0.2,0 -0.2,0 -0.1,0 -0.2,0 -0.3,0 -0.1,0 -0.2,0 -0.3,0 -0.1,0 -0.2,0 -0.3,0 -0.1,0 -0.2,0 -0.3,0 -0.1,0 -0.2,0 -0.4,0 -0.1,0 -0.2,0 -0.3,0 -0.1,0 -0.2,0 -0.3,0 -0.1,0 -0.2,0 -0.3,0 -0.1,0 -0.2,0 -0.3,0 -0.1,0 -0.2,0 -0.3,0 -0.1,0 -0.2,0 -0.3,0 -0.1,0 -0.2,0 -0.3,0 -0.1,0 -0.2,0 -0.3,0 -0.1,0 -0.2,0 -0.3,0 -0.1,0 -0.2,0 -0.3,0 -0.1,0 -0.2,0 -0.3,0 -0.1,0 -0.2,0 -0.3,0 -0.1,0 -0.2,0 -0.3,0 -0.1,0 -0.2,0 -0.3,0 -0.1,0 -0.2,0 -0.2,0 -0.1,0 -0.2,0 -0.3,0 -0.1,0 -0.2,0 -0.3,0 -0.1,0 -0.2,0 -0.3,0 -0.1,0 -0.2,0 -0.3,0 -0.1,0 -0.2,0 -0.3,0 -0.1,0 -0.2,0 -0.3,-0.1 -0.1,0 -0.2,0 -0.3,0 -0.1,0 -0.2,0 -0.3,-0.1 -0.2,-0.1 -0.4,-0.2 -0.5,-0.3 -0.1,-0.1 -0.3,-0.2 -0.4,-0.4 0,0 -0.1,-0.1 -0.1,-0.1 -0.1,-0.1 -0.2,-0.2 -0.2,-0.4 -0.1,-0.1 -0.1,-0.2 -0.1,-0.3 0,-0.1 -0.1,-0.1 -0.1,-0.2 0,-0.1 -0.1,-0.2 -0.1,-0.3 0,-0.1 -0.1,-0.3 -0.1,-0.4 0,-0.1 0,-0.3 0,-0.4 0,-0.1 0,-0.3 0,-0.5 0,-0.1 0,-0.3 0,-0.5 0,-0.1 0,-0.3 0,-0.5 0,-0.2 0,-0.3 0,-0.5 0,-0.2 0,-0.4 0,-0.5 0,-0.2 0,-0.4 0,-0.6 0,-0.2 0,-0.4 0,-0.7 0,-0.2 0,-0.5 0,-0.7 0,-0.3 0,-0.5 0,-0.8 0,-0.3 0,-0.6 0,-0.8 0,-0.3 0,-0.6 0,-0.9 0,-0.3 0,-0.7 0,-1 0,-0.3 0,-0.7 0,-1.1 0,-0.3 0,-0.7 0,-1.1 0,-0.3 0,-0.7 0,-1.1 0,-0.4 0,-0.7 0,-1.1 0,-0.4 0,-0.7 0,-1.1 0,-0.4 0,-0.8 0,-1.1 0,-0.4 0,-0.8 0,-1.1 0,-0.4 0,-0.8 0,-1.2 0,-0.4 0,-0.8 0,-1.2 0,-0.4 0,-0.8 0,-1.3 0,-0.4 0,-0.9 0,-1.3 0,-0.5 0,-0.9 0,-1.3 0,-0.5 0,-0.9 0,-1.4 0,-0.5 0,-0.9 0,-1.4 0,-0.4 0,-0.9 0,-1.3 0,-0.4 0,-0.8 0,-1.3 0,-0.4 0,-0.8 0,-1.3 0,-0.4 0,-0.8 0,-1.2 0,-0.4 0,-0.8 0,-1.2 0,-0.4 0,-0.8 0,-1.2 0,-0.4 0,-0.8 0,-1.1 0,-0.4 0,-0.7 0,-1.1 0,-0.4 0,-0.7 0,-1.1 0,-0.4 0,-0.7 0,-1.1 0,-0.3 0,-0.7 0,-1.1 0,-0.4 0,-0.7 0,-1.1 0,-0.3 0,-0.7 0,-1.1 0,-0.3 0,-0.7 0,-1 0,-0.3 0,-0.6 0,-0.9 0,-0.3 0,-0.6 0,-0.9 0,-0.3 0,-0.6 0,-0.9 0,-0.3 0,-0.6 0,-0.9 0,-0.3 0,-0.6 0,-0.9 0,-0.3 0,-0.6 0,-0.9 0,-0.3 0,-0.6 0,-0.9 0,-0.3 0,-0.6 0,-0.8 0,-0.3 0,-0.6 0,-0.8 0,-0.3 0,-0.6 0,-0.8 0,-0.3 0,-0.5 0,-0.8 0,-0.2 0,-0.5 0,-0.7 0,-0.2 0,-0.5 0,-0.7 0,-0.2 0,-0.4 0,-0.7 0,-0.2 0,-0.4 0,-0.6 0,-0.2 0,-0.3 0,-0.5 0,-0.1 0,-0.3 0,-0.4 0,-0.1 0,-0.2 0,-0.3 0,-0.1 0,-0.3 0,-0.4 0,-0.1 0.1,-0.3 0.1,-0.4 0.1,-0.3 0.2,-0.5 0.5,-0.7 0.3,-0.2 0.6,-0.4 1,-0.4 0.1,0 0.1,0 0.2,0 0,0 0.1,0 0.1,0 0,0 0.1,0 0.1,0 0,0 0.1,0 0.1,0 0,0 0.1,0 0.1,0 0,0 0.1,0 0.1,0 0,0 0.1,0 0.1,0 0,0 0.1,0 0.1,0 0,0 0.1,0 0.1,0 0.1,0 0.1,0 0.2,0 0.1,0 0.1,0 0.2,0 0.1,0 0.1,0 0.2,0 0.1,0 0.1,0 0.2,0 0.1,0 0.2,0 0.2,0 0.1,0 0.1,0 0.2,0 0.1,0 0.2,0 0.3,0 0.1,0 0.2,0 0.3,0 0.1,0 0.2,0 0.3,0 0.1,0 0.2,0 0.3,0 0.1,0 0.2,0 0.4,0 0.1,0 0.3,0 0.4,0 0.2,0 0.3,0 0.5,0 0.2,0 0.3,0 0.5,0 0.2,0 0.3,0 0.5,0 0.2,0 0.3,0 0.5,0 0.2,0 0.4,0 0.6,0 0.2,0 0.4,0 0.5,0 0.2,0 0.3,0 0.5,0 0.1,0 0.3,0 0.4,0 0.1,0 0.3,0 0.4,0 0.1,0 0.3,0 0.4,0 0.1,0 0.3,0.1 0.4,0.1 0,0 -0.4,3 -0.4,3 z"
     id="path26" />
  <path
     style="fill:#0169c9;stroke:#636466;stroke-width:0.14;stroke-linejoin:round"
     d="m 143.686,51.365 c 0.1,0 0.2,0 0.3,0 0.1,0 0.3,0 0.4,0 0.1,0 0.3,0 0.4,-0.1 0.1,0 0.3,0 0.4,0 0.1,0 0.3,0 0.4,0 0.2,0 0.3,0 0.5,0 0.2,0 0.3,0 0.5,0 0.2,0 0.3,0 0.5,0 0.2,0 0.3,0 0.5,0 0.1,0 0.3,0 0.5,0 0.1,0 0.3,0 0.4,0 0.1,0 0.3,0 0.4,0 0.1,0 0.3,0 0.4,0 0.1,0 0.2,0 0.3,0 0.1,0 0.2,0 0.3,0 0.1,0 0.2,0 0.3,0 0.1,0 0.2,0 0.3,0 0.1,0 0.2,0 0.3,0 0.1,0 0.2,0 0.2,0 0.1,0 0.1,0 0.2,0 0.1,0 0.1,0 0.2,0 0.1,0 0.1,0 0.2,0 0.1,0 0.1,0 0.2,0 0.1,0 0.1,0 0.1,0 0.1,0 0.1,0 0.1,0 0,0 0.1,0 0.1,0 0,0 0.1,0 0.1,0 0,0 0.1,0 0.1,0 0,0 0.1,0 0.1,0 0,0 0.1,0 0.1,0 0,0 0.1,0 0.1,0 0.1,0 0,0 -0.1,0 -0.3,0 -0.6,-0.2 -0.8,-0.3 -0.2,-0.1 -0.3,-0.3 -0.3,-0.5 0,0 0,-0.1 0,-0.1 0,0 0,0 0,0.1 0,0.1 0,0.1 0,0.2 0,0.1 0,0.3 0,0.4 0,0.2 0,0.3 0,0.5 0,0.2 0,0.3 0,0.5 0,0.2 0,0.4 0,0.6 0,0.2 0,0.5 0,0.7 0,0.3 0,0.5 0,0.8 0,0.3 0,0.5 0,0.8 0,0.3 0,0.5 0,0.8 0,0.3 0,0.6 0,0.8 0,0.3 0,0.6 0,0.9 0,0.3 0,0.6 0,0.9 0,0.3 0,0.6 0,0.9 0,0.3 0,0.6 0,0.9 0,0.3 0,0.6 0,0.9 0,0.3 0,0.6 0,0.9 0,0.3 0,0.6 0,0.9 0,0.3 0,0.7 0,1 0,0.3 0,0.7 0,1 0,0.3 0,0.7 0,1 0,0.3 0,0.7 0,1.1 0,0.4 0,0.7 0,1.1 0,0.4 0,0.7 0,1.1 0,0.4 0,0.7 0,1.1 0,0.4 0,0.8 0,1.1 0,0.4 0,0.8 0,1.1 0,0.4 0,0.8 0,1.2 0,0.4 0,0.8 0,1.2 0,0.4 0,0.8 0,1.2 0,0.4 0,0.8 0,1.3 0,0.4 0,0.8 0,1.3 0,0.4 0,0.9 0,1.3 0,0.5 0,0.9 0,1.4 0,0.5 0,0.9 0,1.4 0,0.5 0,0.9 0,1.3 0,0.4 0,0.9 0,1.3 0,0.4 0,0.8 0,1.3 0,0.4 0,0.8 0,1.2 0,0.4 0,0.8 0,1.2 0,0.4 0,0.8 0,1.2 0,0.4 0,0.7 0,1.1 0,0.4 0,0.7 0,1.1 0,0.4 0,0.7 0,1.1 0,0.4 0,0.7 0,1.1 0,0.4 0,0.7 0,1.1 0,0.3 0,0.7 0,1 0,0.3 0,0.7 0,1 0,0.3 0,0.6 0,0.9 0,0.3 0,0.6 0,0.8 0,0.3 0,0.5 0,0.8 0,0.2 0,0.5 0,0.7 0,0.2 0,0.4 0,0.7 0,0.2 0,0.4 0,0.6 0,0.2 0,0.4 0,0.5 0,0.2 0,0.3 0,0.5 0,0.1 0,0.3 0,0.4 0,0.1 0,0.2 0,0.3 0,0.1 0,0.2 0,0.3 0,0.1 0,0.2 0,0.2 0,0 0,0.1 0,0.1 0,0.1 0,0.1 0,0.1 0,0.1 0,0.1 -0.1,0.2 0,0 0,0 0,0 0,-0.1 0,-0.1 0.1,-0.1 0,0 -0.1,0.1 -0.1,0.1 0.1,-0.1 0.1,-0.1 0.2,-0.1 0.1,-0.1 0.2,-0.1 0.3,-0.1 0.1,0 0,0 0,0 0,0 -0.1,0 -0.1,0 0,0 -0.1,0 -0.1,0 -0.1,0 -0.1,0 -0.2,0 -0.1,0 -0.2,0 -0.3,0 -0.1,0 -0.2,0 -0.3,0 -0.1,0 -0.2,0 -0.3,0 -0.1,0 -0.2,0 -0.3,0 -0.1,0 -0.2,0 -0.3,0 -0.1,0 -0.2,0 -0.3,0 -0.1,0 -0.2,0 -0.3,0 -0.1,0 -0.2,0 -0.3,0 -0.1,0 -0.2,0 -0.3,0 -0.1,0 -0.2,0 -0.3,0 -0.1,0 -0.2,0 -0.3,0 -0.1,0 -0.2,0 -0.3,0 -0.1,0 -0.2,0 -0.3,0 -0.1,0 -0.2,0 -0.3,0 -0.1,0 -0.2,0 -0.4,0 -0.1,0 -0.2,0 -0.3,0 -0.1,0 -0.2,0 -0.3,0 -0.1,0 -0.2,0 -0.3,0 -0.1,0 -0.2,0 -0.3,0 -0.1,0 -0.2,0 -0.2,0 -0.1,0 -0.2,0 -0.3,0 -0.1,0 -0.2,0 -0.3,0 -0.1,0 -0.1,0 -0.2,0 -0.1,0 -0.2,0 -0.2,0 -0.1,0 -0.2,0 -0.2,0 -0.1,0 -0.1,0 -0.2,0 -0.1,0 -0.1,0 -0.2,0 -0.1,0 -0.1,0 -0.2,0 -0.1,0 -0.1,0 -0.2,0 -0.1,0 -0.1,0 -0.2,0 0,0 0,0 -0.1,0 0,0 -0.2,3 -0.2,3 v 0 c 0,0 0,0 0.1,0 0.1,0 0.1,0 0.2,0 0.1,0 0.1,0 0.2,0 0.1,0 0.1,0 0.2,0 0.1,0 0.1,0 0.2,0 0.1,0 0.1,0 0.2,0 0.1,0 0.2,0 0.2,0 0.1,0 0.2,0 0.3,0 0.1,0 0.2,0 0.3,0 0.1,0 0.2,0 0.3,0 0.1,0 0.2,0 0.3,0 0.1,0 0.2,0 0.4,0 0.1,0 0.2,0 0.3,0 0.1,0 0.2,0 0.3,0 0.1,0 0.2,0 0.3,0 0.1,0 0.2,0 0.3,0 0.1,0 0.2,0 0.3,0 0.1,0 0.2,0 0.3,0 0.1,0 0.2,0 0.3,0 0.1,0 0.2,0 0.3,0 0.1,0 0.2,0 0.3,0 0.1,0 0.2,0 0.3,0 0.1,0 0.2,0 0.3,0 0.1,0 0.2,0 0.3,0 0.1,0 0.2,0 0.3,0 0.1,0 0.2,0 0.3,0 0.1,0 0.2,0 0.2,0 0.1,0 0.2,0 0.3,0 0.1,0 0.2,0 0.3,0 0.1,0 0.2,0 0.3,0 0.1,0 0.2,0 0.3,0 0.1,0 0.2,0 0.3,0 0.1,0 0.2,0 0.3,0 0.1,0 0.2,0 0.3,0 0.1,0 0.2,0 0.3,-0.1 0.2,-0.1 0.4,-0.1 0.5,-0.3 0.1,-0.1 0.3,-0.2 0.4,-0.4 0,0 0.1,-0.1 0.1,-0.1 0.1,-0.1 0.2,-0.2 0.2,-0.4 0.1,-0.1 0.1,-0.2 0.2,-0.3 0,-0.1 0.1,-0.1 0.1,-0.2 0,-0.1 0.1,-0.2 0.1,-0.3 0,-0.1 0.1,-0.3 0.1,-0.4 0,-0.1 0,-0.3 0.1,-0.4 0,-0.1 0,-0.3 0.1,-0.5 0,-0.1 0,-0.3 0,-0.5 0,-0.1 0,-0.3 0,-0.4 0,-0.2 0,-0.3 0,-0.5 0,-0.2 0,-0.4 0,-0.5 0,-0.2 0,-0.4 0,-0.6 0,-0.2 0,-0.4 0,-0.7 0,-0.2 0,-0.5 0,-0.7 0,-0.3 0,-0.5 0,-0.8 0,-0.3 0,-0.6 0,-0.8 0,-0.3 0,-0.6 0,-0.9 0,-0.3 0,-0.7 0,-1 0,-0.3 0,-0.7 0,-1 0,-0.3 0,-0.7 0,-1.1 0,-0.4 0,-0.7 0,-1.1 0,-0.4 0,-0.7 0,-1.1 0,-0.4 0,-0.7 0,-1.1 0,-0.4 0,-0.8 0,-1.1 0,-0.4 0,-0.8 0,-1.1 0,-0.4 0,-0.8 0,-1.2 0,-0.4 0,-0.8 0,-1.2 0,-0.4 0,-0.8 0,-1.3 0,-0.4 0,-0.9 0,-1.3 0,-0.5 0,-0.9 0,-1.3 0,-0.5 0,-0.9 0,-1.4 0,-0.5 0,-0.9 0,-1.4 0,-0.4 0,-0.9 0,-1.3 0,-0.4 0,-0.8 0,-1.3 0,-0.4 0,-0.8 0,-1.3 0,-0.4 0,-0.8 0,-1.2 0,-0.4 0,-0.8 0,-1.2 0,-0.4 0,-0.8 0,-1.2 0,-0.4 0,-0.8 0,-1.1 0,-0.4 0,-0.8 0,-1.1 0,-0.4 0,-0.7 0,-1.1 0,-0.4 0,-0.7 0,-1.1 0,-0.4 0,-0.7 0,-1.1 0,-0.3 0,-0.7 0,-1.1 0,-0.4 0,-0.7 0,-1.1 0,-0.3 0,-0.7 0,-1 0,-0.3 0,-0.6 0,-0.9 0,-0.3 0,-0.6 0,-0.9 0,-0.3 0,-0.6 0,-0.9 0,-0.3 0,-0.6 0,-0.9 0,-0.3 0,-0.6 0,-0.9 0,-0.3 0,-0.6 0,-0.9 0,-0.3 0,-0.6 0,-0.9 0,-0.3 0,-0.6 0,-0.9 0,-0.3 0,-0.6 0,-0.8 0,-0.3 0,-0.6 0,-0.8 0,-0.3 0,-0.5 0,-0.8 0,-0.2 0,-0.5 0,-0.7 0,-0.2 0,-0.5 0,-0.7 0,-0.2 0,-0.4 0,-0.7 0,-0.2 0,-0.4 0,-0.6 0,-0.2 0,-0.3 0,-0.5 0,-0.1 0,-0.3 0,-0.4 0,-0.1 0,-0.2 0,-0.3 0,-0.1 0,-0.3 0,-0.4 0,-0.1 -0.1,-0.3 -0.1,-0.4 -0.1,-0.3 -0.2,-0.5 -0.4,-0.7 -0.3,-0.2 -0.6,-0.4 -1,-0.4 -0.1,0 -0.1,0 -0.2,0 0,0 -0.1,0 -0.1,0 0,0 -0.1,0 -0.1,0 0,0 -0.1,0 -0.1,0 0,0 -0.1,0 -0.1,0 0,0 -0.1,0 -0.1,0 0,0 -0.1,0 -0.1,0 -0.1,0 -0.1,0 -0.1,0 -0.1,0 -0.1,0 -0.1,0 -0.1,0 -0.1,0 -0.2,0 -0.1,0 -0.1,0 -0.2,0 -0.1,0 -0.1,0 -0.2,0 -0.1,0 -0.1,0 -0.2,0 -0.1,0 -0.2,0 -0.2,0 -0.1,0 -0.1,0 -0.2,0 -0.1,0 -0.2,0 -0.3,0 -0.1,0 -0.2,0 -0.3,0 -0.1,0 -0.2,0 -0.3,0 -0.1,0 -0.2,0 -0.3,0 -0.1,0 -0.3,0 -0.4,0 -0.1,0 -0.3,0 -0.4,0 -0.1,0 -0.3,0 -0.5,0 -0.2,0 -0.3,0 -0.5,0 -0.2,0 -0.3,0 -0.5,0 -0.2,0 -0.3,0 -0.5,0 -0.2,0 -0.4,0 -0.6,0 -0.2,0 -0.4,0 -0.5,0 -0.2,0 -0.3,0 -0.5,0 -0.1,0 -0.3,0 -0.4,0 -0.1,0 -0.3,0 -0.4,0 -0.1,0 -0.3,0 -0.4,0 -0.1,0 -0.3,0 -0.4,0 0,0 0.3,3 0.3,3 z"
     id="path28" />
  <text
     x="86.3854"
     y="100.365"
     style="font-weight:900;font-size:20px"
     id="text30">1</text>
  <text
     x="85.8854"
     y="70.265"
     style="font-weight:900;font-size:20px"
     id="text32">4</text>
  <text
     x="120.986"
     y="70.265"
     style="font-weight:900;font-size:20px"
     id="text34">0</text>
  <text
     x="112.586"
     y="100.365"
     style="font-weight:900;font-size:20px"
     id="text36">-9</text>
  <text
     x="175.317"
     y="82.7192"
     style="font-size:28px;fill:#0197fd"
     id="text38">=</text>
  <path
     style="fill:#0169c9;stroke:#636466;stroke-width:0.14;stroke-linejoin:round"
     d="m 222.886,52.165 c -0.1,0 -0.2,0 -0.3,0 -0.1,0 -0.3,0 -0.4,0 -0.1,0 -0.3,0 -0.4,-0.1 -0.1,0 -0.3,0 -0.4,0 -0.1,0 -0.3,0 -0.4,0 -0.2,0 -0.3,0 -0.5,0 -0.2,0 -0.3,0 -0.5,0 -0.2,0 -0.3,0 -0.5,0 -0.2,0 -0.3,0 -0.5,0 -0.2,0 -0.3,0 -0.5,0 -0.1,0 -0.3,0 -0.4,0 -0.1,0 -0.3,0 -0.4,0 -0.1,0 -0.3,0 -0.4,0 -0.1,0 -0.2,0 -0.3,0 -0.1,0 -0.2,0 -0.3,0 -0.1,0 -0.2,0 -0.3,0 -0.1,0 -0.2,0 -0.3,0 -0.1,0 -0.2,0 -0.3,0 -0.1,0 -0.2,0 -0.2,0 -0.1,0 -0.1,0 -0.2,0 -0.1,0 -0.1,0 -0.2,0 -0.1,0 -0.1,0 -0.2,0 -0.1,0 -0.1,0 -0.2,0 -0.1,0 -0.1,0 -0.1,0 0,0 -0.1,0 -0.1,0 0,0 -0.1,0 -0.1,0 0,0 -0.1,0 -0.1,0 0,0 -0.1,0 -0.1,0 0,0 -0.1,0 -0.1,0 0,0 -0.1,0 -0.1,0 0,0 -0.1,0 -0.1,0 -0.1,0 0,0 0.1,0 0.3,0 0.6,-0.1 0.8,-0.3 0.2,-0.1 0.3,-0.3 0.4,-0.5 0,0 0,-0.1 0,-0.1 0,0 0,0 0,0 0,0.1 0,0.1 0,0.2 0,0.1 0,0.3 0,0.4 0,0.1 0,0.3 0,0.5 0,0.2 0,0.3 0,0.5 0,0.2 0,0.4 0,0.6 0,0.2 0,0.5 0,0.7 0,0.3 0,0.5 0,0.8 0,0.3 0,0.5 0,0.8 0,0.3 0,0.6 0,0.8 0,0.3 0,0.6 0,0.9 0,0.3 0,0.6 0,0.9 0,0.3 0,0.6 0,0.9 0,0.3 0,0.6 0,0.9 0,0.3 0,0.6 0,0.9 0,0.3 0,0.6 0,0.9 0,0.3 0,0.6 0,0.9 0,0.3 0,0.6 0,0.9 0,0.3 0,0.7 0,1 0,0.3 0,0.7 0,1 0,0.3 0,0.7 0,1 0,0.3 0,0.7 0,1.1 0,0.4 0,0.7 0,1.1 0,0.4 0,0.7 0,1.1 0,0.4 0,0.7 0,1.1 0,0.4 0,0.8 0,1.1 0,0.4 0,0.8 0,1.1 0,0.4 0,0.8 0,1.2 0,0.4 0,0.8 0,1.2 0,0.4 0,0.8 0,1.2 0,0.4 0,0.8 0,1.3 0,0.4 0,0.8 0,1.3 0,0.4 0,0.9 0,1.3 0,0.5 0,0.9 0,1.4 0,0.5 0,0.9 0,1.4 0,0.5 0,0.9 0,1.3 0,0.4 0,0.9 0,1.3 0,0.4 0,0.8 0,1.3 0,0.4 0,0.8 0,1.2 0,0.4 0,0.8 0,1.2 0,0.4 0,0.8 0,1.2 0,0.4 0,0.7 0,1.1 0,0.4 0,0.7 0,1.1 0,0.4 0,0.7 0,1.1 0,0.4 0,0.7 0,1.1 0,0.4 0,0.7 0,1.1 0,0.3 0,0.7 0,1 0,0.3 0,0.7 0,1 0,0.3 0,0.6 0,0.9 0,0.3 0,0.6 0,0.8 0,0.3 0,0.5 0,0.8 0,0.2 0,0.5 0,0.7 0,0.2 0,0.4 0,0.7 0,0.2 0,0.4 0,0.6 0,0.2 0,0.4 0,0.5 0,0.2 0,0.3 0,0.5 0,0.1 0,0.3 0,0.4 0,0.1 0,0.2 0,0.3 0,0.1 0,0.2 0,0.3 0,0.1 0,0.2 0,0.2 0,0 0,0.1 0,0.1 0,0 0,0.1 0,0.1 0,0.1 0.1,0.1 0.1,0.2 0,0 0,0 0,0 0,0 0,-0.1 -0.1,-0.1 0,0.1 0.1,0.1 0.1,0.1 -0.1,-0.1 -0.1,-0.1 -0.2,-0.2 -0.1,-0.1 -0.2,-0.1 -0.2,-0.1 -0.1,0 0,0 0,0 0,0 0.1,0 0.1,0 0,0 0.1,0 0.1,0 0.1,0 0.1,0 0.2,0 0.1,0 0.2,0 0.3,0 0.1,0 0.2,0 0.3,0 0.1,0 0.2,0 0.3,0 0.1,0 0.2,0 0.3,0 0.1,0 0.2,0 0.3,0 0.1,0 0.2,0 0.3,0 0.1,0 0.2,0 0.3,0 0.1,0 0.2,0 0.3,0 0.1,0 0.2,0 0.3,0 0.1,0 0.2,0 0.3,0 0.1,0 0.2,0 0.3,0 0.1,0 0.2,0 0.3,0 0.1,0 0.2,0 0.3,0 0.1,0 0.2,0 0.3,0 0.1,0 0.2,0 0.4,0 0.1,0 0.2,0 0.3,0 0.1,0 0.2,0 0.3,0 0.1,0 0.2,0 0.3,0 0.1,0 0.2,0 0.3,0 0.1,0 0.2,0 0.2,0 0.1,0 0.2,0 0.3,0 0.1,0 0.2,0 0.3,0 0.1,0 0.1,0 0.2,0 0.1,0 0.2,0 0.2,0 0.1,0 0.2,0 0.2,0 0.1,0 0.1,0 0.2,0 0.1,0 0.1,0 0.2,0 0.1,0 0.1,0 0.2,0 0.1,0 0.1,0 0.2,0 0.1,0 0.1,0 0.2,0 0,0 0,0 0.1,0 0,0 0.1,3 0.1,3 v 0 c 0,0 0,0 -0.1,0 -0.1,0 -0.1,0 -0.2,0 -0.1,0 -0.1,0 -0.2,0 -0.1,0 -0.1,0 -0.2,0 -0.1,0 -0.1,0 -0.2,0 -0.1,0 -0.1,0 -0.2,0 -0.1,0 -0.2,0 -0.2,0 -0.1,0 -0.2,0 -0.3,0 -0.1,0 -0.2,0 -0.3,0 -0.1,0 -0.2,0 -0.3,0 -0.1,0 -0.2,0 -0.3,0 -0.1,0 -0.2,0 -0.4,0 -0.1,0 -0.2,0 -0.3,0 -0.1,0 -0.2,0 -0.3,0 -0.1,0 -0.2,0 -0.3,0 -0.1,0 -0.2,0 -0.3,0 -0.1,0 -0.2,0 -0.3,0 -0.1,0 -0.2,0 -0.3,0 -0.1,0 -0.2,0 -0.3,0 -0.1,0 -0.2,0 -0.3,0 -0.1,0 -0.2,0 -0.3,0 -0.1,0 -0.2,0 -0.3,0 -0.1,0 -0.2,0 -0.3,0 -0.1,0 -0.2,0 -0.3,0 -0.1,0 -0.2,0 -0.3,0 -0.1,0 -0.2,0 -0.3,0 -0.1,0 -0.2,0 -0.2,0 -0.1,0 -0.2,0 -0.3,0 -0.1,0 -0.2,0 -0.3,0 -0.1,0 -0.2,0 -0.3,0 -0.1,0 -0.2,0 -0.3,0 -0.1,0 -0.2,0 -0.3,0 -0.1,0 -0.2,0 -0.3,-0.1 -0.1,0 -0.2,0 -0.3,-0.1 -0.1,0 -0.2,0 -0.3,-0.1 -0.2,-0.1 -0.4,-0.1 -0.5,-0.3 -0.1,-0.1 -0.3,-0.2 -0.4,-0.4 0,-0.1 -0.1,-0.1 -0.1,-0.2 -0.1,-0.1 -0.2,-0.2 -0.2,-0.4 -0.1,-0.1 -0.1,-0.2 -0.1,-0.3 0,-0.1 -0.1,-0.1 -0.1,-0.2 0,-0.1 -0.1,-0.2 -0.1,-0.3 0,-0.1 -0.1,-0.3 -0.1,-0.4 0,-0.1 0,-0.3 0,-0.4 0,-0.1 0,-0.3 0,-0.5 0,-0.1 0,-0.3 0,-0.5 0,-0.1 0,-0.3 0,-0.4 0,-0.2 0,-0.3 0,-0.5 0,-0.2 0,-0.4 0,-0.5 0,-0.2 0,-0.4 0,-0.6 0,-0.2 0,-0.4 0,-0.7 0,-0.2 0,-0.5 0,-0.7 0,-0.3 0,-0.5 0,-0.8 0,-0.3 0,-0.6 0,-0.8 0,-0.3 0,-0.6 0,-0.9 0,-0.3 0,-0.7 0,-1 0,-0.3 0,-0.7 0,-1 0,-0.3 0,-0.7 0,-1.1 0,-0.4 0,-0.7 0,-1.1 0,-0.4 0,-0.7 0,-1.1 0,-0.4 0,-0.7 0,-1.1 0,-0.4 0,-0.8 0,-1.1 0,-0.4 0,-0.8 0,-1.1 0,-0.4 0,-0.8 0,-1.2 0,-0.4 0,-0.8 0,-1.2 0,-0.4 0,-0.8 0,-1.3 0,-0.4 0,-0.9 0,-1.3 0,-0.4 0,-0.9 0,-1.3 0,-0.5 0,-0.9 0,-1.4 0,-0.5 0,-0.9 0,-1.4 0,-0.4 0,-0.9 0,-1.3 0,-0.4 0,-0.9 0,-1.3 0,-0.4 0,-0.8 0,-1.3 0,-0.4 0,-0.8 0,-1.2 0,-0.4 0,-0.8 0,-1.2 0,-0.4 0,-0.8 0,-1.2 0,-0.4 0,-0.8 0,-1.1 0,-0.4 0,-0.7 0,-1.1 0,-0.4 0,-0.7 0,-1.1 0,-0.4 0,-0.7 0,-1.1 0,-0.4 0,-0.7 0,-1.1 0,-0.4 0,-0.7 0,-1.1 0,-0.4 0,-0.7 0,-1.1 0,-0.3 0,-0.7 0,-1 0,-0.3 0,-0.6 0,-0.9 0,-0.3 0,-0.6 0,-0.9 0,-0.3 0,-0.6 0,-0.9 0,-0.3 0,-0.6 0,-0.9 0,-0.3 0,-0.6 0,-0.9 0,-0.3 0,-0.6 0,-0.9 0,-0.3 0,-0.6 0,-0.9 0,-0.3 0,-0.6 0,-0.9 0,-0.3 0,-0.6 0,-0.8 0,-0.3 0,-0.6 0,-0.8 0,-0.3 0,-0.5 0,-0.8 0,-0.2 0,-0.5 0,-0.7 0,-0.2 0,-0.5 0,-0.7 0,-0.2 0,-0.4 0,-0.7 0,-0.2 0,-0.4 0,-0.6 0,-0.2 0,-0.3 0,-0.5 0,-0.1 0,-0.3 0,-0.4 0,-0.1 0,-0.2 0,-0.3 0,-0.1 0,-0.3 0.1,-0.4 0,-0.1 0.1,-0.3 0.1,-0.4 0.1,-0.3 0.2,-0.5 0.5,-0.7 0.3,-0.2 0.6,-0.4 1,-0.4 0.1,0 0.1,0 0.2,0 0,0 0.1,0 0.1,0 0,0 0.1,0 0.1,0 0,0 0.1,0 0.1,0 0,0 0.1,0 0.1,0 0,0 0.1,0 0.1,0 0,0 0.1,0 0.1,0 0.1,0 0.1,0 0.1,0 0.1,0 0.1,0 0.1,0 0.1,0 0.1,0 0.2,0 0.1,0 0.1,0 0.2,0 0.1,0 0.1,0 0.2,0 0.1,0 0.1,0 0.2,0 0.1,0 0.2,0 0.2,0 0.1,0 0.1,0 0.2,0 0.1,0 0.2,0 0.3,0 0.1,0 0.2,0 0.3,0 0.1,0 0.2,0 0.3,0 0.1,0 0.2,0 0.3,0 0.1,0 0.3,0 0.4,0 0.1,0 0.3,0 0.4,0 0.2,0 0.3,0 0.5,0 0.2,0 0.3,0 0.5,0 0.2,0 0.3,0 0.5,0 0.2,0 0.3,0 0.5,0 0.2,0 0.4,0 0.6,0 0.2,0 0.4,0 0.5,0 0.2,0 0.3,0 0.5,0 0.1,0 0.3,0 0.4,0 0.1,0 0.3,0 0.4,0 0.1,0 0.3,0 0.4,0.1 0.1,0 0.3,0 0.4,0 0,0 -0.4,3 -0.4,3 z"
     id="path40" />
  <path
     style="fill:#0169c9;stroke:#636466;stroke-width:0.14;stroke-linejoin:round"
     d="m 288.686,51.965 c 0.1,0 0.2,0 0.3,0 0.1,0 0.3,0 0.4,0 0.1,0 0.3,0 0.4,0 0.1,0 0.3,0 0.4,0 0.1,0 0.3,0 0.4,0 0.2,0 0.3,0 0.5,0 0.2,0 0.3,0 0.5,0 0.2,0 0.3,0 0.5,0 0.2,0 0.3,0 0.5,0 0.2,0 0.3,0 0.5,0 0.1,0 0.3,0 0.4,0 0.1,0 0.3,0 0.4,0 0.1,0 0.3,0 0.4,0 0.1,0 0.2,0 0.3,0 0.1,0 0.2,0 0.3,0 0.1,0 0.2,0 0.3,0 0.1,0 0.2,0 0.3,0 0.1,0 0.2,0 0.3,0 0.1,0 0.2,0 0.2,0 0.1,0 0.1,0 0.2,0 0.1,0 0.1,0 0.2,0 0.1,0 0.1,0 0.2,0 0.1,0 0.1,0 0.2,0 0.1,0 0.1,0 0.1,0 0,0 0.1,0 0.1,0 0,0 0.1,0 0.1,0 0,0 0.1,0 0.1,0 0,0 0.1,0 0.1,0 0,0 0.1,0 0.1,0 0,0 0.1,0 0.1,0 0,0 0.1,0 0.1,0 0.1,0 0,0 -0.1,0 -0.3,0 -0.6,-0.2 -0.8,-0.3 -0.2,-0.1 -0.3,-0.3 -0.3,-0.5 0,0 0,-0.1 0,-0.1 0,0 0,0 0,0 0,0.1 0,0.1 0,0.2 0,0.1 0,0.3 0,0.4 0,0.2 0,0.3 0,0.5 0,0.2 0,0.3 0,0.5 0,0.2 0,0.4 0,0.6 0,0.2 0,0.5 0,0.7 0,0.3 0,0.5 0,0.8 0,0.3 0,0.5 0,0.8 0,0.3 0,0.5 0,0.8 0,0.3 0,0.6 0,0.8 0,0.3 0,0.6 0,0.9 0,0.3 0,0.6 0,0.9 0,0.3 0,0.6 0,0.9 0,0.3 0,0.6 0,0.9 0,0.3 0,0.6 0,0.9 0,0.3 0,0.6 0,0.9 0,0.3 0,0.6 0,0.9 0,0.3 0,0.7 0,1 0,0.3 0,0.7 0,1 0,0.3 0,0.7 0,1 0,0.3 0,0.7 0,1.1 0,0.4 0,0.7 0,1.1 0,0.4 0,0.7 0,1.1 0,0.4 0,0.7 0,1.1 0,0.4 0,0.8 0,1.1 0,0.4 0,0.8 0,1.1 0,0.4 0,0.8 0,1.2 0,0.4 0,0.8 0,1.2 0,0.4 0,0.8 0,1.2 0,0.4 0,0.8 0,1.3 0,0.4 0,0.8 0,1.3 0,0.4 0,0.9 0,1.3 0,0.5 0,0.9 0,1.4 0,0.5 0,0.9 0,1.4 0,0.5 0,0.9 0,1.3 0,0.4 0,0.9 0,1.3 0,0.4 0,0.8 0,1.3 0,0.4 0,0.8 0,1.2 0,0.4 0,0.8 0,1.2 0,0.4 0,0.8 0,1.2 0,0.4 0,0.7 0,1.1 0,0.4 0,0.7 0,1.1 0,0.4 0,0.7 0,1.1 0,0.3 0,0.7 0,1.1 0,0.4 0,0.7 0,1.1 0,0.3 0,0.7 0,1 0,0.3 0,0.7 0,1 0,0.3 0,0.6 0,0.9 0,0.3 0,0.6 0,0.8 0,0.3 0,0.5 0,0.8 0,0.2 0,0.5 0,0.7 0,0.2 0,0.4 0,0.7 0,0.2 0,0.4 0,0.6 0,0.2 0,0.4 0,0.5 0,0.2 0,0.3 0,0.5 0,0.1 0,0.3 0,0.4 0,0.1 0,0.2 0,0.3 0,0.1 0,0.2 0,0.3 0,0.1 0,0.2 0,0.2 0,0 0,0.1 0,0.1 0,0.1 0,0.1 0,0.1 0,0.1 -0.1,0.1 -0.1,0.2 0,0 0,0 0,0 0,0 0,-0.1 0.1,-0.1 0,0 -0.1,0.1 -0.1,0.1 0.1,-0.1 0.1,-0.1 0.2,-0.1 0.1,-0.1 0.2,-0.1 0.3,-0.1 0.1,0 0,0 0,0 0,0 -0.1,0 -0.1,0 -0.1,0 -0.1,0 -0.1,0 -0.1,0 -0.1,0 -0.2,0 -0.1,0 -0.2,0 -0.3,0 -0.1,0 -0.2,0 -0.3,0 -0.1,0 -0.2,0 -0.3,0 -0.1,0 -0.2,0 -0.3,0 -0.1,0 -0.2,0 -0.3,0 -0.1,0 -0.2,0 -0.3,0 -0.1,0 -0.2,0 -0.3,0 -0.1,0 -0.2,0 -0.3,0 -0.1,0 -0.2,0 -0.3,0 -0.1,0 -0.2,0 -0.3,0 -0.1,0 -0.2,0 -0.3,0 -0.1,0 -0.2,0 -0.3,0 -0.1,0 -0.2,0 -0.3,0 -0.1,0 -0.2,0 -0.3,0 -0.1,0 -0.2,0 -0.4,0 -0.1,0 -0.2,0 -0.3,0 -0.1,0 -0.2,0 -0.3,0 -0.1,0 -0.2,0 -0.3,0 -0.1,0 -0.2,0 -0.3,0 -0.1,0 -0.2,0 -0.2,0 -0.1,0 -0.2,0 -0.3,0 -0.1,0 -0.2,0 -0.3,0 -0.1,0 -0.1,0 -0.2,0 -0.1,0 -0.2,0 -0.2,0 -0.1,0 -0.2,0 -0.2,0 -0.1,0 -0.1,0 -0.2,0 -0.1,0 -0.1,0 -0.2,0 -0.1,0 -0.1,0 -0.2,0 -0.1,0 -0.1,0 -0.2,0 -0.1,0 -0.1,0 -0.2,0 0,0 0,0 -0.1,0 0,0 -0.2,3 -0.2,3 v 0 c 0,0 0,0 0.1,0 0.1,0 0.1,0 0.2,0 0.1,0 0.1,0 0.2,0 0.1,0 0.1,0 0.2,0 0.1,0 0.1,0 0.2,0 0.1,0 0.1,0 0.2,0 0.1,0 0.2,0 0.2,0 0.1,0 0.2,0 0.3,0 0.1,0 0.2,0 0.3,0 0.1,0 0.2,0 0.3,0 0.1,0 0.2,0 0.3,0 0.1,0 0.2,0 0.4,0 0.1,0 0.2,0 0.3,0 0.1,0 0.2,0 0.3,0 0.1,0 0.2,0 0.3,0 0.1,0 0.2,0 0.3,0 0.1,0 0.2,0 0.3,0 0.1,0 0.2,0 0.3,0 0.1,0 0.2,0 0.3,0 0.1,0 0.2,0 0.3,0 0.1,0 0.2,0 0.3,0 0.1,0 0.2,0 0.3,0 0.1,0 0.2,0 0.3,0 0.1,0 0.2,0 0.3,0 0.1,0 0.2,0 0.3,0 0.1,0 0.2,0 0.3,0 0.1,0 0.2,0 0.2,0 0.1,0 0.2,0 0.3,0 0.1,0 0.2,0 0.3,0 0.1,0 0.2,0 0.3,0 0.1,0 0.2,0 0.3,0 0.1,0 0.2,0 0.3,0 0.1,0 0.2,0 0.3,0 0.1,0 0.2,0 0.3,0 0.1,0 0.2,0 0.3,-0.1 0.2,-0.1 0.4,-0.1 0.5,-0.3 0.1,-0.1 0.3,-0.2 0.4,-0.4 0,0 0.1,-0.1 0.1,-0.1 0.1,-0.1 0.2,-0.2 0.2,-0.4 0.1,-0.1 0.1,-0.2 0.2,-0.3 0,-0.1 0.1,-0.1 0.1,-0.2 0,-0.1 0.1,-0.2 0.1,-0.3 0,-0.1 0.1,-0.3 0.1,-0.4 0,-0.1 0,-0.3 0.1,-0.4 0,-0.1 0,-0.3 0,-0.5 0,-0.1 0,-0.3 0,-0.5 0,-0.1 0,-0.3 0,-0.5 0,-0.2 0,-0.3 0,-0.5 0,-0.2 0,-0.4 0,-0.5 0,-0.2 0,-0.4 0,-0.6 0,-0.2 0,-0.4 0,-0.7 0,-0.2 0,-0.5 0,-0.7 0,-0.3 0,-0.5 0,-0.8 0,-0.3 0,-0.6 0,-0.8 0,-0.3 0,-0.6 0,-0.9 0,-0.3 0,-0.7 0,-1 0,-0.3 0,-0.7 0,-1.1 0,-0.3 0,-0.7 0,-1.1 0,-0.3 0,-0.7 0,-1.1 0,-0.4 0,-0.7 0,-1.1 0,-0.4 0,-0.7 0,-1.1 0,-0.4 0,-0.8 0,-1.1 0,-0.4 0,-0.8 0,-1.1 0,-0.4 0,-0.8 0,-1.2 0,-0.4 0,-0.8 0,-1.2 0,-0.4 0,-0.8 0,-1.3 0,-0.4 0,-0.9 0,-1.3 0,-0.4 0,-0.9 0,-1.3 0,-0.5 0,-0.9 0,-1.4 0,-0.5 0,-0.9 0,-1.4 0,-0.4 0,-0.9 0,-1.3 0,-0.4 0,-0.9 0,-1.3 0,-0.4 0,-0.8 0,-1.3 0,-0.4 0,-0.8 0,-1.2 0,-0.4 0,-0.8 0,-1.2 0,-0.4 0,-0.8 0,-1.2 0,-0.4 0,-0.8 0,-1.1 0,-0.4 0,-0.7 0,-1.1 0,-0.4 0,-0.8 0,-1.1 0,-0.4 0,-0.7 0,-1.1 0,-0.3 0,-0.7 0,-1.1 0,-0.4 0,-0.7 0,-1.1 0,-0.3 0,-0.7 0,-1.1 0,-0.3 0,-0.7 0,-1 0,-0.3 0,-0.6 0,-1 0,-0.3 0,-0.6 0,-0.9 0,-0.3 0,-0.6 0,-0.9 0,-0.3 0,-0.6 0,-0.9 0,-0.3 0,-0.6 0,-0.9 0,-0.3 0,-0.6 0,-0.9 0,-0.3 0,-0.6 0,-0.9 0,-0.3 0,-0.6 0,-0.9 0,-0.3 0,-0.6 0,-0.8 0,-0.3 0,-0.6 0,-0.8 0,-0.3 0,-0.5 0,-0.8 0,-0.3 0,-0.5 0,-0.7 0,-0.2 0,-0.5 0,-0.7 0,-0.2 0,-0.4 0,-0.6 0,-0.2 0,-0.4 0,-0.6 0,-0.2 0,-0.3 0,-0.5 0,-0.1 0,-0.3 0,-0.4 0,-0.1 0,-0.2 0,-0.3 0,-0.1 0,-0.3 0,-0.4 0,-0.1 -0.1,-0.3 -0.1,-0.4 -0.1,-0.3 -0.2,-0.5 -0.4,-0.7 -0.3,-0.2 -0.6,-0.4 -1,-0.4 -0.1,0 -0.1,0 -0.2,0 0,0 -0.1,0 -0.1,0 0,0 -0.1,0 -0.1,0 0,0 -0.1,0 -0.1,0 0,0 -0.1,0 -0.1,0 0,0 -0.1,0 -0.1,0 -0.1,0 -0.1,0 -0.1,0 -0.1,0 -0.1,0 -0.1,0 -0.1,0 -0.1,0 -0.1,0 -0.1,0 -0.1,0 -0.2,0 -0.1,0 -0.1,0 -0.2,0 -0.1,0 -0.1,0 -0.2,0 -0.1,0 -0.1,0 -0.2,0 -0.1,0 -0.2,0 -0.2,0 -0.1,0 -0.1,0 -0.2,0 -0.1,0 -0.2,0 -0.3,0 -0.1,0 -0.2,0 -0.3,0 -0.1,0 -0.2,0 -0.3,0 -0.1,0 -0.2,0 -0.3,0 -0.1,0 -0.3,0 -0.4,0 -0.1,0 -0.3,0 -0.4,0 -0.2,0 -0.3,0 -0.5,0 -0.2,0 -0.3,0 -0.5,0 -0.2,0 -0.3,0 -0.5,0 -0.2,0 -0.3,0 -0.5,0 -0.2,0 -0.4,0 -0.6,0 -0.2,0 -0.4,0 -0.5,0 -0.2,0 -0.3,0 -0.5,0 -0.1,0 -0.3,0 -0.4,0.1 -0.1,0 -0.3,0 -0.4,0 -0.1,0 -0.3,0 -0.4,0 -0.1,0 -0.3,0 -0.4,0 0,0 0.3,3 0.3,3 z"
     id="path42" />
  <text
     x="230.386"
     y="100.865"
     style="font-weight:900;font-size:20px"
     id="text44">2</text>
  <text
     x="229.886"
     y="70.765"
     style="font-weight:900;font-size:20px"
     id="text46">8</text>
  <text
     x="268.386"
     y="71.665"
     style="font-weight:900;font-size:20px"
     id="text48">0</text>
  <text
     x="123.685"
     y="16.8119"
     style="font-weight:900;font-size:23.0924px;fill:#eec73e;stroke-width:0.550002"
     id="text50">2x4=8</text>
  <path
     style="fill:#eec73e"
     d="m 87.5854,43.165 c 0.1,-0.2 0.3,-0.4 0.4,-0.6 0.2,-0.2 0.4,-0.5 0.6,-0.7 0.3,-0.3 0.5,-0.6 0.8,-0.9 0.4,-0.4 0.8,-0.8 1.2,-1.1 0.5,-0.4 1,-0.9 1.5,-1.3 0.6,-0.5 1.1,-0.9 1.7,-1.3 0.6,-0.5 1.3,-0.9 2,-1.4 0.7,-0.5 1.5,-1 2.2,-1.5 0.8,-0.5 1.7,-1 2.4996,-1.5 0.9,-0.5 1.901,-1 2.801,-1.5 1,-0.5 2,-1 3,-1.4 1.1,-0.5 2.1,-1 3.2,-1.4 1.1,-0.5 2.3,-0.9 3.4,-1.4 1.2,-0.4 2.4,-0.8 3.5,-1.2 1.2,-0.4 2.4,-0.8 3.7,-1.1 1.3,-0.4 2.5,-0.7 3.8,-1 1.3,-0.3 2.6,-0.6 3.9,-0.9 1.3,-0.3 2.6,-0.5 3.9,-0.7 1.3,-0.2 2.6,-0.4 3.9,-0.6 1.3,-0.2 2.6,-0.4 3.9,-0.5 1.3,-0.1 2.7,-0.3 4,-0.4 1.4,-0.1 2.7,-0.2 4.1,-0.2 1.4,-0.1 2.8,-0.1 4.1,-0.1 1.4,0 2.8,0 4.1,0 1.4,0 2.7,0.1 4.1,0.1 1.3,0.1 2.7,0.1 4,0.2 1.3,0.1 2.6,0.2 3.9,0.3 1.3,0.1 2.6,0.3 3.9,0.4 1.3,0.1 2.6,0.3 3.8,0.5 1.3,0.2 2.5,0.4 3.8,0.7 1.2,0.2 2.4,0.5 3.7,0.8 1.2,0.3 2.4,0.6 3.5,0.9 1.2,0.3 2.3,0.6 3.4,1 1.1,0.3 2.2,0.7 3.3,1.1 1.1,0.4 2.1,0.8 3.1,1.2 1,0.4 2,0.8 3,1.2 1,0.4 1.9,0.8 2.9,1.2 0.9,0.4 1.8,0.8 2.7,1.3 0.9,0.4 1.7,0.8 2.6,1.3 0.8,0.4 1.6,0.8 2.4,1.3 0.8,0.4 1.5,0.8 2.2,1.2 0.7,0.4 1.4,0.8 2.1,1.2 0.7,0.4 1.3,0.8 2,1.2 0.6,0.4 1.2,0.8 1.9,1.2 0.6,0.4 1.2,0.8 1.8,1.2 0.6,0.4 1.1,0.8 1.6,1.1 0.5,0.4 1,0.7 1.5,1.1 0.5,0.3 0.9,0.7 1.4,1 0.4,0.3 0.8,0.6 1.3,0.9 0.3,0.2 0.7,0.5 1,0.7 0,0 -2.3,3.2 -2.3,3.2 v 0 c -0.3,-0.2 -0.6,-0.5 -1,-0.7 -0.4,-0.3 -0.8,-0.6 -1.3,-0.9 -0.5,-0.3 -0.9,-0.7 -1.4,-1 -0.5,-0.3 -1,-0.7 -1.5,-1.1 -0.5,-0.4 -1,-0.7 -1.6,-1.1 -0.5,-0.4 -1.1,-0.7 -1.7,-1.1 -0.6,-0.4 -1.2,-0.8 -1.8,-1.1 -0.6,-0.4 -1.3,-0.8 -1.9,-1.2 -0.7,-0.4 -1.4,-0.8 -2,-1.2 -0.7,-0.4 -1.4,-0.8 -2.2,-1.2 -0.8,-0.4 -1.5,-0.8 -2.3,-1.2 -0.8,-0.4 -1.6,-0.8 -2.5,-1.2 -0.9,-0.4 -1.7,-0.8 -2.6,-1.2 -0.9,-0.4 -1.8,-0.8 -2.8,-1.2 -1,-0.4 -1.9,-0.8 -2.9,-1.2 -1,-0.4 -2,-0.8 -3,-1.1 -1,-0.4 -2.1,-0.7 -3.1,-1.1 -1.1,-0.3 -2.2,-0.7 -3.3,-0.9 -1.1,-0.3 -2.3,-0.6 -3.4,-0.8 -1.2,-0.3 -2.3,-0.5 -3.5,-0.8 -1.2,-0.2 -2.4,-0.5 -3.6,-0.6 -1.2,-0.2 -2.4,-0.3 -3.7,-0.5 -1.2,-0.1 -2.5,-0.3 -3.8,-0.4 -1.3,-0.1 -2.6,-0.2 -3.8,-0.3 -1.3,-0.1 -2.6,-0.2 -3.9,-0.2 -1.3,0 -2.6,-0.1 -4,-0.1 -1.3,0 -2.7,0 -4,0 -1.3,0 -2.7,0.1 -4,0.1 -1.3,0.1 -2.6,0.1 -4,0.2 -1.3,0.1 -2.6,0.2 -3.9,0.4 -1.3,0.1 -2.5,0.3 -3.8,0.5 -1.3,0.2 -2.6,0.4 -3.8,0.6 -1.3,0.2 -2.5,0.5 -3.8,0.7 -1.2,0.3 -2.5,0.5 -3.7,0.8 -1.2,0.3 -2.4,0.6 -3.6,1 -1.2,0.3 -2.4,0.7 -3.5,1.1 -1.1,0.4 -2.3,0.8 -3.4,1.2 -1.1,0.4 -2.2,0.8 -3.3,1.3 -1,0.4 -2.1,0.9 -3.1,1.4 -1,0.4 -1.9,0.9 -2.9,1.4 -0.9,0.5 -1.8,0.9 -2.6,1.4 -0.801,0.5 -1.601,0.9 -2.4006,1.4 -0.7,0.5 -1.4,0.9 -2.1,1.4 -0.6,0.4 -1.2,0.9 -1.8,1.3 -0.5,0.4 -1.1,0.8 -1.6,1.2 -0.4,0.4 -0.9,0.7 -1.3,1.1 -0.3,0.3 -0.7,0.6 -1,1 -0.2,0.3 -0.5,0.5 -0.7,0.8 -0.2,0.2 -0.3,0.4 -0.5,0.6 -0.1,0.1 -0.2,0.3 -0.3,0.4 0,0 -3.2,-2.4 -3.2,-2.4 z"
     id="path52" />
  <path
     style="fill:#eec73e;stroke-width:0.550001"
     d="m 23.1405,60.265 c 0,-0.2 0,-0.3 0,-0.5 0,-0.2 0.1044,-0.4 0.1044,-0.6 0,-0.3 0.1044,-0.5 0.1044,-0.8 0.1044,-0.3 0.1044,-0.6 0.2088,-0.9 0.1043,-0.4 0.2087,-0.7 0.2087,-1.1 0.1044,-0.4 0.2088,-0.8 0.3132,-1.3 0.1044,-0.5 0.2087,-0.9 0.3131,-1.4 0.1044,-0.5 0.3132,-1 0.4176,-1.5 0.1044,-0.5 0.3131,-1 0.4175,-1.5 0.2088,-0.5 0.3132,-1.1 0.5219,-1.6 0.2088,-0.6 0.4176,-1.1 0.5219,-1.6 0.2088,-0.6 0.4176,-1.1 0.6263,-1.6 0.2088,-0.5 0.4176,-1.1 0.7307,-1.6 0.2088,-0.5 0.522,-1 0.7307,-1.5 0.2088,-0.5 0.5219,-1 0.8351,-1.5 0.3131,-0.5 0.5219,-0.9 0.8351,-1.4 0.3131,-0.4 0.6263,-0.8 0.9394,-1.3 0.3132,-0.4 0.6263,-0.8 0.9395,-1.2 0.3131,-0.4 0.6263,-0.8 0.9394,-1.1 0.3132,-0.4 0.6263,-0.7 0.9395,-1.1 0.3131,-0.3 0.6263,-0.7 1.0438,-1 0.3132,-0.3 0.7307,-0.6 1.0439,-0.9 0.3131,-0.3 0.7307,-0.6 1.0438,-0.9 0.4175,-0.3 0.7307,-0.6 1.1482,-0.9 0.4176,-0.3 0.8351,-0.5 1.2526,-0.8 0.4176,-0.3 0.8351,-0.5 1.2527,-0.7 0.4175,-0.2 0.9394,-0.4 1.3569,-0.6 0.522,-0.2 0.9395,-0.4 1.4614,-0.6 0.5219,-0.2 1.0439,-0.3 1.5658,-0.5 0.5219,-0.1 1.0438,-0.3 1.5657,-0.4 0.522,-0.1 1.1483,-0.2 1.6702,-0.3 0.5219,-0.1 1.1482,-0.1 1.6701,-0.2 0.5219,-0.1 1.1483,-0.1 1.6702,-0.1 0.5219,0 1.1482,0 1.7745,0 0.6263,0 1.1482,0 1.7745,0 0.6263,0 1.1483,0.1 1.7746,0.1 0.6263,0 1.1482,0.1 1.7745,0.2 0.6263,0.1 1.1482,0.2 1.7745,0.3 0.5219,0.1 1.1482,0.2 1.6702,0.3 0.5219,0.1 1.1482,0.3 1.6701,0.4 0.5219,0.1 1.1482,0.3 1.6701,0.5 0.522,0.1 1.0439,0.3 1.5658,0.5 0.5219,0.2 1.0438,0.4 1.5658,0.6 0.5219,0.2 1.0438,0.4 1.5657,0.6 0.5219,0.2 0.9395,0.4 1.4614,0.6 0.4175,0.2 0.9395,0.4 1.4614,0.6 0.4175,0.2 0.9394,0.4 1.357,0.6 0.4175,0.2 0.9394,0.4 1.357,0.7 0.4175,0.2 0.835,0.4 1.357,0.7 0.4175,0.2 0.835,0.4 1.2526,0.7 0.4175,0.2 0.835,0.5 1.2526,0.7 0.4175,0.2 0.835,0.5 1.2526,0.7 0.4175,0.2 0.835,0.5 1.2526,0.7 0.4175,0.2 0.7307,0.5 1.1482,0.7 0.4175,0.2 0.7307,0.5 1.1482,0.7 0.4176,0.3 0.7307,0.5 1.1483,0.8 0.3131,0.3 0.7306,0.5 1.0438,0.7 0.3131,0.2 0.6263,0.5 0.9395,0.7 0.3131,0.2 0.6263,0.4 0.9394,0.7 0.3132,0.2 0.5219,0.4 0.8351,0.6 0.3131,0.2 0.5219,0.4 0.8351,0.6 0.2087,0.1 0.4175,0.3 0.6263,0.4 0,0 0.1043,3.2 0.1043,3.2 v 0 c -0.2087,-0.1 -0.4175,-0.3 -0.6263,-0.5 -0.3131,-0.2 -0.5219,-0.4 -0.835,-0.6 -0.3132,-0.2 -0.522,-0.4 -0.8351,-0.6 -0.3132,-0.2 -0.6263,-0.4 -0.9395,-0.6 -0.3131,-0.2 -0.6263,-0.5 -0.9394,-0.7 -0.3132,-0.3 -0.7307,-0.5 -1.0439,-0.7 -0.3131,-0.3 -0.7306,-0.5 -1.0438,-0.7 -0.3132,-0.2 -0.7307,-0.5 -1.0438,-0.7 -0.4176,-0.2 -0.7307,-0.5 -1.1483,-0.7 -0.4175,-0.2 -0.835,-0.5 -1.1482,-0.7 -0.4175,-0.2 -0.8351,-0.5 -1.1482,-0.7 -0.4175,-0.2 -0.8351,-0.5 -1.2526,-0.7 -0.4176,-0.2 -0.8351,-0.4 -1.2526,-0.7 -0.4176,-0.2 -0.8351,-0.4 -1.2526,-0.7 -0.4176,-0.2 -0.9395,-0.4 -1.357,-0.7 -0.4176,-0.2 -0.9395,-0.4 -1.357,-0.6 -0.4176,-0.2 -0.9395,-0.4 -1.357,-0.6 -0.5219,-0.2 -0.9395,-0.4 -1.4614,-0.6 -0.5219,-0.2 -0.9394,-0.4 -1.4614,-0.6 -0.5219,-0.2 -1.0438,-0.4 -1.5657,-0.5 -0.5219,-0.2 -1.0439,-0.3 -1.5658,-0.5 -0.5219,-0.2 -1.0438,-0.3 -1.5657,-0.4 -0.522,-0.1 -1.0439,-0.3 -1.6702,-0.4 -0.5219,-0.1 -1.1482,-0.2 -1.6701,-0.3 -0.522,-0.1 -1.1483,-0.2 -1.6702,-0.3 -0.5219,-0.1 -1.1482,-0.1 -1.6701,-0.2 -0.5219,0 -1.1482,-0.1 -1.6702,-0.1 -0.5219,0 -1.1482,0 -1.6701,0 -0.5219,0 -1.1482,0 -1.6702,0 -0.5219,0 -1.1482,0.1 -1.6701,0.1 -0.5219,0 -1.1482,0.1 -1.6701,0.2 -0.522,0.1 -1.0439,0.2 -1.5658,0.3 -0.5219,0.1 -1.0438,0.2 -1.5658,0.4 -0.5219,0.1 -1.0438,0.3 -1.4613,0.4 -0.522,0.2 -0.9395,0.3 -1.357,0.5 -0.4176,0.2 -0.9395,0.4 -1.357,0.6 -0.4176,0.2 -0.8351,0.4 -1.2526,0.7 -0.4176,0.2 -0.7307,0.5 -1.1483,0.8 -0.4175,0.3 -0.7306,0.5 -1.1482,0.8 -0.3131,0.3 -0.7307,0.6 -1.0438,0.9 -0.3132,0.3 -0.7307,0.6 -1.0439,0.9 -0.3131,0.3 -0.6263,0.6 -0.9394,0.9 -0.3132,0.3 -0.6263,0.7 -0.9395,1 -0.3131,0.3 -0.6263,0.7 -0.9394,1.1 -0.3132,0.4 -0.6263,0.8 -0.9395,1.1 -0.3131,0.4 -0.6263,0.8 -0.8351,1.2 -0.3131,0.4 -0.5219,0.8 -0.835,1.3 -0.2088,0.5 -0.5219,0.9 -0.7307,1.4 -0.2088,0.5 -0.5219,1 -0.7307,1.5 -0.2088,0.5 -0.4175,1 -0.6263,1.5 -0.2088,0.5 -0.4175,1 -0.6263,1.6 -0.2088,0.5 -0.4175,1.1 -0.5219,1.6 -0.2088,0.5 -0.3132,1.1 -0.5219,1.6 -0.1044,0.5 -0.3132,1 -0.4176,1.5 -0.1044,0.5 -0.3131,0.9 -0.4175,1.4 -0.1044,0.5 -0.2088,0.9 -0.3132,1.4 -0.1044,0.4 -0.2087,0.8 -0.3131,1.3 -0.1044,0.4 -0.2088,0.7 -0.2088,1.1 -0.1044,0.3 -0.1044,0.6 -0.2088,0.9 0,0.2 -0.1043,0.5 -0.1043,0.7 0,0.2 -0.1044,0.3 -0.1044,0.5 0,0.1 0,0.2 0,0.3 0,0 -2.5052,-2.2 -2.5052,-2.2 z"
     id="path54" />
  <path
     style="fill:#eec73e"
     d="m 205.786,40.265 c 0.2,-0.1 0.4,-0.1 0.5,-0.2 0.2,-0.1 0.4,-0.1 0.6,-0.1 0.2,0 0.4,-0.1 0.7,-0.1 0.2,0 0.5,-0.1 0.7,-0.1 0.3,0 0.6,-0.1 0.9,-0.1 0.3,0 0.6,0 0.9,0 0.3,0 0.6,0 0.9,0 0.3,0 0.6,0.1 0.9,0.1 0.3,0 0.6,0.1 0.9,0.1 0.3,0 0.6,0.1 0.9,0.1 0.3,0 0.6,0.1 0.9,0.2 0.3,0.1 0.6,0.1 0.9,0.2 0.3,0.1 0.6,0.1 0.9,0.2 0.3,0.1 0.6,0.2 0.8,0.2 0.3,0.1 0.5,0.2 0.8,0.2 0.2,0.1 0.5,0.1 0.7,0.2 0.2,0.1 0.4,0.1 0.7,0.2 0.2,0.1 0.4,0.1 0.6,0.2 0.2,0.1 0.4,0.1 0.6,0.2 0.2,0 0.3,0.1 0.5,0.1 0.2,0 0.3,0.1 0.5,0.1 0.1,0 0.3,0.1 0.4,0.1 0.1,0 0.3,0.1 0.4,0.1 0.1,0 0.3,0.1 0.4,0.1 0.1,0 0.3,0.1 0.4,0.1 0.1,0.1 0.3,0.1 0.4,0.1 0.1,0 0.3,0.1 0.4,0.1 0.1,0 0.2,0.1 0.4,0.1 0.1,0 0.2,0.1 0.3,0.1 0.1,0 0.2,0.1 0.3,0.1 0.1,0 0.2,0.1 0.2,0.1 0.1,0 0.1,0.1 0.2,0.1 0,0 -1.3,3.8 -1.3,3.8 v 0 c -0.1,0 -0.1,0 -0.2,-0.1 -0.1,-0.1 -0.2,-0.1 -0.3,-0.1 -0.1,0 -0.2,-0.1 -0.3,-0.1 -0.1,-0.1 -0.2,-0.1 -0.3,-0.1 -0.1,0 -0.2,-0.1 -0.4,-0.1 -0.1,-0.1 -0.2,-0.1 -0.4,-0.1 -0.1,0 -0.3,-0.1 -0.4,-0.1 -0.1,-0.1 -0.2,-0.1 -0.4,-0.1 -0.1,0 -0.2,-0.1 -0.4,-0.1 -0.1,-0.1 -0.3,-0.1 -0.4,-0.1 -0.1,0 -0.3,-0.1 -0.5,-0.1 -0.2,-0.1 -0.3,-0.1 -0.5,-0.1 -0.2,0 -0.3,-0.1 -0.5,-0.1 -0.2,-0.1 -0.4,-0.1 -0.6,-0.2 -0.2,-0.1 -0.4,-0.1 -0.6,-0.2 -0.2,-0.1 -0.4,-0.1 -0.7,-0.2 -0.2,-0.1 -0.5,-0.1 -0.7,-0.2 -0.3,-0.1 -0.5,-0.1 -0.8,-0.2 -0.3,-0.1 -0.5,-0.1 -0.8,-0.2 -0.3,-0.1 -0.5,-0.1 -0.8,-0.2 -0.3,-0.1 -0.5,-0.1 -0.8,-0.2 -0.3,0 -0.5,-0.1 -0.8,-0.1 -0.3,0 -0.5,-0.1 -0.8,-0.1 -0.3,0 -0.5,-0.1 -0.8,-0.1 -0.3,-0.1 -0.5,-0.1 -0.8,-0.1 -0.2,0 -0.5,0 -0.7,0 -0.2,0 -0.4,0 -0.6,0 -0.2,0 -0.4,0 -0.6,0 -0.2,0 -0.4,0 -0.6,0.1 -0.2,0 -0.3,0 -0.5,0.1 -0.1,0 -0.2,0 -0.3,0.1 -0.1,0 -0.2,0 -0.2,0.1 0,0 -1.4,-3.8 -1.4,-3.8 z"
     id="path56" />
  <path
     style="fill:#eec73e"
     d="m 219.686,31.765 c 0,0.1 0,0.2 0,0.3 0,0.1 0,0.2 0.1,0.3 0,0.1 0.1,0.3 0.1,0.4 0,0.1 0.1,0.3 0.1,0.4 0.1,0.1 0.1,0.3 0.2,0.5 0.1,0.2 0.1,0.3 0.2,0.5 0.1,0.2 0.2,0.4 0.2,0.6 0.1,0.2 0.2,0.4 0.3,0.6 0.1,0.2 0.2,0.4 0.3,0.6 0.1,0.2 0.2,0.4 0.3,0.6 0.1,0.2 0.2,0.4 0.3,0.6 0.1,0.2 0.2,0.4 0.3,0.6 0.1,0.2 0.2,0.4 0.3,0.6 0.1,0.2 0.2,0.4 0.3,0.6 0.1,0.2 0.2,0.3 0.3,0.5 0.1,0.2 0.2,0.3 0.3,0.5 0.1,0.2 0.2,0.3 0.3,0.5 0.1,0.2 0.2,0.3 0.3,0.5 0.1,0.1 0.2,0.3 0.3,0.4 0.1,0.1 0.2,0.3 0.3,0.4 0.1,0.1 0.2,0.3 0.3,0.4 0.1,0.1 0.2,0.3 0.3,0.4 0.1,0.1 0.2,0.3 0.3,0.4 0.1,0.1 0.2,0.3 0.3,0.4 0.1,0.1 0.2,0.2 0.3,0.3 0.1,0.1 0.2,0.2 0.2,0.3 0.1,0.1 0.1,0.2 0.2,0.3 0.1,0.1 0.1,0.2 0.2,0.3 0.1,0.1 0,0 0.1,0.1 0,0 -3.2,2.4 -3.2,2.4 v 0 c -0.1,-0.1 0.1,0.1 -0.1,-0.1 -0.1,-0.1 -0.1,-0.2 -0.2,-0.3 -0.1,-0.1 -0.1,-0.2 -0.2,-0.3 -0.1,-0.1 -0.2,-0.2 -0.2,-0.3 -0.1,-0.1 -0.2,-0.2 -0.3,-0.3 -0.1,-0.1 -0.2,-0.3 -0.3,-0.4 -0.1,-0.1 -0.2,-0.3 -0.3,-0.4 -0.1,-0.1 -0.2,-0.3 -0.3,-0.4 -0.1,-0.1 -0.2,-0.3 -0.3,-0.4 -0.1,-0.1 -0.2,-0.3 -0.3,-0.5 -0.1,-0.2 -0.2,-0.3 -0.3,-0.5 -0.1,-0.2 -0.2,-0.3 -0.4,-0.5 -0.1,-0.2 -0.3,-0.4 -0.4,-0.6 -0.1,-0.2 -0.3,-0.4 -0.4,-0.6 -0.1,-0.2 -0.2,-0.4 -0.4,-0.6 -0.1,-0.2 -0.2,-0.4 -0.4,-0.6 -0.1,-0.2 -0.2,-0.4 -0.4,-0.7 -0.1,-0.2 -0.3,-0.5 -0.4,-0.7 -0.1,-0.2 -0.3,-0.5 -0.4,-0.7 -0.1,-0.2 -0.2,-0.5 -0.3,-0.7 -0.1,-0.2 -0.2,-0.5 -0.3,-0.7 -0.1,-0.2 -0.2,-0.4 -0.3,-0.6 -0.1,-0.2 -0.2,-0.4 -0.3,-0.6 -0.1,-0.2 -0.2,-0.4 -0.2,-0.7 -0.1,-0.2 -0.2,-0.4 -0.2,-0.7 -0.1,-0.2 -0.1,-0.4 -0.2,-0.6 0,-0.2 -0.1,-0.4 -0.1,-0.5 0,-0.2 -0.1,-0.4 -0.1,-0.6 0,-0.2 -0.1,-0.3 -0.1,-0.5 0,0 4,-0.3 4,-0.3 z"
     id="path58" />
  <text
     x="14.0547"
     y="82.5419"
     style="font-weight:bold;font-size:20px;fill:#0197fd"
     id="text60">2</text>
  <g
     transform="matrix(0.5,0,0,0.5,-65.2478,-616.944)"
     id="g68">
    <text
       x="676"
       y="1437.1"
       style="font-weight:900;font-size:40px;stroke-width:1.1"
       id="text62">8</text>
    <text
       x="654.3"
       y="1437.1"
       style="font-weight:900;font-size:40px;stroke-width:1.1"
       id="text64">1</text>
    <text
       x="634.2"
       y="1435.1"
       style="font-weight:900;font-size:40px;stroke-width:1.1"
       id="text66">-</text>
  </g>
  <text
     x="42.5008"
     y="84.988"
     style="font-weight:bold;font-size:28px;fill:#0197fd"
     id="text5404">×</text>
</svg>
